<svg width="160" height="160" viewBox="0 0 160 160" fill="none" xmlns="http://www.w3.org/2000/svg">
<rect width="160" height="160" fill="white"/>
<g clip-path="url(#clip0_624_10734)">
<path d="M160 77.5312H0V83.4911H160V77.5312Z" fill="#FF6600"/>
<path d="M20.4153 62H19.9568C18.6908 62 17.6646 63.0263 17.6646 64.2923V96.3839C17.6646 97.6499 18.6908 98.6762 19.9568 98.6762H20.4153C21.6812 98.6762 22.7075 97.6499 22.7075 96.3839V64.2923C22.7075 63.0263 21.6812 62 20.4153 62Z" fill="black"/>
<path d="M13.506 67.3489H13.2501C12.3758 67.3489 11.667 68.0577 11.667 68.932V91.0958C11.667 91.9702 12.3758 92.679 13.2501 92.679H13.506C14.3803 92.679 15.0891 91.9702 15.0891 91.0958V68.932C15.0891 68.0577 14.3803 67.3489 13.506 67.3489Z" fill="black"/>
<path d="M6.59928 72.2114H6.18135C5.62033 72.2114 5.16553 72.6662 5.16553 73.2273V87.4488C5.16553 88.0098 5.62033 88.4646 6.18135 88.4646H6.59928C7.16031 88.4646 7.61511 88.0098 7.61511 87.4488V73.2273C7.61511 72.6662 7.16031 72.2114 6.59928 72.2114Z" fill="black"/>
<path d="M139.585 62H140.043C141.309 62 142.335 63.0263 142.335 64.2923V96.3839C142.335 97.6499 141.309 98.6762 140.043 98.6762H139.585C138.319 98.6762 137.292 97.6499 137.292 96.3839V64.2923C137.292 63.0263 138.319 62 139.585 62Z" fill="black"/>
<path d="M146.494 67.3489H146.75C147.624 67.3489 148.333 68.0577 148.333 68.932V91.0958C148.333 91.9702 147.624 92.679 146.75 92.679H146.494C145.62 92.679 144.911 91.9702 144.911 91.0958V68.932C144.911 68.0577 145.62 67.3489 146.494 67.3489Z" fill="black"/>
<path d="M153.401 72.2114H153.819C154.38 72.2114 154.834 72.6662 154.834 73.2273V87.4488C154.834 88.0098 154.38 88.4646 153.819 88.4646H153.401C152.84 88.4646 152.385 88.0098 152.385 87.4488V73.2273C152.385 72.6662 152.84 72.2114 153.401 72.2114Z" fill="black"/>
</g>
<defs>
<clipPath id="clip0_624_10734">
<rect width="160" height="36.6762" fill="white" transform="translate(0 62)"/>
</clipPath>
</defs>
</svg>
