<svg width="769" height="191" viewBox="0 0 769 191" fill="none"
  xmlns="http://www.w3.org/2000/svg">
  <path d="M247.919 61.1689H276.174V135.146H285.592V61.1689H313.963V52.4542H247.919V61.1689Z" fill="#ECEDEE"/>
  <path d="M445.197 75.4329C436.526 75.4329 430.161 78.9598 426.263 85.911C423.224 78.9549 417.49 75.4329 409.205 75.4329C402.512 75.4329 397.203 77.8118 393.749 82.3352V76.3708H384.917L385.034 135.146H394.101V106.872C394.101 91.1867 398.658 83.5614 408.032 83.5614C416.342 83.5614 420.557 89.5112 420.557 101.245V135.146H429.624V106.872C429.624 91.1867 434.333 83.5614 444.024 83.5614C456.198 83.5614 456.198 95.6222 456.198 100.776V135.146H465.264V98.5483C465.264 83.4246 458.327 75.4329 445.197 75.4329Z" fill="#ECEDEE"/>
  <path d="M340.557 75.4329C322.483 75.4329 314.394 90.8106 314.394 106.051C314.394 124.297 325.033 136.084 341.495 136.084C350.977 136.084 357.566 133.221 364.239 126.202L364.591 125.83L358.226 120.262L357.903 120.609C353.165 125.66 348.446 127.721 341.612 127.721C330.626 127.721 323.87 120.516 323.475 108.416H365.71L365.778 108.005C365.998 106.682 366.135 104.718 366.135 102.886C366.139 95.6906 364.005 89.0471 360.126 84.1769C355.573 78.4566 348.808 75.4329 340.557 75.4329ZM340.557 83.2096C350.268 83.2096 356.682 89.3695 357.303 99.2517C357.303 99.8525 357.342 100.317 357.371 100.639H323.499C324.422 90.1902 331.227 83.2096 340.557 83.2096Z" fill="#ECEDEE"/>
  <path d="M701.591 75.4329C691.557 75.4329 683.946 79.2577 677.64 87.4644L677.357 87.8356L683.976 93.3996L684.284 92.9746C688.954 86.5509 694.415 83.5614 701.474 83.5614C710.97 83.5614 715.991 88.7833 715.991 98.6655V100.873H704.639C693.379 100.873 686.956 101.909 682.457 104.464C677.933 107.273 675.544 111.918 675.544 117.893C675.544 129.284 683.18 136.084 695.963 136.084C704.746 136.084 711.58 133.07 716.299 127.12L716.719 135.146H725.058V98.6655C725.058 91.4603 722.923 85.5397 718.878 81.539C714.839 77.5431 708.859 75.4329 701.591 75.4329ZM715.991 108.416V108.748C715.991 120.887 709.216 128.424 698.308 128.424C689.857 128.424 684.611 124.57 684.611 118.361C684.611 115.176 685.612 112.778 687.591 111.239C690.258 109.129 694.737 108.416 705.342 108.416H715.991Z" fill="#ECEDEE"/>
  <path d="M656.923 75.4329C651.77 75.4329 644.862 76.9276 640.295 83.7909V76.3708H631.229V135.146H640.295V102.417C640.295 90.8594 646.04 83.6786 655.282 83.6786C657.651 83.6786 660.01 84.2257 662.707 85.3981L663.098 85.5691L667.567 78.2075L667.123 77.9632C664.07 76.2584 660.733 75.4329 656.923 75.4329Z" fill="#ECEDEE"/>
  <path d="M756.072 127.144V52.4835H747.533V127.804C747.533 132.054 751.065 135.507 755.408 135.507H768.934V127.144H756.072Z" fill="#ECEDEE"/>
  <path d="M584.001 75.4329C575.936 75.4329 568.697 78.4957 563.607 84.0645C558.6 89.5405 555.845 97.2245 555.845 105.7C555.845 114.185 558.6 121.888 563.607 127.394C568.702 132.997 575.946 136.084 584.001 136.084C600.385 136.084 612.275 123.305 612.275 105.7C612.275 97.244 609.486 89.56 604.411 84.0596C599.276 78.4957 592.032 75.4329 584.001 75.4329ZM603.209 105.7C603.209 111.996 601.411 117.638 598.133 121.595C594.69 125.757 589.805 127.955 584.001 127.955C572.405 127.955 564.911 119.221 564.911 105.7C564.911 92.2516 572.405 83.5614 584.001 83.5614C595.671 83.5614 603.209 92.2516 603.209 105.7Z" fill="#ECEDEE"/>
  <path d="M515.3 75.3156C507.587 75.3156 501.183 78.0463 496.679 83.2292V76.3708H487.612V159.063H496.679V128.273C501.187 133.387 507.596 136.084 515.3 136.084C531.44 136.084 541.464 124.443 541.464 105.7C541.468 96.648 539.07 89.0276 534.537 83.6639C529.921 78.2026 523.267 75.3156 515.3 75.3156ZM532.397 105.7C532.397 112.25 530.79 117.78 527.742 121.698C524.552 125.791 519.843 127.955 514.128 127.955C502.931 127.955 495.975 119.426 495.975 105.7C495.975 91.9732 502.931 83.4441 514.128 83.4441C525.397 83.4441 532.397 91.9732 532.397 105.7Z" fill="#ECEDEE"/>
  <path d="M129.89 62.0775C125.382 28.2885 113.966 0.078186 96.4287 0.078186C78.8968 0.078186 67.4807 28.2837 62.9671 62.0775C29.1781 66.5862 0.967773 78.0023 0.967773 95.5391C0.967773 113.071 29.1781 124.487 62.9671 129.001C67.4758 162.785 78.8919 191 96.4287 191C113.961 191 125.377 162.79 129.89 129.001C163.679 124.487 191.89 113.076 191.89 95.5391C191.89 78.0023 163.674 66.5862 129.89 62.0775ZM61.868 119.153C29.5054 114.478 10.635 103.78 10.635 95.5342C10.635 87.2885 29.5103 76.5905 61.868 71.9157C61.1548 79.7071 60.7835 87.6597 60.7835 95.5342C60.7835 103.409 61.1548 111.371 61.868 119.153ZM96.4336 9.74054C104.679 9.74054 115.377 28.6158 120.052 60.9735C112.266 60.2603 104.308 59.889 96.4336 59.889C88.5591 59.889 80.6016 60.2603 72.815 60.9735C77.4899 28.6109 88.1879 9.74054 96.4336 9.74054ZM130.994 119.153C129.402 119.387 122.866 120.149 121.215 120.315C121.054 121.971 120.282 128.502 120.052 130.095C115.377 162.458 104.679 181.333 96.4336 181.333C88.1879 181.333 77.4899 162.458 72.815 130.095C72.5854 128.502 71.8136 121.966 71.6524 120.315C70.9002 112.646 70.4459 104.405 70.4459 95.5342C70.4459 86.6681 70.9002 78.4273 71.6524 70.7482C79.3217 69.9959 87.5626 69.5416 96.4336 69.5416C105.3 69.5416 113.541 69.9959 121.215 70.7482C122.871 70.9094 129.402 71.6812 130.994 71.9108C163.357 76.5857 182.237 87.2885 182.237 95.5293C182.232 103.77 163.357 114.478 130.994 119.153Z" fill="#ECEDEE"/>
</svg>
