<svg xmlns="http://www.w3.org/2000/svg" viewBox="0 0 400 400"><title>lagom-icon</title><rect width="400" height="400" fill="#652b7c"/><g opacity="0.8"><path d="M355,185.76,271.54,226.3,355,266.84S354.74,186.08,355,185.76Z" fill="#fff"/></g><g opacity="0.8"><polygon points="188.08 266.84 271.54 226.3 188.08 185.76 188.08 266.84" fill="#fff"/></g><path d="M271.54,226.3,355,266.84c-.32,0-49.79,29.81-72.28,43.21a21,21,0,0,1-21.52,0c-22.49-13.4-73.12-43.21-73.12-43.21Z" fill="#fff" opacity="0.6"/><path d="M282.54,142.41C305,155.82,355,185.76,355,185.76L271.54,226.3l-83.46-40.54c.32,0,50.45-29.95,72.95-43.35A21,21,0,0,1,282.54,142.41Z" fill="#fff"/><g opacity="0.8"><path d="M216.69,110.15,175,130.42l41.73,20.27S216.56,110.31,216.69,110.15Z" fill="#fff"/></g><g opacity="0.8"><polygon points="133.23 150.69 174.96 130.42 133.23 110.15 133.23 150.69" fill="#fff"/></g><path d="M175,130.42l41.73,20.27c-.16,0-24.89,14.9-36.14,21.61a10.52,10.52,0,0,1-10.76,0c-11.24-6.7-36.56-21.6-36.56-21.6Z" fill="#fff" opacity="0.6"/><path d="M180.46,88.47c11.24,6.7,36.23,21.67,36.23,21.67L175,130.42l-41.73-20.27c.16,0,25.23-15,36.47-21.67A10.52,10.52,0,0,1,180.46,88.47Z" fill="#fff"/><g opacity="0.8"><path d="M164.23,194.13l-59.62,29.24,59.62,29.24S164,194.36,164.23,194.13Z" fill="#fff"/></g><g opacity="0.8"><polygon points="45 252.61 104.61 223.37 45 194.13 45 252.61" fill="#fff"/></g><path d="M104.62,223.37l59.62,29.24c-.23,0-35.56,21.5-51.63,31.17a14.9,14.9,0,0,1-15.37,0C81.17,274.11,45,252.61,45,252.61Z" fill="#fff" opacity="0.6"/><path d="M112.47,162.86c16.06,9.67,51.76,31.27,51.76,31.27l-59.62,29.24L45,194.13c.23,0,36-21.6,52.11-31.27A14.9,14.9,0,0,1,112.47,162.86Z" fill="#fff"/></svg>