<svg width="160" height="160" viewBox="0 0 160 160" fill="none" xmlns="http://www.w3.org/2000/svg">
<g clip-path="url(#clip0_953_11172)">
<path d="M124.975 77.6599C124.975 75.6453 124.175 73.7133 122.75 72.2887C121.326 70.8642 119.394 70.0639 117.379 70.0639C115.365 70.0639 113.433 70.8642 112.008 72.2887C110.584 73.7133 109.783 75.6453 109.783 77.6599C109.823 79.104 110.31 80.5002 111.176 81.6564C112.042 82.8127 113.245 83.6721 114.619 84.1165V95.6876C111.309 87.2094 105.113 80.171 97.1234 75.8115C98.2881 73.2796 99.4782 71.1021 100.618 69.1018C104.97 62.6641 109.767 56.5386 114.974 50.7702C117.835 47.3774 120.544 44.1871 122.747 41.4019C128.925 33.654 135.711 22.2095 134.445 15.4237C134.291 14.4727 133.927 13.5678 133.38 12.775C132.832 11.9823 132.115 11.3215 131.28 10.8409C122.696 5.77689 111.024 22.2348 99.5541 38.1103C91.9582 48.5927 88.0336 63.4301 86.2359 71.7604C82.7178 70.9897 79.1271 70.5992 75.5256 70.5957C70.2891 70.5793 65.0865 71.435 60.1311 73.1276C59.8087 63.8354 60.0878 54.532 60.9667 45.2758C63.4987 21.1967 62.3846 7.0682 57.7004 2.23211C57.0994 1.50516 56.3392 0.926131 55.4787 0.539781C54.6182 0.153432 53.6804 -0.0298955 52.7377 0.00396624C38.9131 0.687602 40.4829 41.9843 40.7108 46.6937C41.2679 57.9864 45.7748 71.7097 48.5093 79.3057C42.1286 84.3535 37.4817 91.2663 35.2164 99.0805H34.2289C33.1885 99.033 32.1489 99.1924 31.1704 99.5494C30.192 99.9065 29.2941 100.454 28.5287 101.161C27.7634 101.867 27.1458 102.718 26.7117 103.665C26.2777 104.612 26.0358 105.635 26 106.676V119.767C26.0391 120.807 26.2832 121.829 26.7184 122.774C27.1536 123.719 27.7713 124.569 28.5359 125.275C29.3006 125.981 30.1972 126.528 31.1741 126.887C32.1511 127.245 33.1893 127.407 34.2289 127.363H35.9001C37.8031 131.823 40.6442 135.821 44.2303 139.086L41.6983 141.314C41.1079 141.823 40.7423 142.545 40.6807 143.323C40.619 144.1 40.8664 144.87 41.3691 145.466C48.9651 154.708 61.3971 160 75.3484 160C89.2996 160 101.782 154.708 109.328 145.466C109.83 144.87 110.078 144.1 110.016 143.323C109.954 142.545 109.589 141.823 108.998 141.314L106.466 139.086C110.063 135.751 112.904 131.685 114.797 127.16H116.696C117.735 127.204 118.773 127.043 119.75 126.684C120.727 126.326 121.624 125.778 122.389 125.072C123.153 124.366 123.771 123.516 124.206 122.571C124.641 121.626 124.886 120.604 124.925 119.564V106.575C124.887 105.091 124.407 103.651 123.545 102.442C122.683 101.233 121.479 100.309 120.089 99.7894V84.1165C121.475 83.6841 122.691 82.8292 123.567 81.6716C124.443 80.5139 124.936 79.1112 124.975 77.6599V77.6599Z" fill="#CDCCCC"/>
<path d="M63.0172 141.137C65.3466 139.593 59.2192 140.175 58.7128 139.137C56.2657 138.92 53.8425 138.488 51.4714 137.846C47.167 136.706 36.8365 129.768 35.7224 123.109C34.6084 116.45 35.7224 103.816 40.3813 96.2197C43.2982 91.592 47.0605 87.5549 51.4714 84.3194C51.4714 84.3194 42.4322 62.8228 41.6726 46.5928C40.913 30.3628 42.179 1.47288 52.7627 0.966483C63.3464 0.460086 61.8019 27.5017 60.0042 45.099C58.9367 56.7834 58.7675 68.5325 59.4978 80.2429C64.006 78.811 68.6948 78.0267 73.4237 77.9135C77.5905 77.8169 81.7543 78.2078 85.8304 79.0782C85.8304 79.0782 89.1979 54.1635 100.288 38.5664C111.378 22.9694 123.076 7.04324 130.672 11.5755C138.268 16.1077 128.596 32.2871 121.886 40.7186C115.176 49.1501 103.554 61.81 99.6803 68.5704C97.1407 73.0689 94.8993 77.7294 92.9706 82.5217C99.8793 86.0673 105.528 91.6546 109.15 98.5238C114.619 109.437 115.024 122.856 112.087 128.553C110.612 131.184 108.574 133.456 106.118 135.207C103.663 136.958 100.85 138.144 97.8826 138.681C94.5151 138.833 80.3613 142.352 80.3613 142.352L63.0172 141.137Z" fill="white"/>
<path d="M87.8062 79.3056C87.8062 79.3056 96.263 57.252 103.834 44.8706C111.404 32.4892 121.557 23.1209 124.748 25.0199C127.938 26.9189 118.241 38.49 109.733 49.8586C102.803 59.8972 96.5194 70.3671 90.9205 81.2046L87.8062 79.3056Z" fill="#DD00A1"/>
<path d="M53.852 83.0785L56.3839 81.2048C56.3839 81.2048 56.0295 59.1512 56.3839 45.7571C56.7384 32.3629 57.4221 15.6265 52.9405 15.7784C48.4588 15.9303 45.3445 28.8687 47.0916 47.1243C48.3496 59.275 50.6108 71.3007 53.852 83.0785V83.0785Z" fill="#DD00A1"/>
<path d="M46.3066 130.35C49.0194 130.35 51.2186 128.151 51.2186 125.438C51.2186 122.726 49.0194 120.526 46.3066 120.526C43.5937 120.526 41.3945 122.726 41.3945 125.438C41.3945 128.151 43.5937 130.35 46.3066 130.35Z" fill="#F9D8D2"/>
<path d="M104.364 130.35C107.077 130.35 109.276 128.151 109.276 125.438C109.276 122.726 107.077 120.526 104.364 120.526C101.651 120.526 99.4521 122.726 99.4521 125.438C99.4521 128.151 101.651 130.35 104.364 130.35Z" fill="#F9D8D2"/>
<path d="M83.4759 125.033C83.423 125.002 83.3643 124.982 83.3035 124.974C83.2426 124.966 83.1807 124.971 83.1216 124.987C83.0625 125.004 83.0073 125.032 82.9594 125.07C82.9115 125.109 82.8719 125.156 82.8429 125.211C82.8429 125.211 81.3743 127.743 79.2474 127.894C78.5271 127.873 77.8186 127.705 77.1655 127.4C76.5124 127.096 75.9285 126.661 75.4495 126.122V122.375C76.8167 121.615 79.0196 119.336 79.0196 118.551C78.8276 117.715 78.3406 116.975 77.6477 116.468C76.9548 115.961 76.1025 115.721 75.2469 115.792C72.7149 115.792 70.9425 117.437 70.9425 118.805C70.9425 120.172 73.7277 121.944 74.5126 122.451V126.147C74.1131 126.655 73.6113 127.072 73.0399 127.373C72.4685 127.674 71.8402 127.852 71.1957 127.894C69.1955 127.894 67.6763 125.16 67.651 125.135C67.5918 125.026 67.493 124.944 67.3751 124.906C67.2572 124.869 67.1293 124.878 67.018 124.932C66.9074 124.996 66.8251 125.099 66.7875 125.221C66.75 125.344 66.7599 125.475 66.8154 125.59C66.8154 125.59 68.6131 128.857 71.1957 128.857C71.9252 128.825 72.6406 128.644 73.2979 128.327C73.9553 128.009 74.541 127.56 75.019 127.008C76.0699 128.109 77.4999 128.77 79.0196 128.857H79.3234C80.2357 128.677 81.097 128.298 81.8455 127.746C82.594 127.195 83.2113 126.484 83.6531 125.666C83.6843 125.613 83.7044 125.555 83.7124 125.494C83.7203 125.433 83.7159 125.371 83.6993 125.312C83.6828 125.253 83.6544 125.198 83.616 125.15C83.5776 125.102 83.53 125.062 83.4759 125.033V125.033Z" fill="#10110E"/>
<path d="M51.4716 84.3695C51.4716 84.3695 44.458 66.6456 43.116 57.3785C41.7741 48.1115 40.584 32.6411 42.3564 22.3359C43.1179 17.5884 44.1493 12.8882 45.4454 8.25806C45.4454 8.25806 42.1792 32.2866 43.3945 42.7943C44.6099 53.302 51.4716 84.3695 51.4716 84.3695Z" fill="#E5E5E5"/>
<path d="M85.8306 79.0782C85.8306 79.0782 90.8945 52.2645 98.2626 41.7314C105.631 31.1984 114.771 18.4119 119.405 15.1963L124.038 11.9553C124.038 11.9553 105.453 31.4516 98.2626 47.4031C91.0718 63.3546 85.8306 79.0782 85.8306 79.0782Z" fill="#E5E5E5"/>
<path d="M56.3842 109.462C55.6219 109.456 54.8754 109.678 54.2392 110.098C53.6029 110.518 53.1057 111.117 52.8105 111.82C52.5154 112.522 52.4355 113.297 52.5811 114.045C52.7268 114.794 53.0913 115.482 53.6285 116.022C54.1657 116.563 54.8514 116.932 55.5987 117.083C56.3459 117.233 57.121 117.159 57.8258 116.868C58.5305 116.578 59.1331 116.084 59.5571 115.451C59.9811 114.817 60.2075 114.072 60.2075 113.31C60.2075 112.294 59.8055 111.319 59.0892 110.598C58.3729 109.877 57.4005 109.468 56.3842 109.462ZM57.4729 113.032C57.1976 113.032 56.9336 112.922 56.7389 112.728C56.5442 112.533 56.4348 112.269 56.4348 111.993C56.4348 111.718 56.5442 111.454 56.7389 111.259C56.9336 111.065 57.1976 110.955 57.4729 110.955C57.7483 110.955 58.0123 111.065 58.207 111.259C58.4017 111.454 58.5111 111.718 58.5111 111.993C58.5112 112.134 58.4828 112.273 58.4275 112.403C58.3722 112.532 58.2911 112.649 58.1893 112.746C58.0875 112.843 57.967 112.919 57.8351 112.968C57.7033 113.017 57.5628 113.038 57.4223 113.032H57.4729Z" fill="#10110E"/>
<path d="M94.1606 109.461C93.3994 109.461 92.6554 109.687 92.0225 110.11C91.3895 110.533 90.8963 111.134 90.605 111.837C90.3137 112.54 90.2375 113.314 90.386 114.061C90.5345 114.807 90.901 115.493 91.4392 116.031C91.9775 116.57 92.6632 116.936 93.4098 117.085C94.1564 117.233 94.9302 117.157 95.6334 116.866C96.3367 116.574 96.9377 116.081 97.3606 115.448C97.7835 114.815 98.0092 114.071 98.0092 113.31C98.0092 112.289 97.6038 111.31 96.882 110.589C96.1603 109.867 95.1813 109.461 94.1606 109.461ZM95.2494 113.032C94.9761 113.025 94.7158 112.914 94.5224 112.72C94.3291 112.527 94.2177 112.267 94.2113 111.993C94.2503 111.743 94.3776 111.514 94.5703 111.349C94.763 111.184 95.0084 111.094 95.262 111.094C95.5157 111.094 95.7611 111.184 95.9537 111.349C96.1464 111.514 96.2738 111.743 96.3128 111.993C96.3062 112.271 96.1913 112.535 95.9925 112.729C95.7938 112.923 95.5271 113.032 95.2494 113.032V113.032Z" fill="#10110E"/>
<path opacity="0.2" d="M75.9558 140.478C95.6729 140.478 111.657 128.961 111.657 114.754C111.657 100.546 95.6729 89.0286 75.9558 89.0286C56.2387 89.0286 40.2549 100.546 40.2549 114.754C40.2549 128.961 56.2387 140.478 75.9558 140.478Z" fill="#8ACCCE"/>
<path d="M119.177 100.447V83.5591C120.51 83.2654 121.708 82.5407 122.587 81.497C123.466 80.4534 123.976 79.1492 124.039 77.7862C123.863 76.1395 123.084 74.616 121.852 73.5089C120.621 72.4018 119.023 71.7894 117.367 71.7894C115.711 71.7894 114.113 72.4018 112.881 73.5089C111.65 74.616 110.871 76.1395 110.695 77.7862C110.752 79.147 111.257 80.4507 112.132 81.4947C113.006 82.5387 114.201 83.2645 115.531 83.5591V100.017H115.05C109.986 82.4451 95.022 71.5322 75.5004 71.5322C55.9789 71.5322 40.9136 82.3438 35.9256 100.017H34.2291C32.3944 99.9272 30.5985 100.566 29.2327 101.794C27.8668 103.023 27.0417 104.741 26.937 106.575V119.665C27.0481 121.495 27.876 123.207 29.2411 124.429C30.6063 125.652 32.3985 126.288 34.2291 126.198H36.5332C38.4911 131.164 41.6179 135.585 45.6484 139.086L42.3568 142.023C42.1543 142.193 41.9877 142.402 41.8665 142.637C41.7453 142.872 41.672 143.129 41.6508 143.393C41.6296 143.657 41.6609 143.922 41.743 144.174C41.8251 144.425 41.9562 144.658 42.1289 144.858C49.5223 153.796 61.6505 159.038 75.3739 159.038C89.0972 159.038 101.225 153.974 108.619 144.858C108.791 144.658 108.923 144.425 109.005 144.174C109.087 143.922 109.118 143.657 109.097 143.393C109.076 143.129 109.002 142.872 108.881 142.637C108.76 142.402 108.593 142.193 108.391 142.023L105.099 139.086C109.113 135.57 112.237 131.153 114.214 126.198H116.746C118.577 126.288 120.369 125.652 121.734 124.429C123.1 123.207 123.927 121.495 124.039 119.665V106.575C123.982 105.17 123.481 103.82 122.607 102.718C121.733 101.617 120.532 100.822 119.177 100.447V100.447ZM75.5004 90.1929C93.5788 90.1929 108.264 102.093 108.264 116.703C108.264 132.528 91.7558 139.491 75.5004 139.491C59.2451 139.491 42.7366 132.401 42.7366 116.703C42.7366 102.093 57.4221 90.1929 75.5004 90.1929Z" fill="white"/>
<path d="M120.392 115.285H115.531C115.531 114.526 115.531 113.766 115.531 112.905C115.528 109.674 115.206 106.451 114.569 103.284H116.62C117.077 103.253 117.536 103.314 117.969 103.464C118.402 103.614 118.8 103.85 119.14 104.157C119.48 104.464 119.755 104.836 119.949 105.252C120.142 105.667 120.25 106.117 120.266 106.575L120.392 115.285Z" fill="#515151"/>
<path d="M116.746 122.932H114.214C114.696 121.143 115.059 119.325 115.303 117.488H120.367V119.666C120.351 120.12 120.243 120.567 120.051 120.979C119.859 121.392 119.586 121.761 119.248 122.066C118.911 122.371 118.515 122.604 118.085 122.753C117.655 122.902 117.2 122.963 116.746 122.932Z" fill="#515151"/>
<path d="M75.4998 155.67C63.3463 155.67 52.5601 151.29 45.749 143.542L49.1672 140.503C56.9477 145.698 66.1479 148.352 75.4998 148.099C84.8511 148.347 94.0498 145.694 101.832 140.503L105.225 143.542C98.4396 151.29 87.628 155.67 75.4998 155.67Z" fill="#515151"/>
<path d="M34.229 103.284H36.4066C35.7744 106.452 35.4521 109.675 35.4444 112.905C35.384 113.698 35.384 114.493 35.4444 115.285H30.7096V106.575C30.7008 106.121 30.7877 105.67 30.9645 105.251C31.1414 104.833 31.4043 104.456 31.7361 104.146C32.068 103.835 32.4615 103.598 32.891 103.45C33.3204 103.301 33.7763 103.245 34.229 103.284Z" fill="#515151"/>
<path d="M75.5002 88.0155C71.3873 88.0277 67.2964 88.6158 63.3467 89.7626V76.571C67.2995 75.4498 71.3915 74.8957 75.5002 74.9252C79.6004 74.8974 83.6839 75.4515 87.6284 76.571V89.8639C83.7029 88.6357 79.6133 88.0124 75.5002 88.0155Z" fill="black"/>
<path d="M60.9414 77.3306V90.6488C48.7879 95.1051 40.3057 105.157 40.3057 116.703C40.3057 131.667 54.5101 141.795 75.5003 141.795C96.4904 141.795 110.695 131.667 110.695 116.703C110.695 105.157 102.187 95.1051 90.0592 90.6488V77.3306C104.264 82.3945 113.126 95.5355 113.126 113.006C113.126 132.654 98.0602 145.922 75.5003 145.922C52.9403 145.922 37.875 132.73 37.875 113.006C37.875 95.5355 46.7369 82.4452 60.9414 77.3306Z" fill="#515151"/>
<path d="M30.5824 117.488H35.6464C35.8774 119.327 36.2412 121.146 36.7352 122.932H34.2032C33.748 122.963 33.2913 122.902 32.8599 122.754C32.4286 122.605 32.0313 122.372 31.6915 122.067C31.3517 121.763 31.0763 121.394 30.8815 120.981C30.6866 120.569 30.5764 120.121 30.5571 119.666L30.5824 117.488Z" fill="#515151"/>
<path d="M117.354 80.3944C119.032 80.3944 120.392 79.1701 120.392 77.6598C120.392 76.1496 119.032 74.9253 117.354 74.9253C115.676 74.9253 114.315 76.1496 114.315 77.6598C114.315 79.1701 115.676 80.3944 117.354 80.3944Z" fill="#515151"/>
</g>
<defs>
<clipPath id="clip0_953_11172">
<rect width="160" height="160" fill="white"/>
</clipPath>
</defs>
</svg>
