<svg width="160" height="160" viewBox="0 0 160 160" fill="none" xmlns="http://www.w3.org/2000/svg">
<rect width="160" height="160" fill="white"/>
<mask id="mask0_608_13355" style="mask-type:alpha" maskUnits="userSpaceOnUse" x="0" y="8" width="160" height="144">
<path d="M158.079 72.5232L125.205 15.3498C122.689 10.8889 118 8.09277 112.88 8H47.1193C41.9982 8.09024 37.3082 10.8871 34.7947 15.3498L1.90808 72.3732C-0.636027 76.8002 -0.636027 82.2457 1.90808 86.6728L34.7821 144.171C37.27 148.695 41.9474 151.584 47.1068 151.783H112.867C118.027 151.606 122.712 148.729 125.205 144.209L158.079 87.0353C160.64 82.5371 160.64 77.0214 158.079 72.5232Z" fill="white"/>
</mask>
<g mask="url(#mask0_608_13355)">
<path d="M158.079 72.5232L125.205 15.3498C122.689 10.8889 118 8.09277 112.88 8H47.1193C41.9982 8.09024 37.3082 10.8871 34.7947 15.3498L1.90808 72.3732C-0.636027 76.8002 -0.636027 82.2457 1.90808 86.6728L34.7821 144.171C37.27 148.695 41.9474 151.584 47.1068 151.783H112.867C118.027 151.606 122.712 148.729 125.205 144.209L158.079 87.0353C160.64 82.5371 160.64 77.0214 158.079 72.5232Z" fill="#4285F4"/>
<path opacity="0.07" d="M116.98 60.9573L112.447 65.9007L113.468 95.2743L109.173 101.5L106.682 99.0099H108.973V88.8243L97.9784 77.8294L89.668 81.9832L62.1049 54.3579L48.8314 61.4679L47.1877 75.2395L51.8447 100.442L58.5935 107.054L55.518 111.424L95.6726 152.523H112.447C117.587 152.347 123.153 148.979 125.635 144.475L152.997 96.9732L116.98 60.9573Z" fill="black"/>
<path d="M55.5179 111.424L62.1049 104.837L52.2307 94.9628V64.232L62.1049 54.3577L55.5179 47.7708L42.3315 60.9571V98.2377L55.5179 111.424Z" fill="white"/>
<path d="M65.716 84.267C68.2949 84.267 70.3854 82.1765 70.3854 79.5976C70.3854 77.0188 68.2949 74.9282 65.716 74.9282C63.1372 74.9282 61.0466 77.0188 61.0466 79.5976C61.0466 82.1765 63.1372 84.267 65.716 84.267Z" fill="white"/>
<path d="M79.6867 84.267C82.2656 84.267 84.3561 82.1765 84.3561 79.5976C84.3561 77.0188 82.2656 74.9282 79.6867 74.9282C77.1079 74.9282 75.0173 77.0188 75.0173 79.5976C75.0173 82.1765 77.1079 84.267 79.6867 84.267Z" fill="white"/>
<path d="M93.6577 84.267C96.2365 84.267 98.3271 82.1765 98.3271 79.5976C98.3271 77.0188 96.2365 74.9282 93.6577 74.9282C91.0789 74.9282 88.9883 77.0188 88.9883 79.5976C88.9883 82.1765 91.0789 84.267 93.6577 84.267Z" fill="white"/>
<path d="M103.793 47.7708L97.2063 54.3577L107.081 64.232V94.9628L97.2063 104.837L103.793 111.424L116.98 98.2377V60.9571L103.793 47.7708Z" fill="white"/>
</g>
</svg>
