<svg width="160" height="160" viewBox="0 0 160 160" fill="none" xmlns="http://www.w3.org/2000/svg">
<g clip-path="url(#clip0_608_13173)">
<rect width="160" height="160" fill="white"/>
<path d="M160.383 75.3002C160.383 67.3154 154.015 60.5435 145.626 60.5435C139.663 60.5435 134.407 64.1821 132.385 69.3369H90.3386C87.9128 64.1821 82.7581 60.5435 77.0979 60.5435C69.1131 60.5435 62.3411 66.9111 62.3411 75.3002C62.3411 83.2851 68.7088 90.057 77.0979 90.057C83.0613 90.057 88.3171 86.4184 90.7429 80.8593H132.385C133.598 84.0937 136.428 86.8226 139.562 88.4398C134.407 113.203 114.798 132.811 89.9343 137.663C87.5085 133.216 82.7581 130.487 77.0979 130.487C69.1131 130.487 62.3411 136.854 62.3411 145.243C62.3411 153.228 68.7088 160 77.0979 160C83.8699 160 89.53 155.553 91.1472 149.59C121.57 144.03 145.525 119.975 151.185 89.1474C156.845 86.8227 160.383 81.2636 160.383 75.3002Z" fill="#108768"/>
<path d="M51.6273 145.647C50.8187 145.647 50.0101 145.647 49.6058 145.243C20.3955 133.62 2 106.431 2 75.199C2 33.5565 35.9608 0 77.199 0C107.622 0 135.215 18.3955 146.839 46.3929C148.052 49.223 146.839 52.7606 143.605 53.9735C140.774 55.1864 137.237 53.9735 136.024 50.7391C126.018 26.7846 102.872 11.5224 77.199 11.5224C42.0253 11.5224 13.6235 40.3285 13.6235 75.0979C13.6235 101.478 29.5932 124.725 54.0531 134.327C56.8831 135.54 58.5003 138.774 57.2874 141.908C55.9735 144.03 54.0531 145.647 51.6273 145.647Z" fill="black"/>
</g>
<defs>
<clipPath id="clip0_608_13173">
<rect width="160" height="160" fill="white"/>
</clipPath>
</defs>
</svg>
