<svg width="160" height="160" viewBox="0 0 160 160" fill="none" xmlns="http://www.w3.org/2000/svg">
<rect width="160" height="160" fill="none"/>
<path d="M80.0342 84.2245C79.4466 85.0597 78.9514 85.7471 78.4746 86.4418C70.8716 97.632 63.2711 108.821 55.673 120.009C48.6046 130.415 41.5288 140.816 34.4456 151.21C34.3281 151.374 34.1775 151.51 34.0037 151.612C33.8299 151.713 33.6367 151.776 33.4367 151.798C23.4365 151.712 13.4388 151.603 3.44347 151.473C3.3326 151.473 3.21804 151.44 3 151.406C3.08073 151.197 3.17454 150.994 3.28086 150.797C10.2556 139.983 17.2304 129.173 24.2052 118.364C30.3916 108.785 36.5817 99.2088 42.7754 89.6348C49.6393 78.9965 56.4996 68.3508 63.3561 57.6977C64.3687 56.1271 65.4219 54.586 66.3827 52.9858C66.6291 52.5575 66.7031 52.0514 66.5897 51.5704C64.7419 45.6797 62.8572 39.8037 60.9761 33.9278C60.1705 31.4111 59.3279 28.9092 58.574 26.3777C58.3301 25.5647 57.9273 25.3171 57.0958 25.3208C50.8133 25.3467 44.5678 25.3393 38.3038 25.3393C37.1138 25.3393 37.1101 25.3393 37.1101 24.1641C37.1101 16.4625 37.1101 8.76094 37.0879 1.05937C37.0879 0.201993 37.3688 0.00982349 38.1744 0.00982349C50.7862 0.0319969 63.4004 0.0319969 76.0171 0.00982349C76.3101 -0.0276441 76.6067 0.0428353 76.8515 0.208096C77.0964 0.373357 77.2727 0.622096 77.3475 0.907847C83.9995 17.6389 90.6516 34.3639 97.3036 51.0826C105.064 70.5805 112.825 90.0808 120.586 109.584C122.995 115.637 125.423 121.687 127.807 127.755C128.091 128.494 128.387 128.634 129.134 128.405C135.745 126.361 142.371 124.373 148.979 122.326C149.81 122.067 150.113 122.241 150.372 123.065C152.626 130.149 154.925 137.219 157.209 144.296C157.286 144.54 157.346 144.788 157.438 145.128C156.965 145.301 156.521 145.497 156.067 145.623C141.038 150.385 126.018 155.15 111.007 159.917C110.29 160.143 110.075 159.899 109.835 159.296C105.25 147.677 100.654 136.064 96.0471 124.454C91.541 113.087 87.0324 101.719 82.5213 90.3518C81.845 88.6444 81.1798 86.9297 80.5035 85.2223C80.3963 84.9304 80.2485 84.6754 80.0342 84.2245V84.2245Z" fill="#FA7E14"/>
</svg>
