<svg width="160" height="160" viewBox="0 0 160 160" fill="none" xmlns="http://www.w3.org/2000/svg">
<rect width="160" height="160" fill="white"/>
<path d="M77.1574 43.9908C71.3077 44.0291 65.5118 45.1125 60.0431 47.1897C53.5273 49.8714 47.6355 53.8695 42.7364 58.9337C37.8374 63.9979 34.0367 70.019 31.5725 76.62C28.8944 84.0572 27.7545 91.9607 28.2219 99.8515C28.6893 107.742 30.7542 115.456 34.2916 122.525C39.6888 132.647 47.7661 141.09 57.6398 146.929C67.5134 152.769 78.8029 155.78 90.2731 155.634C102.083 155.58 113.689 152.554 124.022 146.837C132.772 141.743 140.355 134.868 146.279 126.657C152.203 118.446 156.336 109.083 158.411 99.1726C160.585 88.4972 160.528 77.4874 158.243 66.8351C155.959 56.1828 151.496 46.118 145.135 37.273C137.332 26.847 127.185 18.403 115.515 12.6236C103.845 6.84416 90.9794 3.8914 77.9572 4.00396C63.3308 3.86313 48.9134 7.48088 36.0863 14.5106C23.2593 21.5402 12.4524 31.7463 4.70132 44.1507C2.87715 46.9023 1.37449 49.8539 0.222799 52.9478C0.0628522 53.4277 -0.257042 54.8672 0.382747 55.507C0.65883 55.7717 0.984902 55.9788 1.34192 56.1161C1.69893 56.2534 2.07973 56.3182 2.46206 56.3067C3.74164 56.3067 5.02122 55.0271 6.94059 52.1481C16.2175 39.0324 26.774 29.5955 39.2499 23.0377C50.3647 17.4472 62.6366 14.5435 75.0781 14.5605C104.348 14.5605 129.46 30.5552 140.816 56.3067C144.135 64.2113 145.83 72.7021 145.803 81.2747C145.775 89.8474 144.025 98.3271 140.657 106.21C137.65 113.089 133.279 119.287 127.808 124.428C122.337 129.569 115.88 133.547 108.827 136.12C103.466 137.923 97.8481 138.841 92.1925 138.84C70.4397 138.84 52.5256 125.564 47.7271 105.73C46.6578 100.492 46.7181 95.0863 47.9041 89.8733C49.0901 84.6603 51.3746 79.7603 54.6049 75.5004C57.1539 72.2427 60.4048 69.6018 64.1156 67.7741C67.8263 65.9464 71.9015 64.979 76.0378 64.9439C79.3548 64.9967 82.6231 65.7508 85.6279 67.1567C88.6327 68.5626 91.306 70.5885 93.4721 73.1012C94.8856 74.7856 95.8945 76.7714 96.4213 78.9064C96.9481 81.0413 96.9788 83.2685 96.5111 85.4171C95.5514 88.776 92.1925 92.7747 89.1535 92.7747C88.264 92.7554 87.4117 92.4145 86.7543 91.815C86.2244 91.1286 85.9425 90.2829 85.9545 89.4158C85.9603 88.0784 85.5468 86.7729 84.7721 85.6827C83.9975 84.5925 82.9007 83.7724 81.636 83.3378L79.0768 83.0179C73.4787 83.0179 69.6399 88.2962 68.6802 93.4145C68.3479 95.8466 68.5476 98.3219 69.2656 100.669C69.9836 103.017 71.2028 105.18 72.8389 107.01C75.1581 109.468 77.9613 111.42 81.072 112.741C84.1827 114.062 87.5334 114.725 90.9129 114.687H92.8323C96.9748 114.244 100.97 112.897 104.535 110.742C108.1 108.586 111.149 105.674 113.465 102.212C116.268 97.8487 118.103 92.9361 118.848 87.8044C119.593 82.6728 119.23 77.4411 117.784 72.4614C112.186 55.1871 96.1912 43.9908 77.1574 43.9908" fill="#075FA8"/>
</svg>
