<svg width="160" height="160" viewBox="0 0 160 160" fill="none" xmlns="http://www.w3.org/2000/svg">
<rect width="160" height="160" fill="white"/>
<path d="M66.9454 108.12C66.9454 103.56 66.8749 98.9974 66.9807 94.4374C67.0215 92.6472 66.5222 92.0421 64.6207 91.98C51.64 91.5494 38.6611 91.0287 25.6841 90.4174C23.6469 90.3225 22.8413 90.9003 22.41 92.9156C20.4081 102.247 18.1349 111.521 16.1709 120.856C15.6284 123.479 14.6221 124.452 11.8769 124.149C8.83294 123.836 5.76865 123.768 2.71375 123.945C0.41076 124.062 -0.0259692 123.104 0.00115681 121.094C0.199176 107.084 0.492171 93.0731 0.356539 79.0651C0.33142 74.7549 1.77085 70.564 4.43902 67.1785C11.6138 57.2018 18.5445 47.0429 25.4942 36.9087C25.8691 36.2149 26.4594 35.6614 27.1762 35.332C27.893 35.0029 28.6973 34.9154 29.4681 35.0832C55.4058 37.8589 81.3564 40.548 107.32 43.1505C108.943 43.3451 110.492 43.9378 111.831 44.8756C127.276 54.9123 142.697 64.9869 158.216 74.9014C160.533 76.3825 160.603 77.2261 158.368 78.5607C157.885 78.8196 157.455 79.1643 157.096 79.5778C152.623 85.3556 147.39 85.0927 141.056 82.5429C133.399 79.4585 125.323 77.4105 117.457 74.7876C116.708 74.4825 115.895 74.3669 115.091 74.4509C114.287 74.5345 113.515 74.8149 112.845 75.2676C105.623 79.7541 98.3662 84.1847 91.0767 88.5592C90.4204 88.9112 89.8596 89.4181 89.4436 90.0363C89.0276 90.6541 88.7687 91.364 88.6894 92.1047C87.0891 101.735 85.2607 111.329 83.7905 120.977C83.3673 123.744 82.3829 124.621 79.6324 124.428C76.1396 124.221 72.6382 124.216 69.1454 124.412C67.0727 124.504 66.544 123.772 66.6007 121.802C66.7364 117.242 66.6444 112.677 66.6444 108.115L66.9454 108.12Z" fill="#00B06D"/>
</svg>
