<svg width="350" height="446" version="1.1" xmlns="http://www.w3.org/2000/svg" desc="Created with ImageTracer.java version 1.1.2" ><path desc="l 0 p 0" fill="rgb(253,253,254)" stroke="rgb(253,253,254)" stroke-width="1" opacity="1.0" d="M 0.5 0.0 L 350.0 0.5 L 349.5 446.0 L 0.0 445.5 L 0.5 0.0 Z" /><path desc="l 5 p 0" fill="rgb(171,151,216)" stroke="rgb(171,151,216)" stroke-width="1" opacity="1.0" d="M 53.5 42.0 L 133.5 43.0 L 276.0 43.5 L 277.0 117.5 L 277.0 265.5 L 275.5 268.0 L 52.0 267.5 L 52.5 265.0 L 53.5 267.0 L 275.0 266.5 Q 277.3 263.3 276.0 256.5 L 276.0 230.5 L 276.0 128.5 Q 273.8 127.3 275.0 122.5 L 275.0 106.5 L 274.5 44.0 L 53.0 44.5 L 52.5 144.0 L 52.0 43.5 L 53.5 42.0 Z" /><path desc="l 13 p 0" fill="rgb(145,100,239)" stroke="rgb(145,100,239)" stroke-width="1" opacity="1.0" d="M 53.5 44.0 L 275.0 44.5 L 276.0 264.5 L 275.0 264.5 L 275.0 183.5 L 275.0 163.5 Q 276.8 156.8 273.5 155.0 L 268.5 150.0 L 247.5 129.0 L 163.5 45.0 L 81.5 45.0 L 60.5 45.0 L 55.5 45.0 Q 52.5 45.5 53.5 44.0 Z" /><path desc="l 8 p 0" fill="rgb(134,91,227)" stroke="rgb(134,91,227)" stroke-width="1" opacity="1.0" d="M 53.5 45.0 L 85.5 45.0 L 93.5 45.0 Q 98.8 44.3 99.5 48.0 L 108.5 57.0 L 144.0 92.5 Q 137.7 91.7 136.0 95.5 L 135.0 100.5 L 135.0 111.5 Q 140.8 114.3 135.5 117.0 Q 127.4 115.4 124.5 119.0 L 71.0 65.5 L 57.5 52.0 L 54.5 49.0 Q 52.0 48.0 53.5 45.0 Z" /><path desc="l 6 p 0" fill="rgb(139,95,233)" stroke="rgb(139,95,233)" stroke-width="1" opacity="1.0" d="M 97.5 45.0 L 146.5 45.0 L 158.5 45.0 Q 163.8 43.8 165.0 46.5 L 170.0 51.5 L 191.0 72.5 L 275.0 156.5 L 274.5 223.0 L 220.0 168.5 L 206.0 154.5 L 202.5 151.0 L 200.5 151.0 L 199.0 150.5 L 210.0 134.5 Q 214.7 131.7 213.0 122.5 L 206.5 119.0 L 203.5 118.0 L 199.5 117.0 L 189.5 117.0 L 189.0 124.5 L 192.0 126.5 Q 189.2 130.7 180.5 129.0 L 179.5 127.0 Q 186.0 128.0 187.0 123.5 L 186.5 109.0 L 185.0 108.5 L 184.5 107.0 L 179.5 105.0 L 170.5 105.0 L 167.0 107.5 L 164.5 113.0 L 159.0 107.5 Q 156.0 106.5 157.0 101.5 Q 158.0 95.0 153.5 94.0 L 148.5 93.0 Q 143.0 94.0 142.0 90.5 L 133.0 81.5 L 97.5 45.0 Z" /><path desc="l 2 p 0" fill="rgb(130,88,223)" stroke="rgb(130,88,223)" stroke-width="1" opacity="1.0" d="M 53.5 48.0 L 123.5 119.0 L 119.0 119.5 L 118.5 121.0 L 117.0 121.5 L 116.5 123.0 L 115.0 123.5 L 115.0 129.5 L 116.5 133.0 L 119.5 137.0 L 121.0 137.5 L 123.0 141.5 L 129.5 153.0 L 131.0 153.5 L 134.0 159.5 L 143.5 175.0 L 145.0 175.5 L 146.0 178.5 L 149.0 182.5 Q 151.8 184.2 151.0 189.5 Q 150.0 196.0 154.5 197.0 Q 162.6 195.4 165.5 199.0 Q 166.3 196.3 170.5 197.0 Q 176.0 198.0 177.0 194.5 Q 179.8 192.8 179.0 187.5 L 180.0 182.5 L 181.5 179.0 L 183.5 178.0 L 269.5 265.0 L 222.5 265.0 L 210.5 265.0 Q 205.5 266.0 204.5 263.0 L 198.0 256.5 L 171.5 230.0 L 169.5 231.0 L 169.0 229.5 L 181.0 220.5 L 181.5 219.0 L 187.0 214.5 Q 188.0 208.0 183.5 207.0 L 175.0 206.5 L 174.5 199.0 L 168.5 199.0 L 165.0 200.5 L 165.0 209.5 L 166.0 214.5 L 168.0 217.5 L 164.5 220.0 L 160.0 216.5 Q 163.8 215.8 163.0 210.5 L 163.0 199.5 L 154.5 199.0 L 153.0 202.5 L 152.5 207.0 Q 148.0 208.0 147.0 205.5 L 142.5 201.0 L 124.5 183.0 L 53.0 111.5 L 53.5 48.0 Z" /><path desc="l 13 p 1" fill="rgb(145,100,239)" stroke="rgb(145,100,239)" stroke-width="1" opacity="1.0" d="M 162.5 79.0 L 179.0 79.5 L 179.5 81.0 L 181.0 81.5 L 181.0 93.5 Q 182.0 100.0 177.5 101.0 L 163.0 100.5 L 162.5 99.0 L 161.0 98.5 L 160.5 97.0 L 159.0 96.5 L 159.0 86.5 Q 158.0 80.0 162.5 79.0 Z" /><path desc="l 5 p 1" fill="rgb(171,151,216)" stroke="rgb(171,151,216)" stroke-width="1" opacity="1.0" d="M 163.5 80.0 L 173.5 80.0 Q 179.0 79.0 180.0 82.5 L 180.0 92.5 Q 181.0 98.0 177.5 99.0 L 173.5 100.0 L 164.5 100.0 L 161.0 96.5 L 160.0 92.5 L 160.0 83.5 L 163.5 80.0 Z" /><path desc="l 0 p 1" fill="rgb(253,253,254)" stroke="rgb(253,253,254)" stroke-width="1" opacity="1.0" d="M 164.5 81.0 L 173.5 81.0 Q 178.3 80.3 179.0 83.5 L 179.0 92.5 Q 179.8 97.3 176.5 98.0 Q 173.0 100.5 165.5 99.0 L 162.0 96.5 Q 159.5 93.0 161.0 85.5 L 162.5 82.0 L 164.5 81.0 Z" /><path desc="l 5 p 2" fill="rgb(171,151,216)" stroke="rgb(171,151,216)" stroke-width="1" opacity="1.0" d="M 168.5 86.0 Q 172.3 85.3 173.0 87.5 Q 174.0 92.0 171.5 93.0 Q 167.5 93.5 167.0 90.5 L 168.5 86.0 Z" /><path desc="l 13 p 2" fill="rgb(145,100,239)" stroke="rgb(145,100,239)" stroke-width="1" opacity="1.0" d="M 169.5 87.0 L 172.0 88.5 L 170.5 92.0 L 168.0 90.5 L 169.5 87.0 Z" /><path desc="l 6 p 1" fill="rgb(139,95,233)" stroke="rgb(139,95,233)" stroke-width="1" opacity="1.0" d="M 169.5 89.0 L 171.0 89.5 L 170.5 91.0 L 169.0 90.5 L 169.5 89.0 Z" /><path desc="l 6 p 2" fill="rgb(139,95,233)" stroke="rgb(139,95,233)" stroke-width="1" opacity="1.0" d="M 138.5 93.0 L 141.0 93.5 L 137.0 95.5 L 135.5 98.0 L 136.0 96.5 L 138.5 93.0 Z" /><path desc="l 13 p 3" fill="rgb(145,100,239)" stroke="rgb(145,100,239)" stroke-width="1" opacity="1.0" d="M 141.5 93.0 Q 153.8 90.8 157.0 97.5 L 157.0 107.5 Q 158.0 113.5 154.0 114.5 L 156.0 115.5 L 137.5 117.0 L 137.5 116.0 L 140.0 115.5 L 136.5 112.0 Q 134.3 111.3 135.0 107.5 L 135.0 98.5 L 137.5 95.0 L 141.5 93.0 Z" /><path desc="l 5 p 3" fill="rgb(171,151,216)" stroke="rgb(171,151,216)" stroke-width="1" opacity="1.0" d="M 139.5 95.0 L 149.5 95.0 Q 155.0 94.0 156.0 97.5 L 156.0 107.5 Q 157.0 113.0 153.5 114.0 L 143.5 114.0 Q 137.0 115.0 136.0 110.5 L 136.0 101.5 Q 135.3 95.8 139.5 95.0 Z" /><path desc="l 0 p 2" fill="rgb(253,253,254)" stroke="rgb(253,253,254)" stroke-width="1" opacity="1.0" d="M 139.5 96.0 L 148.5 96.0 Q 154.0 95.0 155.0 98.5 L 155.0 107.5 Q 155.8 112.3 152.5 113.0 L 143.5 113.0 L 138.0 111.5 L 138.0 101.5 Q 137.0 97.0 139.5 96.0 Z" /><path desc="l 5 p 4" fill="rgb(171,151,216)" stroke="rgb(171,151,216)" stroke-width="1" opacity="1.0" d="M 145.5 101.0 Q 149.5 100.5 150.0 103.5 L 147.5 108.0 L 144.0 107.5 Q 142.8 102.3 145.5 101.0 Z" /><path desc="l 13 p 4" fill="rgb(145,100,239)" stroke="rgb(145,100,239)" stroke-width="1" opacity="1.0" d="M 145.5 102.0 L 148.0 103.5 L 146.5 107.0 L 145.0 106.5 L 145.5 105.0 L 147.0 104.5 L 146.5 103.0 L 145.5 102.0 Z" /><path desc="l 8 p 1" fill="rgb(134,91,227)" stroke="rgb(134,91,227)" stroke-width="1" opacity="1.0" d="M 145.5 103.0 L 147.0 103.5 L 146.5 105.0 L 145.0 104.5 L 145.5 103.0 Z" /><path desc="l 13 p 5" fill="rgb(145,100,239)" stroke="rgb(145,100,239)" stroke-width="1" opacity="1.0" d="M 170.5 105.0 L 178.5 105.0 Q 183.6 104.4 185.0 107.5 L 185.5 109.0 L 187.0 109.5 L 187.0 119.5 Q 188.0 126.0 183.5 127.0 L 172.5 127.0 Q 166.0 128.0 165.0 123.5 L 165.0 113.5 Q 164.4 108.4 167.5 107.0 L 170.5 105.0 Z" /><path desc="l 8 p 2" fill="rgb(134,91,227)" stroke="rgb(134,91,227)" stroke-width="1" opacity="1.0" d="M 157.5 106.0 L 163.0 111.5 Q 165.8 112.3 165.0 116.5 L 165.5 125.0 L 167.0 125.5 L 167.5 127.0 L 175.5 127.0 Q 179.3 126.3 180.0 128.5 L 138.5 129.0 L 136.0 127.5 Q 138.3 123.8 145.5 125.0 L 163.0 124.5 L 162.5 115.0 L 155.0 114.5 L 155.5 113.0 L 157.0 112.5 L 157.5 106.0 Z" /><path desc="l 5 p 5" fill="rgb(171,151,216)" stroke="rgb(171,151,216)" stroke-width="1" opacity="1.0" d="M 169.5 107.0 L 178.5 107.0 Q 185.0 106.0 186.0 110.5 L 186.0 119.5 Q 187.0 125.0 183.5 126.0 L 173.5 126.0 Q 167.0 127.0 166.0 122.5 L 166.0 113.5 Q 165.3 107.8 169.5 107.0 Z" /><path desc="l 0 p 3" fill="rgb(253,253,254)" stroke="rgb(253,253,254)" stroke-width="1" opacity="1.0" d="M 169.5 108.0 L 178.5 108.0 Q 183.0 107.0 184.0 109.5 Q 186.5 113.0 185.0 120.5 L 182.5 125.0 L 173.5 125.0 L 168.0 123.5 L 167.0 111.5 L 169.5 108.0 Z" /><path desc="l 6 p 3" fill="rgb(139,95,233)" stroke="rgb(139,95,233)" stroke-width="1" opacity="1.0" d="M 135.5 111.0 L 139.5 116.0 L 136.5 117.0 L 137.0 115.5 L 137.0 113.5 L 135.5 111.0 Z" /><path desc="l 12 p 0" fill="rgb(122,82,215)" stroke="rgb(122,82,215)" stroke-width="1" opacity="1.0" d="M 53.5 112.0 L 147.5 207.0 L 143.0 207.5 L 142.5 209.0 L 141.0 209.5 L 141.5 215.0 L 143.0 215.5 L 144.5 219.0 L 147.0 219.5 L 147.5 221.0 L 149.0 221.5 L 149.5 223.0 L 151.0 223.5 L 151.5 225.0 L 157.0 227.5 L 157.5 229.0 L 159.0 229.5 L 159.5 231.0 Q 164.1 230.4 165.5 233.0 L 171.5 230.0 L 205.5 265.0 L 53.5 266.0 L 53.5 112.0 Z" /><path desc="l 5 p 6" fill="rgb(171,151,216)" stroke="rgb(171,151,216)" stroke-width="1" opacity="1.0" d="M 175.5 113.0 L 179.0 114.5 Q 180.0 119.0 177.5 120.0 L 174.0 119.5 L 173.0 115.5 L 175.5 113.0 Z" /><path desc="l 13 p 6" fill="rgb(145,100,239)" stroke="rgb(145,100,239)" stroke-width="1" opacity="1.0" d="M 175.5 114.0 L 178.0 115.5 L 176.5 119.0 L 175.0 118.5 L 174.0 115.5 L 175.5 114.0 Z" /><path desc="l 5 p 7" fill="rgb(171,151,216)" stroke="rgb(171,151,216)" stroke-width="1" opacity="1.0" d="M 156.5 115.0 L 162.0 116.5 Q 163.5 122.5 160.5 124.0 L 144.0 123.5 L 161.0 121.5 Q 162.0 117.0 159.5 116.0 L 145.0 117.5 L 134.5 118.0 L 134.5 117.0 L 149.5 116.0 Q 155.0 117.5 156.5 115.0 Z" /><path desc="l 13 p 7" fill="rgb(145,100,239)" stroke="rgb(145,100,239)" stroke-width="1" opacity="1.0" d="M 160.5 115.0 L 163.0 116.5 Q 164.8 123.3 161.5 125.0 L 143.0 124.5 L 155.5 124.0 Q 160.8 125.3 162.0 122.5 L 161.5 116.0 L 160.5 115.0 Z" /><path desc="l 6 p 4" fill="rgb(139,95,233)" stroke="rgb(139,95,233)" stroke-width="1" opacity="1.0" d="M 175.5 115.0 L 177.0 115.5 L 176.5 117.0 L 175.0 116.5 L 175.5 115.0 Z" /><path desc="l 0 p 4" fill="rgb(253,253,254)" stroke="rgb(253,253,254)" stroke-width="1" opacity="1.0" d="M 156.5 116.0 Q 160.3 115.3 161.0 117.5 L 160.5 122.0 L 138.5 124.0 L 133.0 124.5 L 126.0 126.5 L 126.5 128.0 L 136.5 130.0 L 145.5 131.0 L 155.5 132.0 L 174.5 132.0 L 179.5 131.0 L 189.5 130.0 L 195.0 129.5 L 202.0 127.5 L 201.5 126.0 L 193.5 124.0 L 190.0 122.5 L 192.5 118.0 L 202.5 120.0 Q 209.1 120.9 212.0 125.5 L 208.0 133.5 L 203.0 141.5 L 184.5 170.0 L 178.0 180.5 Q 175.2 182.2 176.0 187.5 Q 177.0 193.0 173.5 194.0 Q 168.8 197.8 158.5 196.0 L 152.0 191.5 Q 153.9 181.6 149.0 178.5 L 142.0 167.5 L 123.0 137.5 L 119.0 131.5 Q 116.4 130.1 117.0 125.5 Q 120.0 120.5 127.5 120.0 L 131.5 119.0 L 138.5 118.0 L 150.5 117.0 Q 155.3 118.3 156.5 116.0 Z" /><path desc="l 13 p 8" fill="rgb(145,100,239)" stroke="rgb(145,100,239)" stroke-width="1" opacity="1.0" d="M 128.5 117.0 L 134.0 117.5 L 126.5 119.0 L 126.5 118.0 L 128.5 117.0 Z" /><path desc="l 13 p 9" fill="rgb(145,100,239)" stroke="rgb(145,100,239)" stroke-width="1" opacity="1.0" d="M 189.5 117.0 L 192.0 117.5 L 190.0 118.5 L 189.5 122.0 L 189.5 117.0 Z" /><path desc="l 5 p 8" fill="rgb(171,151,216)" stroke="rgb(171,151,216)" stroke-width="1" opacity="1.0" d="M 192.5 117.0 L 198.5 118.0 Q 207.7 118.3 212.0 123.5 L 213.0 127.5 L 188.0 166.5 L 181.5 177.0 L 178.0 182.5 L 177.0 187.5 Q 177.8 193.3 174.5 195.0 L 170.5 196.0 L 170.5 195.0 L 176.0 191.5 Q 174.4 183.4 178.0 180.5 L 184.0 170.5 L 203.0 141.5 L 208.0 134.5 L 212.0 125.5 Q 209.1 120.9 202.5 120.0 L 192.5 118.0 L 190.0 122.5 L 198.0 125.5 L 193.5 126.0 L 190.0 124.5 L 189.0 122.5 L 190.5 118.0 L 192.5 117.0 Z" /><path desc="l 13 p 10" fill="rgb(145,100,239)" stroke="rgb(145,100,239)" stroke-width="1" opacity="1.0" d="M 196.5 117.0 Q 202.5 115.5 204.0 118.5 L 202.5 119.0 L 198.5 118.0 Q 195.5 118.5 196.5 117.0 Z" /><path desc="l 5 p 9" fill="rgb(171,151,216)" stroke="rgb(171,151,216)" stroke-width="1" opacity="1.0" d="M 128.5 118.0 L 133.0 118.5 L 125.0 120.5 Q 119.4 121.4 117.0 125.5 L 118.0 130.5 L 123.0 137.5 L 142.0 167.5 L 149.0 178.5 Q 153.7 181.3 152.0 190.5 L 151.0 190.5 Q 152.5 182.5 148.5 180.0 L 140.0 166.5 L 123.5 140.0 L 118.0 132.5 Q 115.0 130.5 116.0 124.5 L 121.5 121.0 L 128.5 118.0 Z" /><path desc="l 8 p 3" fill="rgb(134,91,227)" stroke="rgb(134,91,227)" stroke-width="1" opacity="1.0" d="M 119.5 119.0 L 121.0 119.5 L 119.0 120.5 L 119.5 119.0 Z" /><path desc="l 6 p 5" fill="rgb(139,95,233)" stroke="rgb(139,95,233)" stroke-width="1" opacity="1.0" d="M 121.5 119.0 L 120.5 121.0 L 121.5 119.0 Z" /><path desc="l 13 p 11" fill="rgb(145,100,239)" stroke="rgb(145,100,239)" stroke-width="1" opacity="1.0" d="M 122.5 119.0 L 125.0 119.5 L 121.5 121.0 L 122.5 119.0 Z" /><path desc="l 13 p 12" fill="rgb(145,100,239)" stroke="rgb(145,100,239)" stroke-width="1" opacity="1.0" d="M 205.5 119.0 L 209.5 120.0 L 213.0 122.5 L 212.5 125.0 L 209.5 121.0 L 206.5 120.0 L 205.5 119.0 Z" /><path desc="l 13 p 13" fill="rgb(145,100,239)" stroke="rgb(145,100,239)" stroke-width="1" opacity="1.0" d="M 118.5 121.0 L 120.0 121.5 L 116.0 124.5 Q 114.8 129.3 117.0 130.5 L 115.0 129.5 Q 113.8 122.3 118.5 121.0 Z" /><path desc="l 13 p 14" fill="rgb(145,100,239)" stroke="rgb(145,100,239)" stroke-width="1" opacity="1.0" d="M 189.5 123.0 L 190.5 125.0 L 199.0 126.5 L 198.5 128.0 L 189.5 129.0 L 190.5 127.0 L 192.0 126.5 L 189.0 124.5 L 189.5 123.0 Z" /><path desc="l 5 p 10" fill="rgb(171,151,216)" stroke="rgb(171,151,216)" stroke-width="1" opacity="1.0" d="M 133.5 124.0 L 143.0 124.5 L 129.0 126.5 L 129.5 128.0 L 141.0 129.5 L 132.5 130.0 L 126.0 127.5 L 126.5 126.0 L 133.5 124.0 Z" /><path desc="l 13 p 15" fill="rgb(145,100,239)" stroke="rgb(145,100,239)" stroke-width="1" opacity="1.0" d="M 135.5 125.0 L 139.0 125.5 L 134.0 127.5 L 137.0 128.5 L 134.5 129.0 L 129.0 127.5 L 129.5 126.0 Q 134.3 127.3 135.5 125.0 Z" /><path desc="l 6 p 6" fill="rgb(139,95,233)" stroke="rgb(139,95,233)" stroke-width="1" opacity="1.0" d="M 135.5 126.0 L 138.0 126.5 L 134.5 128.0 L 135.5 126.0 Z" /><path desc="l 5 p 11" fill="rgb(171,151,216)" stroke="rgb(171,151,216)" stroke-width="1" opacity="1.0" d="M 199.5 126.0 L 202.0 126.5 L 201.5 128.0 L 195.0 129.5 L 189.5 130.0 L 179.5 131.0 L 168.5 132.0 L 149.5 132.0 L 142.0 130.5 L 171.5 130.0 L 184.0 129.5 L 199.0 127.5 L 199.5 126.0 Z" /><path desc="l 13 p 16" fill="rgb(145,100,239)" stroke="rgb(145,100,239)" stroke-width="1" opacity="1.0" d="M 212.5 128.0 L 213.0 130.5 L 199.5 150.0 L 200.0 148.5 L 212.5 128.0 Z" /><path desc="l 13 p 17" fill="rgb(145,100,239)" stroke="rgb(145,100,239)" stroke-width="1" opacity="1.0" d="M 141.5 129.0 L 184.0 129.5 L 141.5 130.0 L 141.5 129.0 Z" /><path desc="l 6 p 7" fill="rgb(139,95,233)" stroke="rgb(139,95,233)" stroke-width="1" opacity="1.0" d="M 115.5 130.0 L 116.5 132.0 L 115.5 130.0 Z" /><path desc="l 8 p 4" fill="rgb(134,91,227)" stroke="rgb(134,91,227)" stroke-width="1" opacity="1.0" d="M 115.5 131.0 L 118.5 135.0 L 115.5 131.0 Z" /><path desc="l 13 p 18" fill="rgb(145,100,239)" stroke="rgb(145,100,239)" stroke-width="1" opacity="1.0" d="M 117.5 132.0 L 119.5 135.0 L 117.5 132.0 Z" /><path desc="l 6 p 8" fill="rgb(139,95,233)" stroke="rgb(139,95,233)" stroke-width="1" opacity="1.0" d="M 119.5 135.0 L 120.5 137.0 L 119.5 135.0 Z" /><path desc="l 5 p 12" fill="rgb(171,151,216)" stroke="rgb(171,151,216)" stroke-width="1" opacity="1.0" d="M 131.5 135.0 L 133.0 135.5 Q 129.0 137.5 133.0 139.5 L 153.0 171.5 L 157.0 177.5 Q 159.6 178.9 159.0 183.5 Q 158.3 188.3 161.5 189.0 Q 166.9 189.9 169.0 187.5 L 169.5 182.0 L 170.0 188.5 L 166.5 190.0 L 160.5 190.0 Q 157.3 189.3 158.0 184.5 L 157.0 179.5 L 152.0 172.5 L 130.0 136.5 L 131.5 135.0 Z" /><path desc="l 5 p 13" fill="rgb(171,151,216)" stroke="rgb(171,151,216)" stroke-width="1" opacity="1.0" d="M 196.5 135.0 L 198.0 135.5 Q 198.8 139.8 196.0 140.5 L 188.0 153.5 L 170.5 181.0 L 170.0 179.5 L 197.0 136.5 L 196.5 135.0 Z" /><path desc="l 13 p 19" fill="rgb(145,100,239)" stroke="rgb(145,100,239)" stroke-width="1" opacity="1.0" d="M 132.5 136.0 L 134.0 136.5 L 132.0 137.5 L 132.5 139.0 Q 129.5 137.5 132.5 136.0 Z" /><path desc="l 5 p 14" fill="rgb(171,151,216)" stroke="rgb(171,151,216)" stroke-width="1" opacity="1.0" d="M 134.5 136.0 L 174.0 138.5 L 154.5 139.0 L 149.5 138.0 L 140.0 137.5 L 136.5 137.0 Q 133.5 137.5 134.5 136.0 Z" /><path desc="l 5 p 15" fill="rgb(171,151,216)" stroke="rgb(171,151,216)" stroke-width="1" opacity="1.0" d="M 185.5 136.0 L 195.0 136.5 L 189.0 137.5 L 175.5 138.0 L 175.5 137.0 L 181.5 137.0 L 185.5 136.0 Z" /><path desc="l 13 p 20" fill="rgb(145,100,239)" stroke="rgb(145,100,239)" stroke-width="1" opacity="1.0" d="M 195.5 136.0 L 197.0 136.5 L 191.5 146.0 L 191.0 144.5 L 196.0 137.5 L 195.5 136.0 Z" /><path desc="l 13 p 21" fill="rgb(145,100,239)" stroke="rgb(145,100,239)" stroke-width="1" opacity="1.0" d="M 121.5 137.0 L 127.0 145.5 L 125.0 144.5 L 122.0 139.5 L 121.5 137.0 Z" /><path desc="l 2 p 1" fill="rgb(130,88,223)" stroke="rgb(130,88,223)" stroke-width="1" opacity="1.0" d="M 133.5 137.0 Q 135.2 139.8 140.5 139.0 Q 145.0 138.0 146.0 140.5 L 152.0 146.5 L 175.0 169.5 L 174.5 171.0 L 173.0 171.5 L 170.5 177.0 L 169.0 177.5 L 168.5 187.0 L 161.0 186.5 Q 162.3 179.3 158.5 177.0 L 157.0 176.5 L 155.0 172.5 L 148.5 161.0 L 147.0 160.5 L 144.5 155.0 L 143.0 154.5 L 138.5 145.0 L 137.0 144.5 L 134.5 139.0 L 133.0 138.5 L 133.5 137.0 Z" /><path desc="l 8 p 5" fill="rgb(134,91,227)" stroke="rgb(134,91,227)" stroke-width="1" opacity="1.0" d="M 135.5 137.0 L 138.0 138.5 L 136.5 139.0 L 135.5 137.0 Z" /><path desc="l 13 p 22" fill="rgb(145,100,239)" stroke="rgb(145,100,239)" stroke-width="1" opacity="1.0" d="M 137.5 137.0 L 140.0 137.5 L 137.5 138.0 L 137.5 137.0 Z" /><path desc="l 13 p 23" fill="rgb(145,100,239)" stroke="rgb(145,100,239)" stroke-width="1" opacity="1.0" d="M 189.5 137.0 L 192.0 137.5 Q 191.0 140.0 186.5 139.0 L 174.5 139.0 L 174.5 138.0 L 184.5 138.0 L 189.5 137.0 Z" /><path desc="l 6 p 9" fill="rgb(139,95,233)" stroke="rgb(139,95,233)" stroke-width="1" opacity="1.0" d="M 192.5 137.0 L 196.0 137.5 L 193.5 141.0 L 191.0 139.5 L 192.5 137.0 Z" /><path desc="l 6 p 10" fill="rgb(139,95,233)" stroke="rgb(139,95,233)" stroke-width="1" opacity="1.0" d="M 138.5 138.0 L 141.0 138.5 L 138.5 139.0 L 138.5 138.0 Z" /><path desc="l 13 p 24" fill="rgb(145,100,239)" stroke="rgb(145,100,239)" stroke-width="1" opacity="1.0" d="M 141.5 138.0 L 154.0 138.5 L 141.5 139.0 L 141.5 138.0 Z" /><path desc="l 8 p 6" fill="rgb(134,91,227)" stroke="rgb(134,91,227)" stroke-width="1" opacity="1.0" d="M 121.5 139.0 L 122.5 141.0 L 121.5 139.0 Z" /><path desc="l 6 p 11" fill="rgb(139,95,233)" stroke="rgb(139,95,233)" stroke-width="1" opacity="1.0" d="M 133.5 139.0 L 134.5 141.0 L 133.5 139.0 Z" /><path desc="l 8 p 7" fill="rgb(134,91,227)" stroke="rgb(134,91,227)" stroke-width="1" opacity="1.0" d="M 145.5 139.0 L 178.5 139.0 L 187.5 139.0 Q 192.3 138.3 193.0 141.5 L 192.5 143.0 L 191.0 143.5 L 188.5 149.0 L 187.0 149.5 L 182.5 159.0 L 181.0 159.5 L 176.5 169.0 L 173.0 167.5 L 167.0 161.5 L 145.5 139.0 Z" /><path desc="l 13 p 25" fill="rgb(145,100,239)" stroke="rgb(145,100,239)" stroke-width="1" opacity="1.0" d="M 133.5 140.0 L 142.0 152.5 L 140.0 151.5 L 133.5 140.0 Z" /><path desc="l 8 p 8" fill="rgb(134,91,227)" stroke="rgb(134,91,227)" stroke-width="1" opacity="1.0" d="M 123.5 142.0 L 124.5 144.0 L 123.5 142.0 Z" /><path desc="l 8 p 9" fill="rgb(134,91,227)" stroke="rgb(134,91,227)" stroke-width="1" opacity="1.0" d="M 135.5 142.0 L 136.5 144.0 L 135.5 142.0 Z" /><path desc="l 13 p 26" fill="rgb(145,100,239)" stroke="rgb(145,100,239)" stroke-width="1" opacity="1.0" d="M 52.5 144.0 L 53.0 147.5 L 52.0 147.5 L 52.5 144.0 Z" /><path desc="l 8 p 10" fill="rgb(134,91,227)" stroke="rgb(134,91,227)" stroke-width="1" opacity="1.0" d="M 125.5 145.0 L 126.5 147.0 L 125.5 145.0 Z" /><path desc="l 8 p 11" fill="rgb(134,91,227)" stroke="rgb(134,91,227)" stroke-width="1" opacity="1.0" d="M 137.5 145.0 L 139.0 145.5 L 138.5 147.0 L 137.5 145.0 Z" /><path desc="l 6 p 12" fill="rgb(139,95,233)" stroke="rgb(139,95,233)" stroke-width="1" opacity="1.0" d="M 190.5 145.0 L 191.0 146.5 L 189.0 147.5 L 190.5 145.0 Z" /><path desc="l 13 p 27" fill="rgb(145,100,239)" stroke="rgb(145,100,239)" stroke-width="1" opacity="1.0" d="M 127.5 147.0 L 128.5 149.0 L 127.5 147.0 Z" /><path desc="l 13 p 28" fill="rgb(145,100,239)" stroke="rgb(145,100,239)" stroke-width="1" opacity="1.0" d="M 190.5 147.0 L 189.5 149.0 L 190.5 147.0 Z" /><path desc="l 5 p 16" fill="rgb(171,151,216)" stroke="rgb(171,151,216)" stroke-width="1" opacity="1.0" d="M 52.5 148.0 L 53.0 156.5 L 52.0 156.5 L 52.5 148.0 Z" /><path desc="l 6 p 13" fill="rgb(139,95,233)" stroke="rgb(139,95,233)" stroke-width="1" opacity="1.0" d="M 127.5 148.0 L 128.5 150.0 L 127.5 148.0 Z" /><path desc="l 8 p 12" fill="rgb(134,91,227)" stroke="rgb(134,91,227)" stroke-width="1" opacity="1.0" d="M 139.5 148.0 L 140.5 150.0 L 139.5 148.0 Z" /><path desc="l 6 p 14" fill="rgb(139,95,233)" stroke="rgb(139,95,233)" stroke-width="1" opacity="1.0" d="M 187.5 149.0 L 189.0 149.5 L 187.0 150.5 L 187.5 149.0 Z" /><path desc="l 13 p 29" fill="rgb(145,100,239)" stroke="rgb(145,100,239)" stroke-width="1" opacity="1.0" d="M 188.5 150.0 L 188.0 151.5 L 181.5 162.0 L 181.0 160.5 L 188.5 150.0 Z" /><path desc="l 8 p 13" fill="rgb(134,91,227)" stroke="rgb(134,91,227)" stroke-width="1" opacity="1.0" d="M 201.5 150.0 L 256.5 205.0 L 270.0 218.5 Q 277.5 221.0 275.0 233.5 L 275.0 264.5 L 270.5 265.0 L 205.5 200.0 L 189.0 183.5 L 185.0 179.5 L 182.0 178.5 L 183.5 175.0 L 185.0 174.5 L 187.5 169.0 L 189.0 168.5 L 191.5 163.0 L 193.0 162.5 L 195.5 157.0 L 197.0 156.5 L 199.5 151.0 L 201.5 150.0 Z" /><path desc="l 6 p 15" fill="rgb(139,95,233)" stroke="rgb(139,95,233)" stroke-width="1" opacity="1.0" d="M 129.5 151.0 L 130.5 153.0 L 129.5 151.0 Z" /><path desc="l 8 p 14" fill="rgb(134,91,227)" stroke="rgb(134,91,227)" stroke-width="1" opacity="1.0" d="M 141.5 151.0 L 142.5 153.0 L 141.5 151.0 Z" /><path desc="l 13 p 30" fill="rgb(145,100,239)" stroke="rgb(145,100,239)" stroke-width="1" opacity="1.0" d="M 198.5 151.0 L 197.5 153.0 L 198.5 151.0 Z" /><path desc="l 6 p 16" fill="rgb(139,95,233)" stroke="rgb(139,95,233)" stroke-width="1" opacity="1.0" d="M 186.5 152.0 L 185.5 154.0 L 186.5 152.0 Z" /><path desc="l 6 p 17" fill="rgb(139,95,233)" stroke="rgb(139,95,233)" stroke-width="1" opacity="1.0" d="M 198.5 152.0 L 199.0 153.5 L 196.5 157.0 L 195.0 156.5 L 198.5 152.0 Z" /><path desc="l 6 p 18" fill="rgb(139,95,233)" stroke="rgb(139,95,233)" stroke-width="1" opacity="1.0" d="M 131.5 154.0 L 132.5 156.0 L 131.5 154.0 Z" /><path desc="l 13 p 31" fill="rgb(145,100,239)" stroke="rgb(145,100,239)" stroke-width="1" opacity="1.0" d="M 196.5 154.0 L 195.5 156.0 L 196.5 154.0 Z" /><path desc="l 8 p 15" fill="rgb(134,91,227)" stroke="rgb(134,91,227)" stroke-width="1" opacity="1.0" d="M 131.5 155.0 L 132.5 157.0 L 131.5 155.0 Z" /><path desc="l 6 p 19" fill="rgb(139,95,233)" stroke="rgb(139,95,233)" stroke-width="1" opacity="1.0" d="M 143.5 155.0 L 144.5 157.0 L 143.5 155.0 Z" /><path desc="l 6 p 20" fill="rgb(139,95,233)" stroke="rgb(139,95,233)" stroke-width="1" opacity="1.0" d="M 184.5 155.0 L 183.5 157.0 L 184.5 155.0 Z" /><path desc="l 13 p 32" fill="rgb(145,100,239)" stroke="rgb(145,100,239)" stroke-width="1" opacity="1.0" d="M 52.5 157.0 L 53.0 264.5 L 52.0 264.5 L 52.5 157.0 Z" /><path desc="l 8 p 16" fill="rgb(134,91,227)" stroke="rgb(134,91,227)" stroke-width="1" opacity="1.0" d="M 145.5 157.0 L 146.5 159.0 L 145.5 157.0 Z" /><path desc="l 13 p 33" fill="rgb(145,100,239)" stroke="rgb(145,100,239)" stroke-width="1" opacity="1.0" d="M 194.5 157.0 L 195.0 158.5 L 181.5 178.0 L 182.0 176.5 L 194.5 157.0 Z" /><path desc="l 8 p 17" fill="rgb(134,91,227)" stroke="rgb(134,91,227)" stroke-width="1" opacity="1.0" d="M 133.5 158.0 L 134.5 160.0 L 133.5 158.0 Z" /><path desc="l 13 p 34" fill="rgb(145,100,239)" stroke="rgb(145,100,239)" stroke-width="1" opacity="1.0" d="M 134.5 158.0 L 141.0 167.5 L 139.0 166.5 L 134.5 158.0 Z" /><path desc="l 6 p 21" fill="rgb(139,95,233)" stroke="rgb(139,95,233)" stroke-width="1" opacity="1.0" d="M 145.5 158.0 L 146.5 160.0 L 145.5 158.0 Z" /><path desc="l 13 p 35" fill="rgb(145,100,239)" stroke="rgb(145,100,239)" stroke-width="1" opacity="1.0" d="M 145.5 159.0 L 146.5 161.0 L 145.5 159.0 Z" /><path desc="l 6 p 22" fill="rgb(139,95,233)" stroke="rgb(139,95,233)" stroke-width="1" opacity="1.0" d="M 194.5 159.0 L 193.5 161.0 L 194.5 159.0 Z" /><path desc="l 8 p 18" fill="rgb(134,91,227)" stroke="rgb(134,91,227)" stroke-width="1" opacity="1.0" d="M 135.5 161.0 L 136.5 163.0 L 135.5 161.0 Z" /><path desc="l 8 p 19" fill="rgb(134,91,227)" stroke="rgb(134,91,227)" stroke-width="1" opacity="1.0" d="M 147.5 161.0 L 149.0 161.5 L 148.5 163.0 L 147.5 161.0 Z" /><path desc="l 13 p 36" fill="rgb(145,100,239)" stroke="rgb(145,100,239)" stroke-width="1" opacity="1.0" d="M 147.5 162.0 L 151.0 166.5 L 148.0 164.5 L 147.5 162.0 Z" /><path desc="l 6 p 23" fill="rgb(139,95,233)" stroke="rgb(139,95,233)" stroke-width="1" opacity="1.0" d="M 180.5 162.0 L 179.5 164.0 L 180.5 162.0 Z" /><path desc="l 13 p 37" fill="rgb(145,100,239)" stroke="rgb(145,100,239)" stroke-width="1" opacity="1.0" d="M 180.5 163.0 L 178.0 166.5 L 177.5 168.0 L 177.0 166.5 L 180.5 163.0 Z" /><path desc="l 8 p 20" fill="rgb(134,91,227)" stroke="rgb(134,91,227)" stroke-width="1" opacity="1.0" d="M 137.5 164.0 L 138.5 166.0 L 137.5 164.0 Z" /><path desc="l 8 p 21" fill="rgb(134,91,227)" stroke="rgb(134,91,227)" stroke-width="1" opacity="1.0" d="M 149.5 164.0 L 150.5 166.0 L 149.5 164.0 Z" /><path desc="l 6 p 24" fill="rgb(139,95,233)" stroke="rgb(139,95,233)" stroke-width="1" opacity="1.0" d="M 190.5 165.0 L 189.5 167.0 L 190.5 165.0 Z" /><path desc="l 8 p 22" fill="rgb(134,91,227)" stroke="rgb(134,91,227)" stroke-width="1" opacity="1.0" d="M 139.5 167.0 L 140.5 169.0 L 139.5 167.0 Z" /><path desc="l 8 p 23" fill="rgb(134,91,227)" stroke="rgb(134,91,227)" stroke-width="1" opacity="1.0" d="M 151.5 167.0 L 152.5 169.0 L 151.5 167.0 Z" /><path desc="l 13 p 38" fill="rgb(145,100,239)" stroke="rgb(145,100,239)" stroke-width="1" opacity="1.0" d="M 151.5 168.0 L 156.0 174.5 L 154.0 173.5 L 151.5 168.0 Z" /><path desc="l 13 p 39" fill="rgb(145,100,239)" stroke="rgb(145,100,239)" stroke-width="1" opacity="1.0" d="M 141.5 169.0 L 142.5 171.0 L 141.5 169.0 Z" /><path desc="l 13 p 40" fill="rgb(145,100,239)" stroke="rgb(145,100,239)" stroke-width="1" opacity="1.0" d="M 176.5 169.0 L 175.5 171.0 L 176.5 169.0 Z" /><path desc="l 6 p 25" fill="rgb(139,95,233)" stroke="rgb(139,95,233)" stroke-width="1" opacity="1.0" d="M 141.5 170.0 L 142.5 172.0 L 141.5 170.0 Z" /><path desc="l 8 p 24" fill="rgb(134,91,227)" stroke="rgb(134,91,227)" stroke-width="1" opacity="1.0" d="M 153.5 170.0 L 154.5 172.0 L 153.5 170.0 Z" /><path desc="l 6 p 26" fill="rgb(139,95,233)" stroke="rgb(139,95,233)" stroke-width="1" opacity="1.0" d="M 174.5 171.0 L 173.5 173.0 L 174.5 171.0 Z" /><path desc="l 6 p 27" fill="rgb(139,95,233)" stroke="rgb(139,95,233)" stroke-width="1" opacity="1.0" d="M 186.5 171.0 L 185.5 173.0 L 186.5 171.0 Z" /><path desc="l 13 p 41" fill="rgb(145,100,239)" stroke="rgb(145,100,239)" stroke-width="1" opacity="1.0" d="M 174.5 172.0 L 173.5 174.0 L 174.5 172.0 Z" /><path desc="l 6 p 28" fill="rgb(139,95,233)" stroke="rgb(139,95,233)" stroke-width="1" opacity="1.0" d="M 143.5 173.0 L 144.5 175.0 L 143.5 173.0 Z" /><path desc="l 8 p 25" fill="rgb(134,91,227)" stroke="rgb(134,91,227)" stroke-width="1" opacity="1.0" d="M 155.5 173.0 L 156.5 175.0 L 155.5 173.0 Z" /><path desc="l 8 p 26" fill="rgb(134,91,227)" stroke="rgb(134,91,227)" stroke-width="1" opacity="1.0" d="M 172.5 173.0 L 173.0 174.5 L 171.0 175.5 L 172.5 173.0 Z" /><path desc="l 13 p 42" fill="rgb(145,100,239)" stroke="rgb(145,100,239)" stroke-width="1" opacity="1.0" d="M 172.5 175.0 L 172.0 176.5 L 169.5 182.0 L 169.0 179.5 L 172.5 175.0 Z" /><path desc="l 6 p 29" fill="rgb(139,95,233)" stroke="rgb(139,95,233)" stroke-width="1" opacity="1.0" d="M 145.5 176.0 L 146.5 178.0 L 145.5 176.0 Z" /><path desc="l 8 p 27" fill="rgb(134,91,227)" stroke="rgb(134,91,227)" stroke-width="1" opacity="1.0" d="M 145.5 177.0 L 146.5 179.0 L 145.5 177.0 Z" /><path desc="l 6 p 30" fill="rgb(139,95,233)" stroke="rgb(139,95,233)" stroke-width="1" opacity="1.0" d="M 157.5 177.0 L 158.5 179.0 L 157.5 177.0 Z" /><path desc="l 8 p 28" fill="rgb(134,91,227)" stroke="rgb(134,91,227)" stroke-width="1" opacity="1.0" d="M 169.5 177.0 L 171.0 177.5 L 169.0 178.5 L 169.5 177.0 Z" /><path desc="l 6 p 31" fill="rgb(139,95,233)" stroke="rgb(139,95,233)" stroke-width="1" opacity="1.0" d="M 182.5 177.0 L 181.5 179.0 L 182.5 177.0 Z" /><path desc="l 8 p 29" fill="rgb(134,91,227)" stroke="rgb(134,91,227)" stroke-width="1" opacity="1.0" d="M 159.5 179.0 Q 162.5 180.5 161.0 186.5 L 160.0 186.5 Q 160.5 180.5 159.5 179.0 Z" /><path desc="l 13 p 43" fill="rgb(145,100,239)" stroke="rgb(145,100,239)" stroke-width="1" opacity="1.0" d="M 180.5 179.0 L 179.5 181.0 L 180.5 179.0 Z" /><path desc="l 8 p 30" fill="rgb(134,91,227)" stroke="rgb(134,91,227)" stroke-width="1" opacity="1.0" d="M 147.5 180.0 L 148.5 182.0 L 147.5 180.0 Z" /><path desc="l 13 p 44" fill="rgb(145,100,239)" stroke="rgb(145,100,239)" stroke-width="1" opacity="1.0" d="M 148.5 180.0 L 151.0 183.5 L 149.0 182.5 L 148.5 180.0 Z" /><path desc="l 13 p 45" fill="rgb(145,100,239)" stroke="rgb(145,100,239)" stroke-width="1" opacity="1.0" d="M 159.5 181.0 Q 158.6 186.4 161.5 188.0 L 167.0 188.5 L 161.5 189.0 Q 157.3 187.3 159.5 181.0 Z" /><path desc="l 8 p 31" fill="rgb(134,91,227)" stroke="rgb(134,91,227)" stroke-width="1" opacity="1.0" d="M 179.5 181.0 L 181.0 181.5 L 179.0 182.5 L 179.5 181.0 Z" /><path desc="l 13 p 46" fill="rgb(145,100,239)" stroke="rgb(145,100,239)" stroke-width="1" opacity="1.0" d="M 178.5 182.0 L 179.0 183.5 L 178.0 187.5 Q 178.8 193.3 175.5 195.0 L 176.0 193.5 L 177.0 188.5 Q 176.3 183.8 178.5 182.0 Z" /><path desc="l 8 p 32" fill="rgb(134,91,227)" stroke="rgb(134,91,227)" stroke-width="1" opacity="1.0" d="M 149.5 183.0 L 150.5 185.0 L 149.5 183.0 Z" /><path desc="l 6 p 32" fill="rgb(139,95,233)" stroke="rgb(139,95,233)" stroke-width="1" opacity="1.0" d="M 178.5 184.0 L 179.0 189.5 L 178.0 189.5 L 178.5 184.0 Z" /><path desc="l 8 p 33" fill="rgb(134,91,227)" stroke="rgb(134,91,227)" stroke-width="1" opacity="1.0" d="M 162.5 187.0 L 165.0 187.5 L 162.5 188.0 L 162.5 187.0 Z" /><path desc="l 6 p 33" fill="rgb(139,95,233)" stroke="rgb(139,95,233)" stroke-width="1" opacity="1.0" d="M 165.5 187.0 L 168.0 187.5 L 165.5 188.0 L 165.5 187.0 Z" /><path desc="l 8 p 34" fill="rgb(134,91,227)" stroke="rgb(134,91,227)" stroke-width="1" opacity="1.0" d="M 178.5 190.0 L 179.0 191.5 L 177.0 192.5 L 178.5 190.0 Z" /><path desc="l 5 p 17" fill="rgb(171,151,216)" stroke="rgb(171,151,216)" stroke-width="1" opacity="1.0" d="M 152.5 192.0 L 158.0 195.5 L 154.5 196.0 Q 150.9 194.9 152.5 192.0 Z" /><path desc="l 6 p 34" fill="rgb(139,95,233)" stroke="rgb(139,95,233)" stroke-width="1" opacity="1.0" d="M 151.5 193.0 L 154.5 197.0 L 151.5 193.0 Z" /><path desc="l 8 p 35" fill="rgb(134,91,227)" stroke="rgb(134,91,227)" stroke-width="1" opacity="1.0" d="M 176.5 194.0 L 174.5 197.0 L 176.5 194.0 Z" /><path desc="l 13 p 47" fill="rgb(145,100,239)" stroke="rgb(145,100,239)" stroke-width="1" opacity="1.0" d="M 173.5 195.0 L 172.5 197.0 L 169.0 196.5 L 173.5 195.0 Z" /><path desc="l 6 p 35" fill="rgb(139,95,233)" stroke="rgb(139,95,233)" stroke-width="1" opacity="1.0" d="M 174.5 195.0 L 173.5 197.0 L 174.5 195.0 Z" /><path desc="l 13 p 48" fill="rgb(145,100,239)" stroke="rgb(145,100,239)" stroke-width="1" opacity="1.0" d="M 155.5 196.0 L 159.0 196.5 L 155.5 197.0 L 155.5 196.0 Z" /><path desc="l 5 p 18" fill="rgb(171,151,216)" stroke="rgb(171,151,216)" stroke-width="1" opacity="1.0" d="M 159.5 196.0 L 169.0 196.5 L 159.5 197.0 L 159.5 196.0 Z" /><path desc="l 8 p 36" fill="rgb(134,91,227)" stroke="rgb(134,91,227)" stroke-width="1" opacity="1.0" d="M 163.5 197.0 L 165.5 198.0 L 167.0 197.5 L 164.5 199.0 L 163.5 197.0 Z" /><path desc="l 6 p 36" fill="rgb(139,95,233)" stroke="rgb(139,95,233)" stroke-width="1" opacity="1.0" d="M 154.5 199.0 L 153.5 201.0 L 154.5 199.0 Z" /><path desc="l 13 p 49" fill="rgb(145,100,239)" stroke="rgb(145,100,239)" stroke-width="1" opacity="1.0" d="M 159.5 199.0 L 163.0 200.5 L 162.5 213.0 L 161.5 200.0 Q 158.5 200.5 159.5 199.0 Z" /><path desc="l 6 p 37" fill="rgb(139,95,233)" stroke="rgb(139,95,233)" stroke-width="1" opacity="1.0" d="M 166.5 199.0 L 165.5 201.0 L 166.5 199.0 Z" /><path desc="l 13 p 50" fill="rgb(145,100,239)" stroke="rgb(145,100,239)" stroke-width="1" opacity="1.0" d="M 171.5 199.0 L 175.0 200.5 L 175.5 207.0 L 181.0 207.5 L 175.5 208.0 L 174.0 204.5 L 173.5 200.0 Q 170.5 200.5 171.5 199.0 Z" /><path desc="l 5 p 19" fill="rgb(171,151,216)" stroke="rgb(171,151,216)" stroke-width="1" opacity="1.0" d="M 154.5 200.0 L 156.0 200.5 Q 157.1 206.6 154.5 209.0 L 149.5 210.0 Q 145.0 209.0 144.0 211.5 L 145.5 216.0 L 155.5 224.0 L 161.5 228.0 L 165.5 230.0 L 174.0 223.5 L 174.5 222.0 L 184.0 214.5 Q 184.8 210.8 182.5 210.0 Q 174.8 211.8 173.0 207.5 Q 174.5 202.0 172.0 200.5 L 173.5 200.0 L 174.0 204.5 L 175.5 208.0 Q 182.8 206.8 185.0 210.5 L 186.0 213.5 L 183.5 217.0 L 173.0 225.5 Q 170.1 230.1 163.5 231.0 L 143.0 214.5 Q 142.0 210.0 144.5 209.0 L 154.0 207.5 L 154.5 200.0 Z" /><path desc="l 0 p 5" fill="rgb(253,253,254)" stroke="rgb(253,253,254)" stroke-width="1" opacity="1.0" d="M 156.5 200.0 Q 160.3 199.3 161.0 201.5 L 161.0 209.5 L 160.0 213.5 L 157.0 216.5 L 162.0 220.5 L 162.5 222.0 Q 167.0 223.0 168.0 220.5 L 172.0 217.5 L 169.5 214.0 L 168.0 213.5 L 168.5 200.0 Q 172.3 199.3 173.0 201.5 Q 171.5 208.5 175.5 210.0 Q 182.3 208.3 184.0 211.5 Q 184.8 217.3 180.5 218.0 L 174.0 222.5 L 173.5 224.0 L 169.5 227.0 L 163.5 230.0 L 145.0 215.5 L 144.0 211.5 Q 144.8 209.3 148.5 210.0 Q 153.3 210.8 155.0 208.5 L 156.5 200.0 Z" /><path desc="l 5 p 20" fill="rgb(171,151,216)" stroke="rgb(171,151,216)" stroke-width="1" opacity="1.0" d="M 160.5 200.0 L 162.0 200.5 L 162.0 210.5 L 161.0 214.5 L 159.0 217.5 L 165.5 221.0 L 170.0 217.5 L 167.5 214.0 Q 165.3 213.3 166.0 209.5 L 166.0 200.5 L 167.5 200.0 L 168.5 214.0 L 172.0 216.5 L 171.5 218.0 L 168.0 220.5 Q 167.0 223.0 162.5 222.0 L 161.5 220.0 L 157.0 216.5 L 160.0 213.5 L 161.0 210.5 L 161.0 201.5 L 160.5 200.0 Z" /><path desc="l 13 p 51" fill="rgb(145,100,239)" stroke="rgb(145,100,239)" stroke-width="1" opacity="1.0" d="M 153.5 201.0 L 154.0 205.5 L 153.0 205.5 L 153.5 201.0 Z" /><path desc="l 13 p 52" fill="rgb(145,100,239)" stroke="rgb(145,100,239)" stroke-width="1" opacity="1.0" d="M 165.5 201.0 L 166.0 210.5 L 165.0 210.5 L 165.5 201.0 Z" /><path desc="l 6 p 38" fill="rgb(139,95,233)" stroke="rgb(139,95,233)" stroke-width="1" opacity="1.0" d="M 153.5 206.0 L 152.5 208.0 L 146.0 207.5 L 153.5 206.0 Z" /><path desc="l 2 p 2" fill="rgb(130,88,223)" stroke="rgb(130,88,223)" stroke-width="1" opacity="1.0" d="M 143.5 207.0 L 145.0 207.5 Q 141.3 208.3 142.0 213.5 L 142.5 215.0 L 141.0 214.5 L 141.5 209.0 L 143.0 208.5 L 143.5 207.0 Z" /><path desc="l 8 p 37" fill="rgb(134,91,227)" stroke="rgb(134,91,227)" stroke-width="1" opacity="1.0" d="M 145.5 207.0 L 144.5 209.0 L 145.5 207.0 Z" /><path desc="l 8 p 38" fill="rgb(134,91,227)" stroke="rgb(134,91,227)" stroke-width="1" opacity="1.0" d="M 182.5 207.0 L 187.0 210.5 L 186.5 212.0 L 183.5 208.0 L 182.5 207.0 Z" /><path desc="l 6 p 39" fill="rgb(139,95,233)" stroke="rgb(139,95,233)" stroke-width="1" opacity="1.0" d="M 143.5 209.0 L 142.5 211.0 L 143.5 209.0 Z" /><path desc="l 6 p 40" fill="rgb(139,95,233)" stroke="rgb(139,95,233)" stroke-width="1" opacity="1.0" d="M 162.5 213.0 L 160.5 216.0 L 162.5 213.0 Z" /><path desc="l 8 p 39" fill="rgb(134,91,227)" stroke="rgb(134,91,227)" stroke-width="1" opacity="1.0" d="M 165.5 213.0 L 168.5 217.0 L 165.5 213.0 Z" /><path desc="l 13 p 53" fill="rgb(145,100,239)" stroke="rgb(145,100,239)" stroke-width="1" opacity="1.0" d="M 166.5 213.0 L 170.0 217.5 L 169.0 217.5 L 166.5 213.0 Z" /><path desc="l 13 p 54" fill="rgb(145,100,239)" stroke="rgb(145,100,239)" stroke-width="1" opacity="1.0" d="M 143.5 215.0 L 145.5 218.0 L 143.5 215.0 Z" /><path desc="l 6 p 41" fill="rgb(139,95,233)" stroke="rgb(139,95,233)" stroke-width="1" opacity="1.0" d="M 185.5 215.0 L 184.5 217.0 L 185.5 215.0 Z" /><path desc="l 2 p 3" fill="rgb(130,88,223)" stroke="rgb(130,88,223)" stroke-width="1" opacity="1.0" d="M 143.5 217.0 L 146.0 218.5 L 144.5 219.0 L 143.5 217.0 Z" /><path desc="l 6 p 42" fill="rgb(139,95,233)" stroke="rgb(139,95,233)" stroke-width="1" opacity="1.0" d="M 160.5 217.0 L 161.5 219.0 L 160.5 217.0 Z" /><path desc="l 6 p 43" fill="rgb(139,95,233)" stroke="rgb(139,95,233)" stroke-width="1" opacity="1.0" d="M 168.5 217.0 L 167.5 219.0 L 168.5 217.0 Z" /><path desc="l 13 p 55" fill="rgb(145,100,239)" stroke="rgb(145,100,239)" stroke-width="1" opacity="1.0" d="M 182.5 217.0 L 179.5 221.0 L 182.5 217.0 Z" /><path desc="l 8 p 40" fill="rgb(134,91,227)" stroke="rgb(134,91,227)" stroke-width="1" opacity="1.0" d="M 147.5 219.0 L 150.5 223.0 L 147.5 219.0 Z" /><path desc="l 13 p 56" fill="rgb(145,100,239)" stroke="rgb(145,100,239)" stroke-width="1" opacity="1.0" d="M 162.5 219.0 L 163.5 221.0 L 162.5 219.0 Z" /><path desc="l 13 p 57" fill="rgb(145,100,239)" stroke="rgb(145,100,239)" stroke-width="1" opacity="1.0" d="M 166.5 219.0 L 165.5 221.0 L 166.5 219.0 Z" /><path desc="l 13 p 58" fill="rgb(145,100,239)" stroke="rgb(145,100,239)" stroke-width="1" opacity="1.0" d="M 149.5 220.0 L 151.5 223.0 L 149.5 220.0 Z" /><path desc="l 6 p 44" fill="rgb(139,95,233)" stroke="rgb(139,95,233)" stroke-width="1" opacity="1.0" d="M 178.5 221.0 L 177.5 223.0 L 178.5 221.0 Z" /><path desc="l 2 p 4" fill="rgb(130,88,223)" stroke="rgb(130,88,223)" stroke-width="1" opacity="1.0" d="M 151.5 223.0 L 155.0 225.5 L 154.5 227.0 L 151.0 224.5 L 151.5 223.0 Z" /><path desc="l 6 p 45" fill="rgb(139,95,233)" stroke="rgb(139,95,233)" stroke-width="1" opacity="1.0" d="M 152.5 223.0 L 153.5 225.0 L 152.5 223.0 Z" /><path desc="l 13 p 59" fill="rgb(145,100,239)" stroke="rgb(145,100,239)" stroke-width="1" opacity="1.0" d="M 175.5 223.0 L 172.5 227.0 L 175.5 223.0 Z" /><path desc="l 8 p 41" fill="rgb(134,91,227)" stroke="rgb(134,91,227)" stroke-width="1" opacity="1.0" d="M 176.5 223.0 L 173.5 227.0 L 176.5 223.0 Z" /><path desc="l 13 p 60" fill="rgb(145,100,239)" stroke="rgb(145,100,239)" stroke-width="1" opacity="1.0" d="M 154.5 224.0 L 156.5 227.0 L 154.5 224.0 Z" /><path desc="l 6 p 46" fill="rgb(139,95,233)" stroke="rgb(139,95,233)" stroke-width="1" opacity="1.0" d="M 157.5 227.0 L 158.5 229.0 L 157.5 227.0 Z" /><path desc="l 6 p 47" fill="rgb(139,95,233)" stroke="rgb(139,95,233)" stroke-width="1" opacity="1.0" d="M 171.5 227.0 L 170.5 229.0 L 171.5 227.0 Z" /><path desc="l 13 p 61" fill="rgb(145,100,239)" stroke="rgb(145,100,239)" stroke-width="1" opacity="1.0" d="M 159.5 228.0 L 160.5 230.0 L 159.5 228.0 Z" /><path desc="l 13 p 62" fill="rgb(145,100,239)" stroke="rgb(145,100,239)" stroke-width="1" opacity="1.0" d="M 169.5 228.0 L 167.5 231.0 L 166.0 230.5 L 169.5 228.0 Z" /><path desc="l 8 p 42" fill="rgb(134,91,227)" stroke="rgb(134,91,227)" stroke-width="1" opacity="1.0" d="M 159.5 229.0 L 160.5 231.0 L 159.5 229.0 Z" /><path desc="l 2 p 5" fill="rgb(130,88,223)" stroke="rgb(130,88,223)" stroke-width="1" opacity="1.0" d="M 163.5 231.0 L 167.0 231.5 L 164.5 233.0 L 163.5 231.0 Z" /><path desc="l 2 p 6" fill="rgb(130,88,223)" stroke="rgb(130,88,223)" stroke-width="1" opacity="1.0" d="M 118.5 265.0 L 189.0 265.5 L 118.5 266.0 L 118.5 265.0 Z" /><path desc="l 8 p 43" fill="rgb(134,91,227)" stroke="rgb(134,91,227)" stroke-width="1" opacity="1.0" d="M 189.5 265.0 L 244.0 265.5 L 189.5 266.0 L 189.5 265.0 Z" /><path desc="l 6 p 48" fill="rgb(139,95,233)" stroke="rgb(139,95,233)" stroke-width="1" opacity="1.0" d="M 244.5 265.0 L 275.0 265.5 L 244.5 266.0 L 244.5 265.0 Z" /><path desc="l 6 p 49" fill="rgb(139,95,233)" stroke="rgb(139,95,233)" stroke-width="1" opacity="1.0" d="M 53.5 266.0 L 109.0 266.5 L 53.5 267.0 L 53.5 266.0 Z" /><path desc="l 13 p 63" fill="rgb(145,100,239)" stroke="rgb(145,100,239)" stroke-width="1" opacity="1.0" d="M 109.5 266.0 L 275.0 266.5 L 109.5 267.0 L 109.5 266.0 Z" /><path desc="l 5 p 21" fill="rgb(171,151,216)" stroke="rgb(171,151,216)" stroke-width="1" opacity="1.0" d="M 117.5 284.0 Q 123.3 283.3 124.0 287.5 L 139.0 329.5 Q 137.8 332.3 132.5 331.0 L 130.0 329.5 L 126.5 319.0 L 110.0 319.5 Q 109.1 327.1 104.5 331.0 Q 99.8 331.8 98.0 329.5 L 114.5 285.0 L 117.5 284.0 Z" /><path desc="l 5 p 22" fill="rgb(171,151,216)" stroke="rgb(171,151,216)" stroke-width="1" opacity="1.0" d="M 139.5 284.0 Q 145.3 283.3 146.0 287.5 L 153.5 317.0 L 159.0 296.5 L 160.0 292.5 L 162.5 286.0 L 170.0 286.5 L 177.5 316.0 L 179.0 315.5 L 184.0 295.5 L 186.0 288.5 L 187.5 285.0 L 192.5 284.0 L 195.0 287.5 L 188.0 310.5 L 184.0 324.5 Q 183.8 329.3 180.5 331.0 Q 174.5 332.5 173.0 329.5 L 169.0 312.5 L 168.0 308.5 L 165.5 302.0 L 160.5 321.0 L 159.0 326.5 Q 159.5 330.5 156.5 331.0 Q 150.5 332.5 149.0 329.5 L 141.0 302.5 L 138.5 294.0 L 137.0 285.5 L 139.5 284.0 Z" /><path desc="l 5 p 23" fill="rgb(171,151,216)" stroke="rgb(171,151,216)" stroke-width="1" opacity="1.0" d="M 207.5 284.0 Q 219.4 282.1 225.0 286.5 L 226.0 290.5 L 222.5 293.0 L 217.0 291.5 L 210.5 291.0 L 206.0 293.5 Q 204.5 299.5 207.5 301.0 L 218.0 305.5 Q 223.6 306.4 226.0 310.5 Q 229.2 313.8 228.0 321.5 L 222.5 329.0 Q 217.0 333.5 205.5 332.0 L 198.0 329.5 L 197.0 324.5 Q 197.8 322.3 201.5 323.0 L 205.5 324.0 L 215.5 324.0 L 219.0 321.5 L 220.0 318.5 L 218.5 315.0 L 209.0 310.5 L 199.0 304.5 Q 195.8 301.2 197.0 293.5 L 202.5 286.0 L 207.5 284.0 Z" /><path desc="l 15 p 0" fill="rgb(70,70,70)" stroke="rgb(70,70,70)" stroke-width="1" opacity="1.0" d="M 211.5 285.0 L 218.5 286.0 Q 223.3 285.3 224.0 288.5 L 223.5 291.0 Q 218.0 288.5 208.5 290.0 L 205.0 292.5 L 204.0 299.5 Q 207.9 304.5 215.5 306.0 Q 222.9 307.1 226.0 312.5 Q 228.3 324.8 221.5 328.0 Q 219.8 330.8 214.5 330.0 L 202.5 330.0 L 198.0 326.5 L 199.5 324.0 Q 204.5 328.0 215.5 326.0 L 220.0 322.5 L 221.0 316.5 L 218.5 313.0 L 209.5 309.0 Q 202.9 308.1 200.0 303.5 Q 197.2 300.8 198.0 294.5 L 202.5 288.0 L 207.5 286.0 L 211.5 285.0 Z" /><path desc="l 15 p 1" fill="rgb(70,70,70)" stroke="rgb(70,70,70)" stroke-width="1" opacity="1.0" d="M 116.5 286.0 Q 121.0 285.0 122.0 287.5 L 133.0 316.5 L 136.0 324.5 L 138.0 328.5 Q 137.3 330.8 133.5 330.0 L 130.0 325.5 Q 130.5 320.0 127.5 318.0 L 114.5 318.0 Q 109.3 316.8 108.0 319.5 L 105.5 329.0 L 101.5 330.0 L 100.0 326.5 L 111.0 298.5 L 114.0 290.5 Q 113.5 286.5 116.5 286.0 Z" /><path desc="l 15 p 2" fill="rgb(70,70,70)" stroke="rgb(70,70,70)" stroke-width="1" opacity="1.0" d="M 139.5 286.0 Q 143.3 285.3 144.0 287.5 L 150.0 309.5 L 152.5 321.0 L 155.0 319.5 L 159.0 303.5 L 161.5 293.0 L 163.5 288.0 Q 168.8 286.8 170.0 289.5 L 176.5 320.0 L 180.0 318.5 L 181.0 313.5 L 183.0 305.5 L 186.0 293.5 L 188.5 286.0 Q 193.0 285.0 194.0 287.5 L 191.0 295.5 L 187.0 308.5 L 181.5 329.0 L 175.5 330.0 L 174.0 326.5 L 173.0 322.5 L 169.0 307.5 L 168.0 302.5 L 165.5 297.0 L 164.0 300.5 L 163.0 304.5 L 159.0 320.5 L 158.0 324.5 Q 158.8 329.3 155.5 330.0 Q 151.0 331.0 150.0 328.5 L 138.0 287.5 L 139.5 286.0 Z" /><path desc="l 8 p 44" fill="rgb(134,91,227)" stroke="rgb(134,91,227)" stroke-width="1" opacity="1.0" d="M 163.5 287.0 L 167.0 287.5 L 163.5 288.0 L 163.5 287.0 Z" /><path desc="l 5 p 24" fill="rgb(171,151,216)" stroke="rgb(171,151,216)" stroke-width="1" opacity="1.0" d="M 118.5 293.0 L 120.0 293.5 L 122.0 300.5 L 126.0 312.5 Q 125.3 314.8 121.5 314.0 L 112.5 314.0 Q 109.8 312.8 112.0 311.5 Q 111.3 305.8 114.0 303.5 L 118.5 293.0 Z" /><path desc="l 0 p 6" fill="rgb(253,253,254)" stroke="rgb(253,253,254)" stroke-width="1" opacity="1.0" d="M 118.5 296.0 L 124.0 311.5 L 113.5 312.0 L 113.0 309.5 L 118.5 296.0 Z" /><path desc="l 12 p 1" fill="rgb(122,82,215)" stroke="rgb(122,82,215)" stroke-width="1" opacity="1.0" d="M 165.5 297.0 L 166.5 299.0 L 164.0 298.5 L 165.5 297.0 Z" /><path desc="l 12 p 2" fill="rgb(122,82,215)" stroke="rgb(122,82,215)" stroke-width="1" opacity="1.0" d="M 204.5 299.0 L 205.5 301.0 L 204.5 299.0 Z" /><path desc="l 8 p 45" fill="rgb(134,91,227)" stroke="rgb(134,91,227)" stroke-width="1" opacity="1.0" d="M 226.5 315.0 L 227.0 318.5 L 226.0 318.5 L 226.5 315.0 Z" /><path desc="l 12 p 3" fill="rgb(122,82,215)" stroke="rgb(122,82,215)" stroke-width="1" opacity="1.0" d="M 198.5 327.0 L 199.5 329.0 L 198.5 327.0 Z" /><path desc="l 2 p 7" fill="rgb(130,88,223)" stroke="rgb(130,88,223)" stroke-width="1" opacity="1.0" d="M 157.5 328.0 L 156.5 330.0 L 157.5 328.0 Z" /><path desc="l 8 p 46" fill="rgb(134,91,227)" stroke="rgb(134,91,227)" stroke-width="1" opacity="1.0" d="M 207.5 330.0 L 213.0 330.5 L 207.5 331.0 L 207.5 330.0 Z" /><path desc="l 5 p 25" fill="rgb(171,151,216)" stroke="rgb(171,151,216)" stroke-width="1" opacity="1.0" d="M 144.5 350.0 L 151.5 350.0 L 155.0 351.5 L 155.5 390.0 Q 159.3 389.3 160.0 391.5 L 159.5 398.0 Q 156.3 400.3 149.5 399.0 L 145.0 395.5 L 144.0 390.5 L 144.0 382.5 L 144.5 350.0 Z" /><path desc="l 15 p 3" fill="rgb(70,70,70)" stroke="rgb(70,70,70)" stroke-width="1" opacity="1.0" d="M 146.5 351.0 Q 152.5 349.5 154.0 352.5 L 154.0 380.5 L 154.0 387.5 Q 153.3 391.3 155.5 392.0 L 158.0 392.5 Q 159.0 397.0 156.5 398.0 Q 147.8 399.8 146.0 394.5 L 145.0 382.5 L 145.0 352.5 L 146.5 351.0 Z" /><path desc="l 5 p 26" fill="rgb(171,151,216)" stroke="rgb(171,151,216)" stroke-width="1" opacity="1.0" d="M 114.5 352.0 Q 127.9 350.1 134.0 355.5 L 133.5 363.0 L 116.5 362.0 L 111.0 365.5 L 109.0 371.5 L 108.0 376.5 L 109.0 379.5 Q 108.4 386.1 112.5 388.0 Q 116.2 391.3 124.5 390.0 L 125.0 381.5 Q 118.7 382.3 117.0 378.5 Q 116.3 373.8 118.5 372.0 L 130.5 372.0 Q 135.0 371.0 136.0 373.5 L 135.5 396.0 L 126.5 399.0 L 115.5 400.0 Q 104.7 398.3 100.0 390.5 Q 95.2 383.3 97.0 369.5 Q 98.9 360.4 105.5 356.0 L 114.5 352.0 Z" /><path desc="l 8 p 47" fill="rgb(134,91,227)" stroke="rgb(134,91,227)" stroke-width="1" opacity="1.0" d="M 117.5 353.0 L 125.0 353.5 L 117.5 354.0 L 117.5 353.0 Z" /><path desc="l 15 p 4" fill="rgb(70,70,70)" stroke="rgb(70,70,70)" stroke-width="1" opacity="1.0" d="M 112.5 354.0 L 124.5 354.0 Q 131.0 353.0 133.0 356.5 Q 134.0 361.0 131.5 362.0 Q 126.8 358.7 117.5 360.0 L 110.0 364.5 L 108.0 369.5 L 107.0 378.5 L 108.0 381.5 L 109.0 385.5 L 112.5 390.0 L 115.5 391.0 L 124.5 392.0 L 126.0 388.5 L 126.0 380.5 L 121.5 380.0 L 118.0 378.5 Q 117.3 374.8 119.5 374.0 L 134.0 374.5 L 134.0 389.5 Q 135.3 394.8 132.5 396.0 L 129.5 397.0 L 123.5 398.0 L 112.5 398.0 Q 105.8 395.8 102.0 390.5 L 99.0 382.5 Q 96.5 379.0 98.0 371.5 L 100.0 366.5 Q 101.8 359.3 107.5 356.0 L 112.5 354.0 Z" /><path desc="l 8 p 48" fill="rgb(134,91,227)" stroke="rgb(134,91,227)" stroke-width="1" opacity="1.0" d="M 119.5 360.0 L 125.0 360.5 L 119.5 361.0 L 119.5 360.0 Z" /><path desc="l 12 p 4" fill="rgb(122,82,215)" stroke="rgb(122,82,215)" stroke-width="1" opacity="1.0" d="M 112.5 362.0 L 111.5 364.0 L 112.5 362.0 Z" /><path desc="l 5 p 27" fill="rgb(171,151,216)" stroke="rgb(171,151,216)" stroke-width="1" opacity="1.0" d="M 165.5 364.0 Q 171.3 363.3 174.0 365.5 L 174.0 381.5 Q 173.1 388.4 176.5 391.0 Q 182.0 391.5 184.0 388.5 L 184.5 365.0 L 192.5 364.0 Q 196.8 365.8 195.0 373.5 L 195.0 396.5 Q 193.8 400.3 187.5 399.0 Q 186.8 396.3 182.5 397.0 Q 179.0 401.0 170.5 400.0 L 166.0 397.5 Q 162.1 393.4 163.0 384.5 L 163.0 366.5 L 165.5 364.0 Z" /><path desc="l 5 p 28" fill="rgb(171,151,216)" stroke="rgb(171,151,216)" stroke-width="1" opacity="1.0" d="M 212.5 364.0 Q 228.3 361.2 232.0 370.5 L 233.0 382.5 Q 231.8 386.3 225.5 385.0 L 213.0 385.5 Q 212.5 389.5 215.5 390.0 L 224.5 391.0 Q 226.0 388.5 231.5 390.0 L 232.0 396.5 Q 226.9 401.4 215.5 400.0 Q 208.6 398.5 205.0 393.5 Q 200.0 388.0 202.0 375.5 L 208.5 366.0 L 212.5 364.0 Z" /><path desc="l 15 p 5" fill="rgb(70,70,70)" stroke="rgb(70,70,70)" stroke-width="1" opacity="1.0" d="M 214.5 365.0 Q 226.6 363.4 230.0 370.5 L 232.0 379.5 L 229.5 384.0 L 211.0 384.5 Q 211.3 389.3 214.5 391.0 L 220.5 392.0 L 230.0 392.5 Q 230.8 397.3 227.5 398.0 L 216.5 398.0 L 211.5 397.0 L 206.0 392.5 Q 203.4 391.1 204.0 386.5 L 204.0 374.5 L 209.5 367.0 L 214.5 365.0 Z" /><path desc="l 15 p 6" fill="rgb(70,70,70)" stroke="rgb(70,70,70)" stroke-width="1" opacity="1.0" d="M 165.5 366.0 Q 171.5 364.5 173.0 367.5 L 173.0 382.5 Q 171.8 389.8 175.5 392.0 Q 182.8 393.3 185.0 389.5 L 185.0 373.5 Q 183.5 367.5 186.5 366.0 Q 192.5 364.5 194.0 367.5 L 194.0 388.5 L 194.0 394.5 L 192.5 398.0 Q 187.3 399.3 186.0 396.5 L 185.5 395.0 L 180.5 397.0 L 177.5 398.0 L 169.5 398.0 Q 163.5 394.5 164.0 384.5 L 164.0 367.5 L 165.5 366.0 Z" /><path desc="l 12 p 5" fill="rgb(122,82,215)" stroke="rgb(122,82,215)" stroke-width="1" opacity="1.0" d="M 227.5 367.0 L 228.5 369.0 L 227.5 367.0 Z" /><path desc="l 5 p 29" fill="rgb(171,151,216)" stroke="rgb(171,151,216)" stroke-width="1" opacity="1.0" d="M 215.5 371.0 Q 222.5 369.5 224.0 373.5 L 223.5 378.0 L 212.0 377.5 L 213.5 372.0 L 215.5 371.0 Z" /><path desc="l 0 p 7" fill="rgb(253,253,254)" stroke="rgb(253,253,254)" stroke-width="1" opacity="1.0" d="M 215.5 372.0 Q 221.8 370.8 223.0 374.5 L 222.5 377.0 L 213.0 376.5 Q 212.5 372.5 215.5 372.0 Z" /><path desc="l 8 p 49" fill="rgb(134,91,227)" stroke="rgb(134,91,227)" stroke-width="1" opacity="1.0" d="M 119.5 373.0 L 133.0 373.5 L 119.5 374.0 L 119.5 373.0 Z" /><path desc="l 8 p 50" fill="rgb(134,91,227)" stroke="rgb(134,91,227)" stroke-width="1" opacity="1.0" d="M 134.5 375.0 L 135.0 392.5 L 134.0 392.5 L 134.5 375.0 Z" /><path desc="l 8 p 51" fill="rgb(134,91,227)" stroke="rgb(134,91,227)" stroke-width="1" opacity="1.0" d="M 203.5 377.0 L 204.0 384.5 L 203.0 384.5 L 203.5 377.0 Z" /><path desc="l 12 p 6" fill="rgb(122,82,215)" stroke="rgb(122,82,215)" stroke-width="1" opacity="1.0" d="M 111.5 388.0 L 112.5 390.0 L 111.5 388.0 Z" /><path desc="l 12 p 7" fill="rgb(122,82,215)" stroke="rgb(122,82,215)" stroke-width="1" opacity="1.0" d="M 184.5 389.0 L 183.5 391.0 L 184.5 389.0 Z" /><path desc="l 8 p 52" fill="rgb(134,91,227)" stroke="rgb(134,91,227)" stroke-width="1" opacity="1.0" d="M 119.5 391.0 L 125.0 391.5 L 119.5 392.0 L 119.5 391.0 Z" /><path desc="l 12 p 8" fill="rgb(122,82,215)" stroke="rgb(122,82,215)" stroke-width="1" opacity="1.0" d="M 166.5 395.0 L 167.5 397.0 L 166.5 395.0 Z" /><path desc="l 8 p 53" fill="rgb(134,91,227)" stroke="rgb(134,91,227)" stroke-width="1" opacity="1.0" d="M 217.5 398.0 L 221.0 398.5 L 217.5 399.0 L 217.5 398.0 Z" /></svg>