<svg width="160" height="160" viewBox="0 0 160 160" fill="none" xmlns="http://www.w3.org/2000/svg">
<g clip-path="url(#clip0_608_13346)">
<rect width="160" height="160" fill="white"/>
<path d="M63.3886 60.2739C63.3886 58.1975 63.7924 56.1787 64.5998 54.2754C65.3497 52.4296 66.5032 50.757 67.8875 49.3727C69.3295 47.9307 70.9445 46.8348 72.7902 46.085C74.6936 45.2775 76.7123 44.8738 78.7888 44.8738H84.9603L99.2069 30.6272H78.8464C74.8666 30.6272 70.9445 31.4347 67.3107 32.9343C63.7924 34.434 60.62 36.5681 57.8515 39.279C55.1406 41.9899 53.0065 45.1622 51.5068 48.7382C49.9495 52.4296 49.1997 56.2941 49.1997 60.2739V80.6344L63.4463 66.3878V60.2739H63.3886Z" fill="#00B1C9"/>
<path d="M160 0V7.61355C160 8.70944 159.712 9.86301 159.077 10.7282C158.212 11.9971 157.462 12.7469 156.597 13.6121C154.636 15.5732 152.675 17.3612 150.714 19.3223L145.234 24.8017L140.101 29.9351L136.986 33.0497L75.8472 94.1889L24.398 145.696H83.1146C89.1132 145.696 94.881 144.542 100.36 142.235C102.956 141.139 105.494 139.755 107.859 138.14C110.224 136.583 112.415 134.737 114.434 132.718C116.453 130.699 118.241 128.508 119.856 126.143C121.471 123.778 122.855 121.24 123.951 118.645C126.258 113.165 127.412 107.397 127.412 101.399V62.8695L141.658 48.6229V101.456C141.658 105.436 141.255 109.358 140.447 113.223C139.697 116.972 138.544 120.663 137.044 124.239C135.602 127.7 133.756 131.045 131.622 134.16C129.546 137.275 127.123 140.159 124.47 142.812C121.817 145.465 118.933 147.888 115.818 149.964C112.704 152.098 109.358 153.886 105.898 155.386C102.379 156.885 98.6878 158.039 94.881 158.789C91.0166 159.596 87.0368 160 83.1146 160H0V152.386C0 151.464 0.230714 150.541 0.634463 149.733C1.21125 148.637 2.1341 147.484 3.05696 146.619C8.8248 140.908 5.0757 144.658 6.05624 143.677C7.95963 141.774 6.05624 143.735 11.7664 138.14L17.1305 132.776L22.0908 127.815L26.7051 123.201L30.9733 118.933L34.9531 114.953L38.5869 111.319L41.9322 107.974L44.9892 104.917L47.7578 102.149L50.2956 99.6107L52.5451 97.3612L54.5638 95.3425L56.4095 93.4968L58.0245 91.8818L59.4088 90.4975L60.62 89.2862L61.6583 88.248L62.5811 87.3252L63.3309 86.5753L63.9654 85.9409L64.4845 85.4218L64.8882 85.018L65.1766 84.7296L65.4074 84.4989L65.5227 84.3836L66.734 83.1723L135.66 14.3043H76.943C70.9445 14.3043 65.1766 15.4578 59.6972 17.765C57.1017 18.8609 54.5638 20.2451 52.199 21.8601C49.8342 23.4174 47.6424 25.2632 45.6237 27.2819C43.6049 29.3007 41.8169 31.4924 40.2019 33.8572C38.5869 36.2221 37.2026 38.7599 36.1067 41.3554C33.7996 46.8349 32.646 52.6027 32.646 58.6013V97.1305L18.3994 111.377V58.6013C18.3994 54.6215 18.8032 50.6417 19.6107 46.8349C20.3605 43.0858 21.5141 39.3944 23.0137 35.8183C24.4557 32.3576 26.3014 29.0123 28.4355 25.8976C30.5119 22.783 32.9344 19.8991 35.5876 17.2459C38.2408 14.5926 41.1247 12.1702 44.2394 10.0937C47.354 7.95963 50.6994 6.17159 54.1601 4.67195C57.6784 3.17231 61.3699 2.01875 65.1766 1.26893C69.0411 0.461427 73.0209 0.0576781 76.943 0.0576781H160V0Z" fill="#00B1C9"/>
<path d="M96.6115 99.726C96.6115 101.802 96.2077 103.821 95.4002 105.725C94.6504 107.57 93.4968 109.243 92.1125 110.627C90.6706 112.069 89.0556 113.165 87.2099 113.915C85.3065 114.722 83.2877 115.126 81.2113 115.126H75.0974L60.8508 129.373H81.2113C85.1911 129.373 89.1133 128.565 92.747 127.066C96.2654 125.566 99.4377 123.432 102.206 120.721C104.917 118.01 107.051 114.838 108.551 111.262C110.108 107.57 110.858 103.706 110.858 99.726V79.3655L96.6115 93.6121V99.726V99.726Z" fill="#00B1C9"/>
</g>
<defs>
<clipPath id="clip0_608_13346">
<rect width="160" height="160" fill="white"/>
</clipPath>
</defs>
</svg>
