<svg width="160" height="160" viewBox="0 0 160 160" fill="none" xmlns="http://www.w3.org/2000/svg">
<rect width="160" height="160" fill="none"/>
<path d="M91.104 38.814C108.332 39.3204 117.876 49.3892 117.876 49.3892L130.354 36.4831C114.117 24.008 98.8043 23.0266 98.8043 23.0266C52.392 19.123 32.6696 54.9977 33.5629 79.4165C34.4531 103.835 52.0838 132.592 84.1398 135.514C116.196 138.439 131.565 119.311 131.565 119.311L119.634 107.324C82.2242 135.989 57.9156 100.042 57.9156 100.042C37.9289 57.879 72.9009 38.2792 91.104 38.814Z" fill="black"/>
<path d="M71.4193 140.424C56.7549 138.168 13.227 101.381 32.8048 56.1108C52.3826 10.8404 98.6973 16.0808 98.6973 16.0808C119.106 16.7508 136.135 32.3809 136.135 32.3809L145.739 18.9967C144.594 17.7637 142.414 16.15 139.813 14.4326C137.919 16.1374 135.418 17.1818 132.669 17.1786C126.799 17.1692 122.053 12.4226 122.069 6.57503C122.072 5.76977 122.169 4.99283 122.342 4.24105C121.638 3.86359 121.226 3.64654 121.226 3.64654C118.542 2.96396 115.938 2.40406 113.406 1.93537C111.613 5.28851 108.071 7.57216 103.994 7.56587C99.1849 7.55957 95.1366 4.37002 93.8344 0.00402244C90.9436 -0.0211418 88.2479 0.0732206 85.7598 0.246225C84.879 5.2256 80.5193 9.00653 75.2726 9.00024C71.4288 8.99394 68.0788 6.95249 66.2198 3.90448C65.5907 4.00828 62.7943 4.53044 58.7145 6.04973C59.1738 7.23559 59.4317 8.52211 59.4286 9.87154C59.4128 15.7191 54.6411 20.45 48.7684 20.4405C45.4215 20.4342 42.4458 18.8866 40.5019 16.4772C38.6681 17.943 36.8122 19.5755 34.9626 21.3873C36.2775 23.152 37.0607 25.3318 37.0544 27.7004C37.0387 33.5479 32.2669 38.2788 26.3942 38.2694C24.9661 38.2662 23.6041 37.98 22.3617 37.4673C22.3302 37.5207 22.2956 37.5711 22.2641 37.6245C20.7291 40.1881 19.4049 42.6951 18.2379 45.1486C21.2607 47.0202 23.277 50.3514 23.2676 54.1574C23.2518 60.005 18.4801 64.7358 12.6074 64.7264C12.3809 64.7264 12.1576 64.7044 11.9342 64.6918C11.4184 67.6738 11.129 70.4764 11 73.0746C15.3031 74.4335 18.414 78.4472 18.4014 83.1844C18.3889 87.3019 16.0171 90.8563 12.5665 92.6021C12.5759 92.816 12.5728 93.0016 12.5413 93.1242C12.9691 95.8671 13.5164 98.4779 14.1392 101.001C14.2336 100.997 14.3248 100.988 14.4192 100.988C20.2887 100.998 25.0353 105.744 25.0196 111.592C25.0102 114.857 23.5161 117.773 21.1789 119.71C22.3616 121.953 23.6136 124.067 24.9221 126.055C26.3533 125.347 27.9575 124.941 29.6624 124.941C35.532 124.951 40.2786 129.697 40.2629 135.545C40.2566 137.75 39.574 139.794 38.4101 141.487C40.3887 143.207 42.3546 144.742 44.2577 146.098C46.1733 144.277 48.7621 143.157 51.6151 143.16C57.4846 143.17 62.2312 147.916 62.2155 153.764C62.2155 154.324 62.1557 154.868 62.0708 155.403C62.0834 155.406 62.118 155.418 62.118 155.418C65.1408 156.246 68.0567 156.919 70.9034 157.507C72.7813 154.478 76.1376 152.455 79.972 152.461C84.7438 152.468 88.7701 155.607 90.1038 159.92C93.0543 160.033 95.8852 160.026 98.581 159.901C99.619 155.123 103.891 151.546 108.996 151.552C112.877 151.559 116.256 153.641 118.102 156.736C120.873 155.931 123.405 155.028 125.714 154.069C125.356 153.003 125.154 151.867 125.158 150.678C125.173 144.83 129.945 140.1 135.818 140.109C138.686 140.112 141.282 141.254 143.191 143.097C143.59 142.704 143.801 142.471 143.801 142.471L149.875 136.737L137.148 125.551C117.001 149.435 86.0838 142.682 71.4193 140.424Z" fill="black"/>
</svg>
