<svg width="160" height="160" viewBox="0 0 160 160" fill="none" xmlns="http://www.w3.org/2000/svg">
<g clip-path="url(#clip0_624_10736)">
<rect width="160" height="160" fill="none"/>
<g clip-path="url(#clip1_624_10736)">
<path d="M93.856 24.2106C96.769 21.2975 96.7689 16.5744 93.8558 13.6614C90.9427 10.7484 86.2197 10.7485 83.3067 13.6616C80.3937 16.5747 80.3938 21.2977 83.3069 24.2107C86.22 27.1238 90.943 27.1237 93.856 24.2106Z" fill="#5B87DA"/>
<path d="M114.937 45.2977C118.172 42.0625 118.172 36.8172 114.937 33.582C111.701 30.3469 106.456 30.347 103.221 33.5823C99.9859 36.8175 99.986 42.0628 103.221 45.2979C106.456 48.533 111.702 48.5329 114.937 45.2977Z" fill="#5B87DA"/>
<path d="M136.025 66.3848C139.584 62.8254 139.584 57.0547 136.024 53.4954C132.465 49.9362 126.694 49.9363 123.135 53.4956C119.576 57.055 119.576 62.8258 123.135 66.385C126.695 69.9443 132.465 69.9442 136.025 66.3848Z" fill="#5B87DA"/>
<path d="M157.091 87.4502C160.972 83.5687 160.972 77.2757 157.091 73.3943C153.209 69.5129 146.916 69.513 143.035 73.3945C139.153 77.276 139.153 83.5691 143.035 87.4505C146.916 91.3318 153.209 91.3317 157.091 87.4502Z" fill="#5B87DA"/>
<path d="M52.2858 23.621C54.8747 21.032 54.8747 16.8345 52.2857 14.2456C49.6967 11.6567 45.4992 11.6568 42.9103 14.2458C40.3214 16.8348 40.3214 21.0323 42.9104 23.6212C45.4994 26.2101 49.6969 26.21 52.2858 23.621Z" fill="#1EDCFF"/>
<path d="M73.3741 44.7152C76.2871 41.8021 76.287 37.0791 73.3739 34.1661C70.4608 31.253 65.7378 31.2531 62.8248 34.1663C59.9118 37.0794 59.9118 41.8024 62.8249 44.7154C65.7381 47.6284 70.4611 47.6283 73.3741 44.7152Z" fill="#1EDCFF"/>
<path d="M94.4364 65.7772C97.6715 62.5419 97.6714 57.2967 94.4362 54.0615C91.2009 50.8264 85.9556 50.8265 82.7205 54.0618C79.4854 57.297 79.4855 62.5423 82.7207 65.7774C85.956 69.0125 91.2012 69.0124 94.4364 65.7772Z" fill="#1EDCFF"/>
<path d="M115.521 86.8535C119.08 83.2942 119.08 77.5234 115.52 73.9641C111.961 70.4049 106.19 70.405 102.631 73.9644C99.0719 77.5237 99.072 83.2945 102.631 86.8538C106.191 90.413 111.961 90.4129 115.521 86.8535Z" fill="#1EDCFF"/>
<path d="M136.605 107.951C140.486 104.07 140.486 97.7769 136.605 93.8955C132.723 90.0142 126.43 90.0143 122.549 93.8958C118.667 97.7773 118.668 104.07 122.549 107.952C126.431 111.833 132.724 111.833 136.605 107.951Z" fill="#1EDCFF"/>
<path d="M10.7484 23.0635C13.0152 20.7966 13.0152 17.1213 10.7483 14.8546C8.48146 12.5878 4.80621 12.5879 2.53943 14.8547C0.272645 17.1216 0.272709 20.7968 2.53957 23.0636C4.80643 25.3304 8.48166 25.3303 10.7484 23.0635Z" fill="black"/>
<path d="M31.7966 44.111C34.3855 41.522 34.3854 37.3245 31.7964 34.7356C29.2074 32.1467 25.0099 32.1468 22.421 34.7358C19.8321 37.3248 19.8322 41.5223 22.4212 44.1112C25.0102 46.7001 29.2077 46.7 31.7966 44.111Z" fill="black"/>
<path d="M52.8951 65.2162C55.8081 62.3031 55.808 57.5801 52.8949 54.6671C49.9818 51.7541 45.2588 51.7541 42.3458 54.6672C39.4328 57.5803 39.4328 62.3034 42.346 65.2164C45.2591 68.1294 49.9821 68.1293 52.8951 65.2162Z" fill="black"/>
<path d="M73.9686 86.2889C77.2038 83.0537 77.2036 77.8084 73.9684 74.5733C70.7332 71.3381 65.4879 71.3382 62.2527 74.5735C59.0176 77.8087 59.0177 83.054 62.2529 86.2891C65.4882 89.5243 70.7335 89.5242 73.9686 86.2889Z" fill="black"/>
<path d="M95.0422 107.369C98.6014 103.809 98.6013 98.0385 95.042 94.4793C91.4826 90.92 85.7118 90.9201 82.1526 94.4795C78.5933 98.0389 78.5934 103.81 82.1528 107.369C85.7122 110.928 91.483 110.928 95.0422 107.369Z" fill="black"/>
<path d="M116.101 128.42C119.982 124.538 119.982 118.245 116.101 114.364C112.219 110.483 105.926 110.483 102.045 114.364C98.1636 118.246 98.1637 124.539 102.045 128.42C105.927 132.302 112.22 132.301 116.101 128.42Z" fill="black"/>
<path d="M52.2905 105.582C54.8798 102.993 54.8797 98.795 52.2904 96.2058C49.7011 93.6165 45.503 93.6166 42.9138 96.2059C40.3246 98.7952 40.3246 102.993 42.914 105.582C45.5033 108.172 49.7013 108.172 52.2905 105.582Z" fill="#5B87DA"/>
<path d="M31.8023 126.071C34.3915 123.482 34.3914 119.284 31.8021 116.695C29.2128 114.106 25.0147 114.106 22.4255 116.695C19.8363 119.284 19.8364 123.482 22.4257 126.072C25.015 128.661 29.213 128.661 31.8023 126.071Z" fill="#5B87DA"/>
<path d="M11.3189 146.576C13.9081 143.987 13.908 139.789 11.3187 137.2C8.72938 134.611 4.53133 134.611 1.9421 137.2C-0.647123 139.789 -0.647033 143.987 1.94229 146.577C4.5316 149.166 8.72964 149.166 11.3189 146.576Z" fill="#5B87DA"/>
<path d="M52.2925 146.565C54.8817 143.975 54.8816 139.777 52.2923 137.188C49.703 134.599 45.505 134.599 42.9157 137.188C40.3265 139.778 40.3266 143.976 42.9159 146.565C45.5052 149.154 49.7033 149.154 52.2925 146.565Z" fill="#5B87DA"/>
<path d="M93.2774 146.58C95.8666 143.991 95.8665 139.793 93.2772 137.204C90.6879 134.614 86.4898 134.614 83.9006 137.204C81.3114 139.793 81.3115 143.991 83.9008 146.58C86.4901 149.17 90.6881 149.169 93.2774 146.58Z" fill="#5B87DA"/>
<path d="M72.7798 126.071C75.369 123.482 75.3689 119.284 72.7796 116.694C70.1903 114.105 65.9923 114.105 63.403 116.694C60.8138 119.284 60.8139 123.482 63.4032 126.071C65.9925 128.66 70.1906 128.66 72.7798 126.071Z" fill="#5B87DA"/>
</g>
</g>
<defs>
<clipPath id="clip0_624_10736">
<rect width="160" height="160" fill="none"/>
</clipPath>
<clipPath id="clip1_624_10736">
<rect width="160" height="160" fill="none"/>
</clipPath>
</defs>
</svg>
