<svg width="160" height="160" viewBox="0 0 160 160" fill="none" xmlns="http://www.w3.org/2000/svg">
<rect width="160" height="160" fill="none"/>
<path d="M77.6732 155.296C70.4932 155.296 63.3836 153.881 56.7502 151.134C50.1168 148.386 44.0896 144.359 39.0126 139.282C33.9357 134.204 29.9086 128.177 27.1611 121.544C24.4137 114.91 22.9997 107.8 23 100.62C23 74.6379 43.3657 49.7115 57.297 31.5301C64.8266 21.7562 71.457 11.3214 77.107 0.353168C77.1594 0.247154 77.2403 0.157897 77.3408 0.0954857C77.4412 0.0330749 77.5571 0 77.6753 0C77.7935 0 77.9094 0.0330749 78.0098 0.0954857C78.1102 0.157897 78.1912 0.247154 78.2435 0.353168C83.8939 11.3224 90.525 21.7579 98.0557 31.5322C111.983 49.7137 132.355 74.6252 132.355 100.623H98.9894C98.6488 100.623 98.3221 100.758 98.0812 100.999C97.8404 101.24 97.7051 101.566 97.7051 101.907V120.657H78.9596C78.619 120.657 78.2923 120.792 78.0515 121.033C77.8106 121.274 77.6753 121.6 77.6753 121.941V155.296H77.6732Z" fill="#728E9B"/>
<path d="M99.0422 142.021V124.169H82.4683C82.2996 124.169 82.1326 124.203 81.9768 124.267C81.821 124.332 81.6794 124.426 81.5601 124.546C81.4409 124.665 81.3463 124.806 81.2817 124.962C81.2172 125.118 81.184 125.285 81.184 125.454V142.023L99.0422 142.021Z" fill="#728E9B"/>
<path d="M81.1861 159.857C87.2907 159.743 93.3306 158.582 99.0422 156.424V147.431H82.4683C82.2996 147.431 82.1326 147.465 81.9768 147.529C81.821 147.594 81.6794 147.688 81.5601 147.808C81.4409 147.927 81.3463 148.068 81.2817 148.224C81.2172 148.38 81.184 148.547 81.184 148.716L81.1861 159.857Z" fill="#728E9B"/>
<path d="M119.068 121.987V104.135H102.498C102.158 104.135 101.831 104.271 101.59 104.512C101.349 104.753 101.214 105.079 101.214 105.42V121.987H119.066H119.068Z" fill="#728E9B"/>
<path d="M121.214 144.176L121.235 144.155C121.929 143.448 122.314 142.496 122.308 141.506V127.397H104.452V145.253H118.559C119.552 145.26 120.507 144.872 121.214 144.176V144.176Z" fill="#728E9B"/>
<path d="M105.665 160C110.436 157.952 114.883 155.219 118.865 151.886H105.665V160Z" fill="#728E9B"/>
<path d="M133.468 121.987C135.63 116.278 136.793 110.239 136.905 104.135H124.484V121.987H133.468Z" fill="#728E9B"/>
<path d="M128.924 141.812C132.256 137.83 134.988 133.382 137.034 128.61H128.924V141.812Z" fill="#728E9B"/>
<path d="M128.924 141.812C132.256 137.83 134.988 133.382 137.034 128.61H128.924V141.812Z" fill="#728E9B"/>
</svg>
