<?xml version="1.0" encoding="UTF-8" standalone="no"?>
<svg
   xmlns:dc="http://purl.org/dc/elements/1.1/"
   xmlns:cc="http://creativecommons.org/ns#"
   xmlns:rdf="http://www.w3.org/1999/02/22-rdf-syntax-ns#"
   xmlns:svg="http://www.w3.org/2000/svg"
   xmlns="http://www.w3.org/2000/svg"
   xmlns:sodipodi="http://sodipodi.sourceforge.net/DTD/sodipodi-0.dtd"
   xmlns:inkscape="http://www.inkscape.org/namespaces/inkscape"
   version="1.1"
   viewBox="0 0 450.4978 451.21524"
   stroke-miterlimit="10"
   id="svg165"
   sodipodi:docname="pq.svg"
   width="450.4978"
   height="451.21524"
   style="fill:none;stroke:none;stroke-linecap:square;stroke-miterlimit:10"
   inkscape:version="0.92.5 (2060ec1f9f, 2020-04-08)">
  <metadata
     id="metadata171">
    <rdf:RDF>
      <cc:Work
         rdf:about="">
        <dc:format>image/svg+xml</dc:format>
        <dc:type
           rdf:resource="http://purl.org/dc/dcmitype/StillImage" />
        <dc:title></dc:title>
      </cc:Work>
    </rdf:RDF>
  </metadata>
  <defs
     id="defs169" />
  <sodipodi:namedview
     pagecolor="#ffffff"
     bordercolor="#666666"
     borderopacity="1"
     objecttolerance="10"
     gridtolerance="10"
     guidetolerance="10"
     inkscape:pageopacity="0"
     inkscape:pageshadow="2"
     inkscape:window-width="3068"
     inkscape:window-height="2116"
     id="namedview167"
     showgrid="false"
     fit-margin-top="0"
     fit-margin-left="0"
     fit-margin-right="0"
     fit-margin-bottom="0"
     inkscape:zoom="1.4458333"
     inkscape:cx="133.65429"
     inkscape:cy="200.07003"
     inkscape:window-x="2688"
     inkscape:window-y="20"
     inkscape:window-maximized="0"
     inkscape:current-layer="g163" />
  <clipPath
     id="g2574091311a_0_0.0">
    <path
       d="M 0,0 H 960 V 540 H 0 Z"
       id="path2"
       inkscape:connector-curvature="0"
       style="clip-rule:nonzero" />
  </clipPath>
  <g
     clip-path="url(#g2574091311a_0_0.0)"
     id="g163"
     transform="translate(-218.76464,-54.045932)">
    <path
       d="M 0,0 H 960 V 540 H 0 Z"
       id="path5"
       inkscape:connector-curvature="0"
       style="fill:#ffffff;fill-rule:evenodd" />
    <path
       d="M 46.540684,510.3701 H 285.7533 v 18.92911 H 46.540684 Z"
       id="path7"
       inkscape:connector-curvature="0"
       style="fill:#ffffff;fill-rule:evenodd" />
    <path
       d="M 546.38055,327.28085 374.979,498.36746"
       id="path9"
       inkscape:connector-curvature="0"
       style="fill:#000000;fill-opacity:0;fill-rule:evenodd" />
    <path
       d="M 546.38055,327.28085 374.979,498.36746"
       id="path11"
       inkscape:connector-curvature="0"
       style="fill-rule:evenodd;stroke:#1e8bcd;stroke-width:16;stroke-linecap:butt;stroke-linejoin:round" />
    <path
       d="m 368.3071,497.31235 v 0 c 0,-4.11389 3.5394,-7.44882 7.90549,-7.44882 v 0 c 2.09668,0 4.10748,0.78479 5.59005,2.1817 1.48258,1.39691 2.31546,3.29156 2.31546,5.26712 v 0 c 0,4.11386 -3.53939,7.44882 -7.90551,7.44882 v 0 c -4.36609,0 -7.90549,-3.33496 -7.90549,-7.44882 z"
       id="path13"
       inkscape:connector-curvature="0"
       style="fill:#1e8bcd;fill-rule:evenodd" />
    <path
       d="m 368.3071,497.31235 v 0 c 0,-4.11389 3.5394,-7.44882 7.90549,-7.44882 v 0 c 2.09668,0 4.10748,0.78479 5.59005,2.1817 1.48258,1.39691 2.31546,3.29156 2.31546,5.26712 v 0 c 0,4.11386 -3.53939,7.44882 -7.90551,7.44882 v 0 c -4.36609,0 -7.90549,-3.33496 -7.90549,-7.44882 z"
       id="path15"
       inkscape:connector-curvature="0"
       style="fill-rule:evenodd;stroke:#1e8bcd;stroke-width:1;stroke-linecap:butt;stroke-linejoin:round" />
    <path
       d="m 572.1601,203.48819 v 0 c 0,25.90768 10.23041,50.75426 28.44061,69.07376 18.21027,18.31949 42.90863,28.61127 68.66174,28.61127 v -97.68503 z"
       id="path17"
       inkscape:connector-curvature="0"
       style="fill:#000000;fill-opacity:0;fill-rule:evenodd" />
    <path
       d="m 572.1601,203.48819 v 0 c 0,25.90768 10.23041,50.75426 28.44061,69.07376 18.21027,18.31949 42.90863,28.61127 68.66174,28.61127"
       id="path19"
       inkscape:connector-curvature="0"
       style="fill:#000000;fill-opacity:0;fill-rule:evenodd" />
    <path
       d="m 572.1601,203.48819 v 0 c 0,25.90768 10.23041,50.75426 28.44061,69.07376 18.21027,18.31949 42.90863,28.61127 68.66174,28.61127"
       id="path21"
       inkscape:connector-curvature="0"
       style="fill-rule:evenodd;stroke:#1e8bcd;stroke-width:16;stroke-linecap:butt;stroke-linejoin:round" />
    <path
       d="m 668.6798,301.75592 v 0 c -25.90772,0 -50.75427,10.23038 -69.07379,28.44061 -18.31946,18.21024 -28.61127,42.9086 -28.61127,68.66174 h 97.68506 z"
       id="path23"
       inkscape:connector-curvature="0"
       style="fill:#000000;fill-opacity:0;fill-rule:evenodd" />
    <path
       d="m 668.6798,301.75592 v 0 c -25.90772,0 -50.75427,10.23038 -69.07379,28.44061 -18.31946,18.21024 -28.61127,42.9086 -28.61127,68.66174"
       id="path25"
       inkscape:connector-curvature="0"
       style="fill:#000000;fill-opacity:0;fill-rule:evenodd" />
    <path
       d="m 668.6798,301.75592 v 0 c -25.90772,0 -50.75427,10.23038 -69.07379,28.44061 -18.31946,18.21024 -28.61127,42.9086 -28.61127,68.66174"
       id="path27"
       inkscape:connector-curvature="0"
       style="fill-rule:evenodd;stroke:#1e8bcd;stroke-width:16;stroke-linecap:butt;stroke-linejoin:round" />
    <path
       d="m 570.99475,398.85828 v 0 c 0,-25.90768 -10.23041,-50.75427 -28.44061,-69.07376 -18.21027,-18.31949 -42.9086,-28.6113 -68.66174,-28.6113 v 97.68506 z"
       id="path29"
       inkscape:connector-curvature="0"
       style="fill:#000000;fill-opacity:0;fill-rule:evenodd" />
    <path
       d="m 570.99475,398.85828 v 0 c 0,-25.90768 -10.23041,-50.75427 -28.44061,-69.07376 -18.21027,-18.31949 -42.9086,-28.6113 -68.66174,-28.6113"
       id="path31"
       inkscape:connector-curvature="0"
       style="fill:#000000;fill-opacity:0;fill-rule:evenodd" />
    <path
       d="m 570.99475,398.85828 v 0 c 0,-25.90768 -10.23041,-50.75427 -28.44061,-69.07376 -18.21027,-18.31949 -42.9086,-28.6113 -68.66174,-28.6113"
       id="path33"
       inkscape:connector-curvature="0"
       style="fill-rule:evenodd;stroke:#1e8bcd;stroke-width:16;stroke-linecap:butt;stroke-linejoin:round" />
    <path
       d="m 473.8924,301.17322 v 0 c 25.90768,0 50.75427,-10.23038 69.07373,-28.44061 18.31952,-18.21022 28.61133,-42.90859 28.61133,-68.66174 H 473.8924 Z"
       id="path35"
       inkscape:connector-curvature="0"
       style="fill:#000000;fill-opacity:0;fill-rule:evenodd" />
    <path
       d="m 473.8924,301.17322 v 0 c 25.90768,0 50.75427,-10.23038 69.07373,-28.44061 18.31952,-18.21022 28.61133,-42.90859 28.61133,-68.66174"
       id="path37"
       inkscape:connector-curvature="0"
       style="fill:#000000;fill-opacity:0;fill-rule:evenodd" />
    <path
       d="m 473.8924,301.17322 v 0 c 25.90768,0 50.75427,-10.23038 69.07373,-28.44061 18.31952,-18.21022 28.61133,-42.90859 28.61133,-68.66174"
       id="path39"
       inkscape:connector-curvature="0"
       style="fill-rule:evenodd;stroke:#1e8bcd;stroke-width:16;stroke-linecap:butt;stroke-linejoin:round" />
    <path
       d="m 639.1575,373.8714 v 0 c 0,4.8616 1.92133,9.52408 5.34131,12.96176 3.41992,3.43768 8.05841,5.36893 12.89496,5.36893 V 373.8714 Z"
       id="path41"
       inkscape:connector-curvature="0"
       style="fill:#000000;fill-opacity:0;fill-rule:evenodd" />
    <path
       d="m 639.1575,373.8714 v 0 c 0,4.8616 1.92133,9.52408 5.34131,12.96176 3.41992,3.43768 8.05841,5.36893 12.89496,5.36893"
       id="path43"
       inkscape:connector-curvature="0"
       style="fill:#000000;fill-opacity:0;fill-rule:evenodd" />
    <path
       d="m 639.1575,373.8714 v 0 c 0,4.8616 1.92133,9.52408 5.34131,12.96176 3.41992,3.43768 8.05841,5.36893 12.89496,5.36893"
       id="path45"
       inkscape:connector-curvature="0"
       style="fill-rule:evenodd;stroke:#1e8bcd;stroke-width:3;stroke-linecap:butt;stroke-linejoin:round" />
    <path
       d="m 657.299,392.3404 v 0 c -4.86157,0 -9.52411,1.92133 -12.96173,5.34128 -3.43768,3.41995 -5.36896,8.05841 -5.36896,12.89496 H 657.299 Z"
       id="path47"
       inkscape:connector-curvature="0"
       style="fill:#000000;fill-opacity:0;fill-rule:evenodd" />
    <path
       d="m 657.299,392.3404 v 0 c -4.86157,0 -9.52411,1.92133 -12.96173,5.34128 -3.43768,3.41995 -5.36896,8.05841 -5.36896,12.89496"
       id="path49"
       inkscape:connector-curvature="0"
       style="fill:#000000;fill-opacity:0;fill-rule:evenodd" />
    <path
       d="m 657.299,392.3404 v 0 c -4.86157,0 -9.52411,1.92133 -12.96173,5.34128 -3.43768,3.41995 -5.36896,8.05841 -5.36896,12.89496"
       id="path51"
       inkscape:connector-curvature="0"
       style="fill-rule:evenodd;stroke:#1e8bcd;stroke-width:3;stroke-linecap:butt;stroke-linejoin:round" />
    <path
       d="m 638.93866,410.59055 v 0 c 0,-4.8616 -1.92133,-9.52408 -5.34131,-12.96176 -3.41992,-3.43768 -8.05841,-5.36893 -12.89496,-5.36893 v 18.33069 z"
       id="path53"
       inkscape:connector-curvature="0"
       style="fill:#000000;fill-opacity:0;fill-rule:evenodd" />
    <path
       d="m 638.93866,410.59055 v 0 c 0,-4.8616 -1.92133,-9.52408 -5.34131,-12.96176 -3.41992,-3.43768 -8.05841,-5.36893 -12.89496,-5.36893"
       id="path55"
       inkscape:connector-curvature="0"
       style="fill:#000000;fill-opacity:0;fill-rule:evenodd" />
    <path
       d="m 638.93866,410.59055 v 0 c 0,-4.8616 -1.92133,-9.52408 -5.34131,-12.96176 -3.41992,-3.43768 -8.05841,-5.36893 -12.89496,-5.36893"
       id="path57"
       inkscape:connector-curvature="0"
       style="fill-rule:evenodd;stroke:#1e8bcd;stroke-width:3;stroke-linecap:butt;stroke-linejoin:round" />
    <path
       d="m 620.6877,392.23096 v 0 c 4.86157,0 9.52411,-1.9213 12.96173,-5.34125 3.43768,-3.41995 5.36896,-8.05841 5.36896,-12.89496 H 620.6877 Z"
       id="path59"
       inkscape:connector-curvature="0"
       style="fill:#000000;fill-opacity:0;fill-rule:evenodd" />
    <path
       d="m 620.6877,392.23096 v 0 c 4.86157,0 9.52411,-1.9213 12.96173,-5.34125 3.43768,-3.41995 5.36896,-8.05841 5.36896,-12.89496"
       id="path61"
       inkscape:connector-curvature="0"
       style="fill:#000000;fill-opacity:0;fill-rule:evenodd" />
    <path
       d="m 620.6877,392.23096 v 0 c 4.86157,0 9.52411,-1.9213 12.96173,-5.34125 3.43768,-3.41995 5.36896,-8.05841 5.36896,-12.89496"
       id="path63"
       inkscape:connector-curvature="0"
       style="fill-rule:evenodd;stroke:#1e8bcd;stroke-width:3;stroke-linecap:butt;stroke-linejoin:round" />
    <path
       d="m 623.0236,391.86877 5.3963,-1.44357 6.9895,-5.16797 3.64832,-8.58533 3.64831,8.50919 6.00263,5.168 6.00262,2.05249 -8.20733,3.34381 -5.09192,5.54596 -2.65875,6.83987 -1.97638,-7.06824 -4.40686,-4.02624 -9.34644,-5.24408"
       id="path65"
       inkscape:connector-curvature="0"
       style="fill:#1e8bcd;fill-rule:evenodd" />
    <path
       d="m 623.0236,391.86877 5.3963,-1.44357 6.9895,-5.16797 3.64832,-8.58533 3.64831,8.50919 6.00263,5.168 6.00262,2.05249 -8.20733,3.34381 -5.09192,5.54596 -2.65875,6.83987 -1.97638,-7.06824 -4.40686,-4.02624 -9.34644,-5.24408"
       id="path67"
       inkscape:connector-curvature="0"
       style="fill-rule:evenodd;stroke:#1e8bcd;stroke-width:1;stroke-linecap:butt;stroke-linejoin:round" />
    <path
       d="m 608.96063,432.38846 v 0 c 0,4.8616 1.92133,9.52408 5.34125,12.96176 3.41998,3.43768 8.05841,5.36893 12.89496,5.36893 v -18.33069 z"
       id="path69"
       inkscape:connector-curvature="0"
       style="fill:#000000;fill-opacity:0;fill-rule:evenodd" />
    <path
       d="m 608.96063,432.38846 v 0 c 0,4.8616 1.92133,9.52408 5.34125,12.96176 3.41998,3.43768 8.05841,5.36893 12.89496,5.36893"
       id="path71"
       inkscape:connector-curvature="0"
       style="fill:#000000;fill-opacity:0;fill-rule:evenodd" />
    <path
       d="m 608.96063,432.38846 v 0 c 0,4.8616 1.92133,9.52408 5.34125,12.96176 3.41998,3.43768 8.05841,5.36893 12.89496,5.36893"
       id="path73"
       inkscape:connector-curvature="0"
       style="fill-rule:evenodd;stroke:#1e8bcd;stroke-width:3;stroke-linecap:butt;stroke-linejoin:round" />
    <path
       d="m 627.1022,450.85745 v 0 c -4.86163,0 -9.52411,1.92133 -12.96179,5.34128 -3.43768,3.41995 -5.3689,8.05841 -5.3689,12.89496 h 18.33069 z"
       id="path75"
       inkscape:connector-curvature="0"
       style="fill:#000000;fill-opacity:0;fill-rule:evenodd" />
    <path
       d="m 627.1022,450.85745 v 0 c -4.86163,0 -9.52411,1.92133 -12.96179,5.34128 -3.43768,3.41995 -5.3689,8.05841 -5.3689,12.89496"
       id="path77"
       inkscape:connector-curvature="0"
       style="fill:#000000;fill-opacity:0;fill-rule:evenodd" />
    <path
       d="m 627.1022,450.85745 v 0 c -4.86163,0 -9.52411,1.92133 -12.96179,5.34128 -3.43768,3.41995 -5.3689,8.05841 -5.3689,12.89496"
       id="path79"
       inkscape:connector-curvature="0"
       style="fill-rule:evenodd;stroke:#1e8bcd;stroke-width:3;stroke-linecap:butt;stroke-linejoin:round" />
    <path
       d="m 608.74176,469.1076 v 0 c 0,-4.8616 -1.92126,-9.52408 -5.34125,-12.96176 -3.41992,-3.43768 -8.05841,-5.36893 -12.89496,-5.36893 v 18.33069 z"
       id="path81"
       inkscape:connector-curvature="0"
       style="fill:#000000;fill-opacity:0;fill-rule:evenodd" />
    <path
       d="m 608.74176,469.1076 v 0 c 0,-4.8616 -1.92126,-9.52408 -5.34125,-12.96176 -3.41992,-3.43768 -8.05841,-5.36893 -12.89496,-5.36893"
       id="path83"
       inkscape:connector-curvature="0"
       style="fill:#000000;fill-opacity:0;fill-rule:evenodd" />
    <path
       d="m 608.74176,469.1076 v 0 c 0,-4.8616 -1.92126,-9.52408 -5.34125,-12.96176 -3.41992,-3.43768 -8.05841,-5.36893 -12.89496,-5.36893"
       id="path85"
       inkscape:connector-curvature="0"
       style="fill-rule:evenodd;stroke:#1e8bcd;stroke-width:3;stroke-linecap:butt;stroke-linejoin:round" />
    <path
       d="m 590.49084,450.74802 v 0 c 4.86157,0 9.52405,-1.9213 12.96173,-5.34125 3.43768,-3.41995 5.36896,-8.05841 5.36896,-12.89496 h -18.33069 z"
       id="path87"
       inkscape:connector-curvature="0"
       style="fill:#000000;fill-opacity:0;fill-rule:evenodd" />
    <path
       d="m 590.49084,450.74802 v 0 c 4.86157,0 9.52405,-1.9213 12.96173,-5.34125 3.43768,-3.41995 5.36896,-8.05841 5.36896,-12.89496"
       id="path89"
       inkscape:connector-curvature="0"
       style="fill:#000000;fill-opacity:0;fill-rule:evenodd" />
    <path
       d="m 590.49084,450.74802 v 0 c 4.86157,0 9.52405,-1.9213 12.96173,-5.34125 3.43768,-3.41995 5.36896,-8.05841 5.36896,-12.89496"
       id="path91"
       inkscape:connector-curvature="0"
       style="fill-rule:evenodd;stroke:#1e8bcd;stroke-width:3;stroke-linecap:butt;stroke-linejoin:round" />
    <path
       d="m 592.8268,450.38583 5.3963,-1.44357 6.9895,-5.16797 3.64832,-8.58533 3.64831,8.50919 6.00263,5.168 6.00262,2.05249 -8.20739,3.34384 -5.09186,5.54593 -2.65875,6.83987 -1.97638,-7.06824 -4.40686,-4.02624 -9.34644,-5.24408"
       id="path93"
       inkscape:connector-curvature="0"
       style="fill:#1e8bcd;fill-rule:evenodd" />
    <path
       d="m 592.8268,450.38583 5.3963,-1.44357 6.9895,-5.16797 3.64832,-8.58533 3.64831,8.50919 6.00263,5.168 6.00262,2.05249 -8.20739,3.34384 -5.09186,5.54593 -2.65875,6.83987 -1.97638,-7.06824 -4.40686,-4.02624 -9.34644,-5.24408"
       id="path95"
       inkscape:connector-curvature="0"
       style="fill-rule:evenodd;stroke:#1e8bcd;stroke-width:1;stroke-linecap:butt;stroke-linejoin:round" />
    <path
       d="m 324.84778,54.545933 h 13.03937 V 184.24672 h -13.03937 z"
       id="path97"
       inkscape:connector-curvature="0"
       style="fill:#3a3a38;fill-rule:evenodd" />
    <path
       d="m 324.84778,54.545933 h 13.03937 V 184.24672 h -13.03937 z"
       id="path99"
       inkscape:connector-curvature="0"
       style="fill-rule:evenodd;stroke:#3a3a38;stroke-width:1;stroke-linecap:butt;stroke-linejoin:round" />
    <path
       d="m 414.84778,99.698166 h 13.03937 V 209.08399 h -13.03937 z"
       id="path101"
       inkscape:connector-curvature="0"
       style="fill:#3a3a38;fill-rule:evenodd" />
    <path
       d="m 414.84778,99.698166 h 13.03937 V 209.08399 h -13.03937 z"
       id="path103"
       inkscape:connector-curvature="0"
       style="fill-rule:evenodd;stroke:#3a3a38;stroke-width:1;stroke-linecap:butt;stroke-linejoin:round" />
    <path
       d="m 505.44357,99.698166 h 13.03934 V 267.57218 h -13.03934 z"
       id="path105"
       inkscape:connector-curvature="0"
       style="fill:#3a3a38;fill-rule:evenodd" />
    <path
       d="m 505.44357,99.698166 h 13.03934 V 267.57218 h -13.03934 z"
       id="path107"
       inkscape:connector-curvature="0"
       style="fill-rule:evenodd;stroke:#3a3a38;stroke-width:1;stroke-linecap:butt;stroke-linejoin:round" />
    <path
       d="m 596.03937,54.545933 h 13.03937 V 213.34908 h -13.03937 z"
       id="path109"
       inkscape:connector-curvature="0"
       style="fill:#3a3a38;fill-rule:evenodd" />
    <path
       d="m 596.03937,54.545933 h 13.03937 V 213.34908 h -13.03937 z"
       id="path111"
       inkscape:connector-curvature="0"
       style="fill-rule:evenodd;stroke:#3a3a38;stroke-width:1;stroke-linecap:butt;stroke-linejoin:round" />
    <path
       d="M 324.84778,67.585304 V 54.545932 h 283.937 v 13.039372 z"
       id="path113"
       inkscape:connector-curvature="0"
       style="fill:#3a3a38;fill-rule:evenodd" />
    <path
       d="M 324.84778,67.585304 V 54.545932 h 283.937 v 13.039372 z"
       id="path115"
       inkscape:connector-curvature="0"
       style="fill-rule:evenodd;stroke:#3a3a38;stroke-width:1;stroke-linecap:butt;stroke-linejoin:round" />
    <path
       d="M 327.87927,112.73753 V 99.698162 h 278.48816 v 13.039368 z"
       id="path117"
       inkscape:connector-curvature="0"
       style="fill:#3a3a38;fill-rule:evenodd" />
    <path
       d="M 327.87927,112.73753 V 99.698162 h 278.48816 v 13.039368 z"
       id="path119"
       inkscape:connector-curvature="0"
       style="fill-rule:evenodd;stroke:#3a3a38;stroke-width:1;stroke-linecap:butt;stroke-linejoin:round" />
    <path
       d="m 325.14435,172.73753 v -13.03937 h 283.937 v 13.03937 z"
       id="path121"
       inkscape:connector-curvature="0"
       style="fill:#3a3a38;fill-rule:evenodd" />
    <path
       d="m 325.14435,172.73753 v -13.03937 h 283.937 v 13.03937 z"
       id="path123"
       inkscape:connector-curvature="0"
       style="fill-rule:evenodd;stroke:#3a3a38;stroke-width:1;stroke-linecap:butt;stroke-linejoin:round" />
    <path
       d="M 437.56693,233.02887 V 219.9895 h 104.25198 v 13.03937 z"
       id="path125"
       inkscape:connector-curvature="0"
       style="fill:#3a3a38;fill-rule:evenodd" />
    <path
       d="M 437.56693,233.02887 V 219.9895 h 104.25198 v 13.03937 z"
       id="path127"
       inkscape:connector-curvature="0"
       style="fill-rule:evenodd;stroke:#3a3a38;stroke-width:1;stroke-linecap:butt;stroke-linejoin:round" />
    <path
       d="m 444.84778,293.32022 v -13.03937 h 13.63779 v 13.03937 z"
       id="path129"
       inkscape:connector-curvature="0"
       style="fill:#3a3a38;fill-rule:evenodd" />
    <path
       d="m 444.84778,293.32022 v -13.03937 h 13.63779 v 13.03937 z"
       id="path131"
       inkscape:connector-curvature="0"
       style="fill-rule:evenodd;stroke:#3a3a38;stroke-width:1;stroke-linecap:butt;stroke-linejoin:round" />
    <path
       d="M 337.88715,99.698166 V 67.572182 h 258.17322 v 32.125984 z"
       id="path133"
       inkscape:connector-curvature="0"
       style="fill:#c8c6c4;fill-rule:evenodd" />
    <path
       d="M 337.88715,99.698166 V 67.572182 h 258.17322 v 32.125984 z"
       id="path135"
       inkscape:connector-curvature="0"
       style="fill-rule:evenodd;stroke:#c8c6c4;stroke-width:1;stroke-linecap:butt;stroke-linejoin:round" />
    <path
       d="m 219.84,249.09186 h 14.39371 V 430.91864 H 219.84 Z"
       id="path137"
       inkscape:connector-curvature="0"
       style="fill:#3a3a38;fill-rule:evenodd" />
    <path
       d="m 219.84,249.09186 h 14.39371 V 430.91864 H 219.84 Z"
       id="path139"
       inkscape:connector-curvature="0"
       style="fill-rule:evenodd;stroke:#3a3a38;stroke-width:1;stroke-linecap:butt;stroke-linejoin:round" />
    <path
       d="m 416.063,249.09186 h 13.63779 V 415.45407 H 416.063 Z"
       id="path141"
       inkscape:connector-curvature="0"
       style="fill:#3a3a38;fill-rule:evenodd" />
    <path
       d="m 416.063,249.09186 h 13.63779 V 415.45407 H 416.063 Z"
       id="path143"
       inkscape:connector-curvature="0"
       style="fill-rule:evenodd;stroke:#3a3a38;stroke-width:1;stroke-linecap:butt;stroke-linejoin:round" />
    <path
       d="m 226.76437,253.48795 v 0 c 0.1877,-22.89798 43.97113,-41.40703 97.85458,-41.36714 53.88345,0.0399 97.51489,18.61363 97.51489,41.51175 h -97.68503 z"
       id="path145"
       inkscape:connector-curvature="0"
       style="fill:#000000;fill-opacity:0;fill-rule:evenodd" />
    <path
       d="m 226.76437,253.48795 v 0 c 0.1877,-22.89798 43.97113,-41.40703 97.85458,-41.36714 53.88345,0.0399 97.51489,18.61363 97.51489,41.51175"
       id="path147"
       inkscape:connector-curvature="0"
       style="fill:#000000;fill-opacity:0;fill-rule:evenodd" />
    <path
       d="m 226.76437,253.48795 v 0 c 0.1877,-22.89798 43.97113,-41.40703 97.85458,-41.36714 53.88345,0.0399 97.51489,18.61363 97.51489,41.51175"
       id="path149"
       inkscape:connector-curvature="0"
       style="fill-rule:evenodd;stroke:#3a3a38;stroke-width:16;stroke-linecap:butt;stroke-linejoin:round" />
    <path
       d="m 226.76437,251.95169 v 0 c 0.1877,22.89798 43.97113,41.40701 97.85458,41.36716 53.88345,-0.0399 97.51489,-18.61365 97.51489,-41.51177 h -97.68503 z"
       id="path151"
       inkscape:connector-curvature="0"
       style="fill:#000000;fill-opacity:0;fill-rule:evenodd" />
    <path
       d="m 226.76437,251.95169 v 0 c 0.1877,22.89798 43.97113,41.40701 97.85458,41.36716 53.88345,-0.0399 97.51489,-18.61365 97.51489,-41.51177"
       id="path153"
       inkscape:connector-curvature="0"
       style="fill:#000000;fill-opacity:0;fill-rule:evenodd" />
    <path
       d="m 226.76437,251.95169 v 0 c 0.1877,22.89798 43.97113,41.40701 97.85458,41.36716 53.88345,-0.0399 97.51489,-18.61365 97.51489,-41.51177"
       id="path155"
       inkscape:connector-curvature="0"
       style="fill-rule:evenodd;stroke:#3a3a38;stroke-width:16;stroke-linecap:butt;stroke-linejoin:round" />
    <path
       d="m 226.76437,427.1039 v 0 c 0.12361,15.07932 19.48003,28.94421 50.5632,36.2182 31.08319,7.27399 69.00412,6.81293 99.0578,-1.20441 l -51.93655,-35.15838 z"
       id="path157"
       inkscape:connector-curvature="0"
       style="fill:#000000;fill-opacity:0;fill-rule:evenodd" />
    <path
       d="m 226.76437,427.1039 v 0 c 0.12361,15.07932 19.48003,28.94421 50.5632,36.2182 31.08319,7.27399 69.00412,6.81293 99.0578,-1.20441"
       id="path159"
       inkscape:connector-curvature="0"
       style="fill:#000000;fill-opacity:0;fill-rule:evenodd" />
    <path
       d="m 226.76437,427.1039 v 0 c 0.12361,15.07932 19.48003,28.94421 50.5632,36.2182 31.08319,7.27399 69.00412,6.81293 99.0578,-1.20441"
       id="path161"
       inkscape:connector-curvature="0"
       style="fill-rule:evenodd;stroke:#3a3a38;stroke-width:16;stroke-linecap:butt;stroke-linejoin:round" />
  </g>
</svg>
