<svg width="160" height="160" viewBox="0 0 160 160" fill="none" xmlns="http://www.w3.org/2000/svg">
<g clip-path="url(#clip0_608_10695)">
<rect width="160" height="160" fill="white"/>
<path d="M2.57293 159.361L78.9613 80.8355C79.4398 80.3436 79.5315 79.5831 79.1324 79.0244C74.4857 72.5197 65.916 71.3923 62.7392 67.0222C53.329 54.0771 50.9413 46.7501 46.8977 47.2045C46.6152 47.2363 46.3634 47.3888 46.1649 47.5927L18.5694 75.9604C2.69426 92.2797 0.417672 128.211 0.000160827 158.297C-0.0187016 159.657 1.62611 160.334 2.57293 159.361Z" fill="#017CEE"/>
<path d="M158.912 157.42L80.6083 80.8151C80.1178 80.3352 79.3594 80.2432 78.8024 80.6434C72.3161 85.3034 71.1919 93.8973 66.8341 97.0832C53.9256 106.52 46.6193 108.915 47.0725 112.97C47.1041 113.253 47.2562 113.506 47.4596 113.704L75.747 141.378C92.0201 157.298 127.849 159.581 157.851 160C159.207 160.019 159.882 158.37 158.912 157.42Z" fill="#00AD46"/>
<path fill-rule="evenodd" clip-rule="evenodd" d="M75.7467 141.378C66.8574 132.683 62.7333 115.478 79.7749 80.0007C52.0788 92.413 42.3732 108.729 47.1477 113.4L75.7467 141.378Z" fill="#04D659"/>
<path d="M156.975 0.639547L80.5866 79.1654C80.1081 79.6573 80.0164 80.4177 80.4155 80.9764C85.0622 87.4811 93.6323 88.6085 96.8083 92.9787C106.219 105.924 108.607 113.25 112.65 112.797C112.932 112.765 113.184 112.612 113.383 112.408L140.978 84.0404C156.854 67.7209 159.131 31.7903 159.548 1.70336C159.566 0.343759 157.922 -0.333758 156.975 0.639547Z" fill="#00C7D4"/>
<path fill-rule="evenodd" clip-rule="evenodd" d="M140.979 84.0404C132.307 92.9544 115.151 97.0908 79.7739 80.0007C92.1511 107.775 108.421 117.509 113.079 112.72L140.979 84.0404Z" fill="#11E1EE"/>
<path d="M0.637638 2.58021L78.9413 79.1852C79.4318 79.665 80.1901 79.7571 80.7473 79.3569C87.2336 74.6969 88.3578 66.103 92.7151 62.9172C105.624 53.4802 112.93 51.0858 112.477 47.0307C112.445 46.7475 112.293 46.4949 112.09 46.2959L83.8026 18.6221C67.5293 2.7019 31.7002 0.418856 1.69844 0.000161441C0.342687 -0.0187638 -0.332914 1.63072 0.637638 2.58021Z" fill="#E43921"/>
<path fill-rule="evenodd" clip-rule="evenodd" d="M83.8021 18.6216C92.691 27.318 96.8156 44.5217 79.7739 79.9996C107.47 67.5874 117.176 51.271 112.401 46.6001L83.8021 18.6216Z" fill="#FF7557"/>
<path fill-rule="evenodd" clip-rule="evenodd" d="M18.5703 75.9606C27.2421 67.0462 44.3972 62.9104 79.7747 80.0002C67.3976 52.2257 51.1274 42.4925 46.4697 47.2806L18.5703 75.9606Z" fill="#0CB6FF"/>
<path d="M79.8286 83.4149C81.7149 83.3914 83.2252 81.8389 83.2018 79.9473C83.1784 78.0556 81.6303 76.5411 79.744 76.5645C77.8577 76.5879 76.3475 78.1404 76.3708 80.0321C76.3942 81.9238 77.9423 83.4383 79.8286 83.4149Z" fill="#4A4848"/>
</g>
<defs>
<clipPath id="clip0_608_10695">
<rect width="160" height="160" fill="white"/>
</clipPath>
</defs>
</svg>
