<svg width="160" height="160" viewBox="0 0 160 160" fill="none" xmlns="http://www.w3.org/2000/svg">
<rect width="160" height="160" fill="white"/>
<path fill-rule="evenodd" clip-rule="evenodd" d="M45.3648 19.8522L11 39.697V79.9588V120.221L34.0331 133.522C46.7013 140.838 57.1726 146.824 57.3025 146.824C57.4331 146.824 57.6118 128.762 57.7005 106.686L57.8611 66.5484L81.9168 52.6556C95.1472 45.0148 107.124 38.1462 108.532 37.3926L111.091 36.023L118.398 40.2662C122.418 42.5998 125.54 44.6761 125.337 44.8798C125.133 45.0829 113.242 52.0164 98.9112 60.2878L72.8566 75.3258L72.7042 115.605L72.5518 155.884L76.3025 157.942L80.0528 160L84.1088 157.732L88.1648 155.464L88.1784 120.059L88.192 84.6552L118.638 67.1019L149.084 49.5484V44.6424V39.737L130.027 28.6965L110.97 17.656L109.096 18.7563C108.065 19.3611 93.444 27.7849 76.6055 37.4764C59.7668 47.1673 44.9381 55.7747 43.6522 56.6032L41.3154 58.1102L41.153 88.6792L40.9911 119.249L33.6558 115.073L26.3205 110.897L26.3217 79.9688L26.3236 49.0405L60.2122 29.5025C78.8505 18.7563 94.4792 9.72584 94.9416 9.43408C95.5344 9.06104 93.4696 7.57901 87.9952 4.44806C83.7112 1.99754 80.0992 -0.00436655 79.968 7.15306e-06C79.8368 0.00375604 64.2654 8.93736 45.3648 19.8522ZM127.745 79.309C116.009 86.0784 105.676 92.0952 104.782 92.68C103.164 93.7408 103.16 93.7632 103.16 102.477C103.16 107.279 103.371 111.209 103.629 111.208C103.886 111.207 110.666 107.411 118.694 102.774C126.723 98.1344 133.401 94.3392 133.534 94.3392C133.667 94.3392 133.771 98.0656 133.766 102.618L133.755 110.897L118.466 119.645L103.177 128.392L103.169 137.362C103.162 145.182 103.283 146.286 104.122 145.963C104.651 145.761 114.702 140.062 126.459 133.301C138.215 126.539 148.189 120.687 148.622 120.297C149.238 119.742 149.374 113.826 149.247 93.2936L149.084 67.0014L127.745 79.309Z" fill="#0169EA"/>
</svg>
