<svg width="160" height="160" viewBox="0 0 160 160" fill="none" xmlns="http://www.w3.org/2000/svg">
<rect width="160" height="160" fill="white"/>
<path d="M115.829 33.3926C101.408 33.3367 85.4216 37.8433 76.8063 43.1573C73.5859 45.1437 70.2815 47.3676 66.97 49.7148C66.97 49.7148 37.0884 72.7234 27.8038 84.3027C26.5603 85.8535 25.4281 87.5253 24.4416 89.2864C24.3751 89.4128 24.3042 89.5405 24.2389 89.6679C24.1467 89.8375 24.0541 90.0095 23.9647 90.1806C23.9435 90.2235 23.9261 90.2687 23.9051 90.3117C22.4381 93.3106 21.3202 96.5581 20.7694 99.838C20.7648 99.8656 20.7621 99.8938 20.7575 99.9214C20.741 100.037 20.725 100.152 20.7098 100.267C20.2107 104.071 20.4163 108.129 21.9736 111.57C23.8668 115.753 27.0181 118.876 31.5834 121.442C35.9859 123.917 44.0426 126.02 44.0426 126.02L43.9115 126.08C50.6261 127.271 57.5819 126.871 64.3709 126.211C67.6998 125.888 71.0301 125.521 74.3621 125.102C74.3644 125.102 74.3718 125.102 74.374 125.102C74.3968 125.103 74.469 125.102 74.4933 125.102C74.2737 123.984 73.919 121.843 74.3502 121.728C78.9142 120.514 81.6313 119.781 85.1879 118.545C88.5888 117.363 91.0776 116.286 93.8319 114.765C94.5202 114.385 95.065 113.752 95.7873 113.442C98.0677 112.462 100.607 112.232 103.06 111.856C105.02 111.555 107.003 111.358 108.986 111.32C110.272 111.294 111.574 111.266 112.837 111.51C113.804 111.697 114.782 111.968 115.627 112.476C116.191 112.816 116.715 113.276 117.081 113.823C117.277 114.24 117.438 114.678 117.594 115.111C124.804 112.409 132.128 109.152 137.696 103.868C145.931 96.0522 152.474 85.8376 155.711 74.9552C157.469 69.0435 157.775 62.4004 156.104 56.4631C155.072 52.7925 153.48 50.4301 149.928 46.8295C142.664 39.464 132.08 34.909 121.803 33.7264C119.9 33.5075 117.89 33.4006 115.829 33.3926ZM66.97 49.7148C65.4947 50.7606 64.0146 51.8314 62.5467 52.922L66.97 49.7148ZM98.0764 56.6658C102.749 56.652 105.337 57.3692 105.337 57.3692C105.337 57.3692 97.6507 58.0866 93.3789 58.8476C89.9952 59.4505 84.5526 60.4984 80.3115 61.9356C72.0419 64.738 64.1751 68.6563 56.4065 72.6422C50.4353 75.7059 44.7138 79.2453 38.9993 82.7646C35.0936 85.17 27.47 90.276 27.47 90.276C27.47 90.276 33.9668 81.8807 51.2439 72.1773C56.1839 69.4028 61.2256 66.8001 66.3977 64.4871C70.4393 62.6796 74.5372 60.9569 78.7735 59.6703C81.9921 58.6928 85.3134 58.0157 88.6336 57.4765C91.0527 57.0837 93.6242 56.8363 95.9422 56.7254C96.6929 56.6895 97.409 56.6678 98.0764 56.6658ZM38.8085 64.6779C37.2783 64.6869 35.9661 66.4829 35.1602 67.8374C34.1274 69.573 33.6685 72.5515 33.4552 74.9314C36.7711 72.0954 40.08 69.4573 42.3734 67.6705C41.4873 66.1818 40.3773 64.8948 39.1185 64.7017C39.0147 64.6858 38.9105 64.6772 38.8085 64.6779ZM105.612 72.2607C105.612 72.2607 91.186 77.7348 84.0195 80.5947C75.7639 83.8892 67.5344 87.266 59.3633 90.7648C53.6476 93.2122 47.9646 95.7418 42.3138 98.3357C37.1187 100.72 26.8143 105.68 26.8143 105.68C26.8143 105.68 35.5889 98.4865 51.8639 91.3728C61.3616 87.2215 67.766 83.5844 77.9866 80.2489C82.759 78.6915 87.469 76.9378 92.2939 75.5514C96.6878 74.2888 105.612 72.2607 105.612 72.2607ZM110.619 86.9018C110.619 86.9018 108.594 89.313 104.074 92.3028C101.813 93.7978 99.8313 95.3651 97.6114 96.7381C94.7382 98.5152 91.7889 100.169 88.7528 101.65C84.9895 103.487 81.0819 105.022 77.1878 106.562C73.3706 108.072 69.5313 109.541 65.6227 110.795C60.8003 112.342 55.931 113.774 50.9816 114.849C47.3903 115.628 40.0962 116.578 40.0962 116.578C40.0962 116.578 49.0967 113.528 53.5808 111.951C58.3152 110.287 62.8047 108.715 67.745 106.849C72.8518 104.919 76.5034 103.513 80.8481 101.758C84.4005 100.322 87.9774 98.935 91.4474 97.3104C94.1013 96.0678 96.677 94.6584 99.2568 93.2686C103.08 91.209 110.619 86.9018 110.619 86.9018ZM121.099 96.3565C121.099 96.3565 120.978 97.8521 117.177 101.746C115.642 103.318 112.937 105.346 111.215 106.407C104.542 110.52 100.986 111.57 100.986 111.57C100.986 111.57 107.574 107.261 110.762 104.953C112.64 103.594 114.491 102.181 116.271 100.696C117.933 99.3101 121.099 96.3565 121.099 96.3565ZM18.7426 110.604C16.501 111.613 13.8 112.863 12.0301 113.811C8.74827 115.569 2.29075 118.644 2.5038 119.642C2.82947 121.167 10.1402 118.217 13.9496 117.46C16.3733 116.978 18.7834 116.473 21.1986 115.958C20.2242 114.253 19.3771 112.459 18.7426 110.604ZM108.103 113.048C107.133 113.055 106.096 113.111 104.837 113.251C100.979 113.679 99.9348 114.024 96.8484 115.028C95.7488 115.385 95.0999 115.96 94.2373 116.434C92.6873 117.286 91.2273 118.315 89.6113 119.034C87.2891 120.067 84.8185 120.729 82.3861 121.466C80.3804 122.073 80.103 122.192 76.3174 123.099C75.6603 123.257 76.2783 124.33 76.8659 125.15C85.8468 125.332 113.011 125.766 113.373 124.256L115.376 115.934C115.555 115.87 115.734 115.808 115.913 115.743C115.838 115.457 115.74 115.171 115.627 114.98C115.296 114.424 114.812 113.919 114.232 113.633C113.256 113.152 112.098 113.228 111.013 113.156C109.987 113.088 109.074 113.042 108.103 113.048ZM113.016 115.29C114.092 115.308 114.965 115.472 114.959 116.005C114.947 117.154 112.478 117.097 111.346 117.209C104.045 117.931 101.485 117.809 96.5503 117.829C95.6023 117.833 93.7127 117.734 93.7127 117.734C93.7127 117.734 98.454 116.609 102.667 116.101C105.116 115.805 107.505 115.5 109.856 115.421C110.663 115.394 111.939 115.272 113.016 115.29ZM107.424 119.868C108.302 119.851 109.18 119.879 110.047 119.999C110.732 120.095 111.506 120.129 112.038 120.572C112.275 120.769 112.551 121.192 112.455 121.394C112.26 121.805 111.527 121.824 109.963 121.931C108.089 122.058 106.261 122.209 104.407 122.265C99.8112 122.402 90.6128 122.241 90.6128 122.241C90.6128 122.241 93.4815 121.479 94.9407 121.215C98.1958 120.628 101.487 120.201 104.789 119.999C105.662 119.946 106.546 119.885 107.424 119.868Z" fill="#3071A9"/>
</svg>
