<svg width="44" height="44" viewBox="0 0 44 44" fill="none" xmlns="http://www.w3.org/2000/svg">
<g clip-path="url(#clip0_625_10682)">
<path d="M41.5857 19.3886C41.5091 18.6602 41.3942 17.8167 41.1644 16.8966C40.9345 15.9765 40.5514 14.9797 40.0534 13.9062C39.5171 12.8711 38.8659 11.7593 37.9848 10.7242C37.6401 10.3024 37.257 9.91906 36.8739 9.49734C37.4868 7.08202 36.1461 4.97342 36.1461 4.97342C33.8093 4.82007 32.3536 5.70185 31.8173 6.08523C31.7407 6.04689 31.6258 6.00855 31.5492 5.97021C31.1661 5.81686 30.7447 5.66351 30.3233 5.51016C29.902 5.39514 29.4806 5.24179 29.0592 5.16511C28.6378 5.0501 28.1781 4.97342 27.7184 4.89674C27.6418 4.89674 27.5652 4.8584 27.4886 4.8584C26.4926 1.63799 23.5812 0.257812 23.5812 0.257812C20.2485 2.40476 19.5972 5.28013 19.5972 5.28013C19.5972 5.28013 19.5972 5.3568 19.5589 5.43348C19.3674 5.47182 19.2142 5.54849 19.0226 5.58683C18.7928 5.66351 18.5246 5.74018 18.2948 5.8552C18.0649 5.97021 17.7968 6.04689 17.567 6.16191C17.069 6.39194 16.6093 6.62196 16.1113 6.89033C15.6516 7.1587 15.1919 7.42707 14.7705 7.73377C14.6939 7.69544 14.6556 7.6571 14.6556 7.6571C10.1736 5.93188 6.18963 8.00214 6.18963 8.00214C5.84486 12.7944 7.99008 15.7848 8.41146 16.3215C8.29654 16.6283 8.21993 16.8966 8.105 17.2033C7.76024 18.2768 7.53039 19.3886 7.37716 20.5388C7.33885 20.6921 7.33885 20.8838 7.30055 21.0372C3.16334 23.0691 1.9375 27.2863 1.9375 27.2863C5.38517 31.2735 9.44576 31.5035 9.44576 31.5035C9.94376 32.4236 10.5567 33.3054 11.2079 34.1105C11.4761 34.4555 11.7825 34.7623 12.089 35.1073C10.8248 38.7111 12.2805 41.7398 12.2805 41.7398C16.1496 41.8932 18.6779 40.0529 19.2142 39.6312C19.5972 39.7462 19.9803 39.8612 20.3634 39.9763C21.5509 40.283 22.7768 40.4747 23.9643 40.513C24.2708 40.513 24.5772 40.513 24.8837 40.513H25.0369H25.1518H25.3434H25.5349C27.3354 43.12 30.5532 43.465 30.5532 43.465C32.8133 41.0497 32.9666 38.7111 32.9666 38.1744C32.9666 38.1744 32.9666 38.1744 32.9666 38.136C32.9666 38.0977 32.9666 38.0593 32.9666 38.0593C32.9666 38.021 32.9666 37.9827 32.9666 37.9443C33.4262 37.5993 33.8859 37.2542 34.3456 36.8709C35.265 36.0658 36.0311 35.1073 36.7207 34.1105C36.7973 34.0338 36.8356 33.9188 36.9122 33.8421C39.4788 33.9955 41.2793 32.2319 41.2793 32.2319C40.8579 29.5482 39.3256 28.2447 39.0191 28.0147C39.0191 28.0147 39.0191 28.0147 38.9808 27.9764L38.9425 27.938L38.9042 27.8997C38.9042 27.7463 38.9425 27.593 38.9425 27.4013C38.9808 27.0946 38.9808 26.8262 38.9808 26.5195V26.2895V26.1745V26.1361C38.9808 26.0595 38.9808 26.0978 38.9808 26.0595V25.8678V25.6377C38.9808 25.5611 38.9808 25.4844 38.9808 25.4077C38.9808 25.331 38.9808 25.2544 38.9425 25.1777L38.9042 24.9477L38.8659 24.7176C38.8276 24.4109 38.751 24.1426 38.7127 23.8358C38.4445 22.6857 37.9848 21.5739 37.4102 20.6154C36.7973 19.6186 36.0695 18.7752 35.2267 18.0084C34.3839 17.28 33.4645 16.6666 32.4686 16.2449C31.4726 15.7848 30.4766 15.5164 29.4423 15.4014C28.9443 15.3248 28.408 15.3248 27.91 15.3248H27.7184H27.6801H27.6035H27.5269H27.3354C27.2587 15.3248 27.1821 15.3248 27.1438 15.3248C26.8757 15.3631 26.6075 15.4014 26.3777 15.4398C25.3434 15.6315 24.3857 16.0148 23.5429 16.5132C22.7002 17.0116 21.9723 17.6634 21.3594 18.3918C20.7465 19.1202 20.2868 19.887 19.9803 20.7304C19.6739 21.5356 19.4823 22.4173 19.444 23.2224C19.444 23.4141 19.444 23.6442 19.444 23.8358C19.444 23.8742 19.444 23.9509 19.444 23.9892V24.1426C19.444 24.2576 19.444 24.3342 19.4823 24.4493C19.5206 24.871 19.5972 25.2544 19.7122 25.6377C19.942 26.4045 20.2868 27.0946 20.7465 27.708C21.2062 28.3214 21.7042 28.7815 22.2788 29.1649C22.8534 29.5482 23.428 29.8166 24.0409 30.0083C24.6538 30.2 25.2284 30.2767 25.7647 30.2383C25.8414 30.2383 25.918 30.2383 25.9563 30.2383C25.9946 30.2383 26.0329 30.2383 26.0712 30.2383C26.1095 30.2383 26.1478 30.2383 26.1861 30.2383C26.2627 30.2383 26.3011 30.2383 26.3777 30.2383H26.416H26.4543C26.4926 30.2383 26.5309 30.2383 26.5692 30.2383C26.6458 30.2383 26.7224 30.2 26.7607 30.2C26.8374 30.2 26.8757 30.1617 26.9523 30.1617C27.0672 30.1233 27.2204 30.085 27.3354 30.0466C27.5652 29.97 27.795 29.855 28.0249 29.7783C28.2547 29.6633 28.4463 29.5482 28.5995 29.4332C28.6378 29.3949 28.7144 29.3566 28.7527 29.3182C28.9443 29.1649 28.9826 28.8965 28.8293 28.7048C28.6761 28.5515 28.4463 28.5131 28.2547 28.5898C28.2164 28.6281 28.1781 28.6281 28.1015 28.6665C27.9483 28.7431 27.7567 28.8198 27.6035 28.8582C27.412 28.8965 27.2204 28.9732 27.0289 29.0115C26.914 29.0115 26.8374 29.0499 26.7224 29.0499C26.6841 29.0499 26.6075 29.0499 26.5692 29.0499C26.5309 29.0499 26.4543 29.0499 26.416 29.0499C26.3777 29.0499 26.3011 29.0499 26.2627 29.0499C26.1861 29.0499 26.1478 29.0499 26.0712 29.0499C26.0712 29.0499 26.0329 29.0499 26.0712 29.0499H26.0329H25.9946C25.9563 29.0499 25.9563 29.0499 25.918 29.0499C25.8797 29.0499 25.8031 29.0499 25.7647 29.0115C25.3434 28.9348 24.8837 28.8198 24.4623 28.6281C24.0409 28.4364 23.6195 28.1681 23.2748 27.823C22.8917 27.478 22.5852 27.0946 22.3171 26.6345C22.0489 26.1745 21.8957 25.6761 21.8191 25.1777C21.7808 24.9093 21.7425 24.641 21.7808 24.3726C21.7808 24.2959 21.7808 24.2192 21.7808 24.1426C21.7808 24.1809 21.7808 24.1426 21.7808 24.1426V24.1042V24.0659C21.7808 24.0275 21.7808 23.9892 21.7808 23.9509C21.7808 23.7975 21.8191 23.6825 21.8574 23.5291C22.0489 22.379 22.6235 21.2672 23.5046 20.4237C23.7345 20.1937 23.9643 20.002 24.2324 19.8487C24.5006 19.657 24.7688 19.5036 25.0369 19.3886C25.3051 19.2736 25.6115 19.1586 25.918 19.0819C26.2244 19.0052 26.5309 18.9285 26.8374 18.9285C26.9906 18.9285 27.1438 18.8902 27.297 18.8902C27.3354 18.8902 27.3737 18.8902 27.412 18.8902H27.5269H27.6035C27.6418 18.8902 27.6035 18.8902 27.6035 18.8902H27.6418H27.7567C28.1015 18.9285 28.4463 18.9669 28.7527 19.0436C29.404 19.1969 30.0552 19.4269 30.6681 19.772C31.8939 20.4621 32.9282 21.4972 33.5412 22.7624C33.8476 23.3758 34.0775 24.0659 34.1924 24.7943C34.2307 24.986 34.2307 25.1393 34.269 25.331V25.4461V25.5611C34.269 25.5994 34.269 25.6377 34.269 25.6761C34.269 25.7144 34.269 25.7528 34.269 25.7911V25.9061V26.0211C34.269 26.0978 34.269 26.2512 34.269 26.3278C34.269 26.5195 34.2307 26.7112 34.2307 26.9029C34.1924 27.0946 34.1924 27.2863 34.1541 27.478C34.1158 27.6697 34.0775 27.8614 34.0392 28.0531C33.9625 28.4364 33.8093 28.7815 33.6944 29.1649C33.4262 29.8933 33.0432 30.5834 32.5835 31.1968C31.6641 32.462 30.4 33.4971 28.9826 34.1488C28.2547 34.4555 27.5269 34.7239 26.7607 34.8389C26.3777 34.9156 25.9946 34.9539 25.6115 34.9539H25.5349H25.4583H25.3434H25.1518H25.0369C25.0752 34.9539 25.0369 34.9539 25.0369 34.9539H24.9986C24.8071 34.9539 24.5772 34.9539 24.3857 34.9156C23.5429 34.8389 22.7385 34.6856 21.934 34.4555C21.1295 34.2255 20.3634 33.9188 19.6356 33.5354C18.1799 32.7687 16.8774 31.6569 15.8431 30.3917C15.3451 29.7399 14.8854 29.0499 14.5024 28.3214C14.1193 27.593 13.8511 26.8262 13.6213 26.0595C13.3914 25.2927 13.2765 24.4876 13.2382 23.6825V23.5291V23.4908V23.4525V23.3758V23.2608V23.2224V23.1841V23.1074V22.9157V22.8774V22.8007C13.2382 22.6857 13.2382 22.609 13.2382 22.494C13.2382 22.1106 13.2765 21.6889 13.3531 21.2672C13.3914 20.8455 13.468 20.4621 13.5447 20.0404C13.6213 19.6186 13.7362 19.2353 13.8511 18.8135C14.081 18.0084 14.3491 17.2417 14.6939 16.5132C15.3834 15.0564 16.2645 13.7529 17.2988 12.7177C17.5669 12.4494 17.8351 12.2194 18.1416 11.9893C18.2565 11.8743 18.5246 11.6443 18.8311 11.4526C19.1376 11.2609 19.444 11.0692 19.7888 10.9159C19.942 10.8392 20.0952 10.7625 20.2868 10.6858C20.3634 10.6475 20.44 10.6091 20.5549 10.5708C20.6315 10.5325 20.7082 10.4941 20.8231 10.4558C21.1678 10.3024 21.5126 10.1874 21.8574 10.0724C21.934 10.0341 22.0489 10.0341 22.1255 9.99573C22.2022 9.95739 22.3171 9.95739 22.3937 9.91906C22.5852 9.88072 22.7385 9.84238 22.93 9.7657C23.0066 9.72736 23.1215 9.72736 23.1981 9.68903C23.2748 9.68903 23.3897 9.65069 23.4663 9.65069C23.5429 9.65069 23.6578 9.61235 23.7345 9.61235L23.8877 9.57401L24.0409 9.53567C24.1175 9.53567 24.2324 9.49734 24.3091 9.49734C24.424 9.49734 24.5006 9.459 24.6155 9.459C24.6921 9.459 24.8454 9.42066 24.922 9.42066C24.9986 9.42066 25.0369 9.42066 25.1135 9.38232H25.2284H25.3051H25.3817C25.4966 9.38232 25.5732 9.38232 25.6881 9.34398H25.8414C25.8414 9.34398 25.8797 9.34398 25.8414 9.34398H25.8797H25.9563C26.0329 9.34398 26.1478 9.34398 26.2244 9.34398C26.5692 9.34398 26.914 9.34398 27.2587 9.34398C27.9483 9.38232 28.6378 9.459 29.289 9.57401C30.5915 9.80404 31.8556 10.2258 32.9666 10.8008C34.0775 11.3376 35.1118 12.0277 35.9545 12.7561C35.9928 12.7944 36.0695 12.8328 36.1078 12.9094C36.1461 12.9478 36.2227 12.9861 36.261 13.0628C36.3759 13.1395 36.4525 13.2545 36.5675 13.3312C36.6824 13.4078 36.759 13.5229 36.8739 13.5995C36.9505 13.7145 37.0655 13.7912 37.1421 13.9062C37.5251 14.2896 37.8699 14.7113 38.1764 15.0947C38.7893 15.8998 39.2873 16.7049 39.6704 17.4717C39.7087 17.51 39.7087 17.5484 39.747 17.625C39.7853 17.6634 39.7853 17.7017 39.8236 17.7784C39.8619 17.8551 39.9002 17.9701 39.9768 18.0468C40.0151 18.1234 40.0534 18.2385 40.0917 18.3151C40.1301 18.3918 40.1684 18.5068 40.2067 18.5835C40.3599 18.9285 40.4748 19.2736 40.5897 19.6186C40.7813 20.1554 40.8962 20.6154 41.0111 20.9988C41.0494 21.1522 41.2027 21.2672 41.3559 21.2672C41.5474 21.2672 41.6623 21.1138 41.6623 20.9221C41.624 20.4621 41.624 19.9637 41.5857 19.3886Z" fill="url(#paint0_linear_625_10682)"/>
</g>
<defs>
<linearGradient id="paint0_linear_625_10682" x1="21.7999" y1="53.2071" x2="21.7999" y2="13.7753" gradientUnits="userSpaceOnUse">
<stop stop-color="#FCEE1F"/>
<stop offset="1" stop-color="#F15B2A"/>
</linearGradient>
<clipPath id="clip0_625_10682">
<rect width="40" height="44" fill="white" transform="translate(2)"/>
</clipPath>
</defs>
</svg>
