<svg xmlns="http://www.w3.org/2000/svg" xmlns:xlink="http://www.w3.org/1999/xlink" viewBox="0 0 91 81" fill="#fff" fill-rule="evenodd" stroke="#000" stroke-linecap="round" stroke-linejoin="round"><use xlink:href="#A" x=".5" y=".5"/><symbol id="A" overflow="visible"><path d="M89.419 40.543c.843-.814.703-2.305 0-3.119l-4.358-4.203-19.398-18.169c-.843-.814-2.109-.814-3.093 0h0c-.843.813-1.125 2.305 0 3.119l20.382 19.254c.843.813.843 2.305 0 3.119L62.149 60.475c-.844.814-.844 2.305 0 3.119h0c.843.814 2.39.678 3.092 0l19.258-18.441.141-.136 4.779-4.475zm-88.838 0c-.843-.814-.703-2.305 0-3.119l4.358-4.203 19.398-18.169c.843-.814 2.108-.814 3.093 0h0c.843.813 1.124 2.305 0 3.119L7.469 37.424c-.843.813-.843 2.305 0 3.119l20.382 19.932c.843.814.843 2.305 0 3.119h0c-.843.814-2.39.678-3.093 0L5.079 45.424l-.141-.136-4.357-4.746z" fill="#3999c6" stroke="none"/><path d="M66.928 0h-27.41L24.758 40.136l17.993.136L28.694 80 67.49 26.983H48.654z" fill="#fcd116" stroke="none"/><path d="M48.654 26.983L66.928 0H52.59L37.409 33.356l17.993.136L28.694 80 67.49 26.983z" fill="#ff8c00" opacity=".3" stroke="none"/></symbol></svg>