<?xml version="1.0" encoding="UTF-8" standalone="no"?>
<svg
   xmlns:dc="http://purl.org/dc/elements/1.1/"
   xmlns:cc="http://creativecommons.org/ns#"
   xmlns:rdf="http://www.w3.org/1999/02/22-rdf-syntax-ns#"
   xmlns:svg="http://www.w3.org/2000/svg"
   xmlns="http://www.w3.org/2000/svg"
   xmlns:sodipodi="http://sodipodi.sourceforge.net/DTD/sodipodi-0.dtd"
   xmlns:inkscape="http://www.inkscape.org/namespaces/inkscape"
   width="160"
   height="160"
   viewBox="0 0 160 160"
   fill="none"
   version="1.1"
   id="svg6"
   sodipodi:docname="langchain.svg"
   inkscape:version="0.92.5 (2060ec1f9f, 2020-04-08)">
  <metadata
     id="metadata12">
    <rdf:RDF>
      <cc:Work
         rdf:about="">
        <dc:format>image/svg+xml</dc:format>
        <dc:type
           rdf:resource="http://purl.org/dc/dcmitype/StillImage" />
        <dc:title></dc:title>
      </cc:Work>
    </rdf:RDF>
  </metadata>
  <defs
     id="defs10">
    <inkscape:perspective
       sodipodi:type="inkscape:persp3d"
       inkscape:vp_x="0 : 80 : 1"
       inkscape:vp_y="0 : 1000 : 0"
       inkscape:vp_z="160 : 80 : 1"
       inkscape:persp3d-origin="80 : 53.333333 : 1"
       id="perspective4526" />
  </defs>
  <sodipodi:namedview
     pagecolor="#ffffff"
     bordercolor="#666666"
     borderopacity="1"
     objecttolerance="10"
     gridtolerance="10"
     guidetolerance="10"
     inkscape:pageopacity="0"
     inkscape:pageshadow="2"
     inkscape:window-width="1916"
     inkscape:window-height="836"
     id="namedview8"
     showgrid="false"
     inkscape:zoom="2.95"
     inkscape:cx="-9.4893979"
     inkscape:cy="85.369701"
     inkscape:window-x="1920"
     inkscape:window-y="765"
     inkscape:window-maximized="0"
     inkscape:current-layer="svg6" />
  <rect
     width="160"
     height="160"
     fill="none"
     id="rect2" />
  <path
     inkscape:connector-curvature="0"
     style="opacity:1;fill:#a5a5a5;stroke:none;stroke-width:0.89861608"
     d="m 76.915296,81.670965 c 0.677629,-2.23783 1.352516,-4.12344 2.551854,-6.15567 0.679803,-0.40274 0.835156,-0.65886 0.990509,-0.91497 0,0 -0.08007,0.0638 0.227287,-0.0396 1.095575,-1.185801 1.883778,-2.268135 2.671981,-3.350472 0,0 -0.09611,-0.0031 0.200283,0.161895 1.282703,-0.881503 2.269033,-1.92796 3.255363,-2.974421 0,0 -0.06829,-0.0084 0.205891,-0.118994 0.7471,-0.911032 1.219997,-1.711533 1.692894,-2.512031 0,0 -0.101211,0.01446 0.220736,0.181973 1.432286,-0.88569 2.542625,-1.938889 3.652955,-2.992089 0.187595,0.101951 0.335885,0.06111 0.719396,-0.408124 1.73592,-1.252147 3.197312,-2.218712 4.658714,-3.185271 0,0 0.0935,0.193104 0.60475,0.135847 3.842561,0.152266 7.173871,0.361789 10.505191,0.571312 2.01127,-0.458958 4.02256,-0.917922 6.39192,-1.458592 -0.72885,-2.08579 -1.2356,-3.535939 -1.79492,-5.703921 -1.06573,-6.362961 1.14082,-11.235151 3.62586,-16.04049 0,0 -0.0751,-6.84e-4 0.16751,0.31066 1.90318,-1.693421 3.56378,-3.698183 5.22439,-5.702941 0,2e-6 -0.0757,-6.43e-4 0.16122,0.308385 2.18818,-1.705961 4.13951,-3.720949 6.09085,-5.735938 0,0 -0.074,0.0013 0.24225,-0.05414 4.61867,-2.45298 8.92351,-4.837717 13.97849,-2.378347 -0.33049,0.665239 -0.55631,1.106016 -1.1826,1.550886 -13.29998,-0.883709 -18.31819,9.624241 -24.99703,17.432982 -1.48966,1.741667 -2.82946,5.18993 -0.19384,8.098448 0.50357,-0.538723 0.97462,-0.80733 1.05691,-1.165298 1.79533,-7.810535 7.73612,-12.583821 13.09162,-17.731264 2.87105,-2.759514 6.3074,-4.538186 10.69748,-3.718737 0.65582,0.655792 1.14794,1.117907 1.44816,1.771885 -0.3865,0.877711 -0.58107,1.563557 -1.09232,2.153862 -2.47495,0.0976 -4.63322,0.290743 -7.14009,0.433396 -1.04875,0.836549 -1.74892,1.723589 -2.40921,2.610665 0.0399,3.6e-5 0.0393,-0.07971 -0.24197,-0.347424 -1.01848,0.835077 -1.75573,1.93787 -2.45428,3.040888 0.0386,2.25e-4 0.0383,-0.07714 -0.2487,-0.332733 -1.01993,0.839028 -1.75293,1.933655 -2.44942,3.02652 0.0365,-0.0018 0.0316,-0.07466 -0.18101,-0.356879 -1.31224,0.805691 -2.41186,1.893608 -3.47511,2.991769 0.0364,0.01024 0.0417,-0.06511 -0.24985,0.09821 -0.96268,1.734297 -1.89213,3.250372 -2.24057,4.889929 -0.45167,2.12515 0.13663,2.508017 2.97879,2.407273 0.60864,-0.0048 0.95655,0.005 1.37282,0.170552 0.20081,0.339586 0.33463,0.522539 0.38375,1.135116 -0.16998,1.304067 -0.25395,2.177536 -0.55707,3.250649 -2.33079,2.475187 -4.42394,4.768272 -6.55824,7.022399 -3.73435,3.944022 -7.49397,7.864114 -11.52433,11.5899 -0.65895,-0.188674 -1.03656,-0.173009 -1.405,-0.09834 0.009,0.059 0.12549,0.03183 0.2325,-0.299082 -0.26399,-2.011493 -0.63499,-3.692082 -1.2307,-6.390577 -1.61115,0.389909 -3.67047,0.888285 -5.889826,1.411502 -0.372854,0.147731 -0.464504,0.331158 -0.732328,0.683855 -2.174983,1.955282 -4.052614,3.801836 -6.225603,5.728617 -1.603365,1.45131 -3.039281,2.72329 -4.193599,4.21342 -2.652445,3.42411 -4.363922,7.01768 -0.867838,11.21891 0.367273,0.56485 0.711344,0.89107 1.240611,1.45025 1.196948,0.83372 2.208709,1.43448 3.223669,2.23652 0.0036,0.20129 8.98e-4,0.60389 -0.177693,0.62543 -0.05778,0.29774 0.06326,0.57395 0.440053,0.81244 0.690919,-0.29648 1.126136,-0.55523 1.868213,-0.82675 0.71644,-0.031 1.126011,-0.0492 1.740278,-0.051 0.204705,0.0165 0.608148,-0.0605 0.825316,0.14594 2.022848,-0.50244 4.309427,-0.73801 5.552317,-2.00082 5.88765,-5.98206 13.9928,-10.69934 12.41132,-21.244124 -0.30047,-2.003393 1.371,-2.577111 2.53178,0.08362 1.27923,5.574114 -0.0869,10.043424 -3.85453,13.820204 -2.85084,2.85772 -5.70509,5.71204 -8.56038,8.56532 -6.437495,6.432905 -11.454127,7.036305 -19.578012,2.55673 -0.798942,-0.44056 -2.069648,-0.0255 -3.121379,-0.007 -5.008608,-3.66914 -4.605893,-8.97552 -4.308433,-14.60143 m 8.827978,-9.312833 c -7.256864,7.340823 -8.638514,14.615973 -3.814599,18.404163 1.132616,-15.89725 11.29795,-23.340014 25.341635,-27.247162 -2.37234,-2.971147 -6.68154,-3.603552 -11.055112,-0.531894 -3.635837,2.553537 -6.70214,5.918013 -10.471924,9.374893 z"
     id="path1128" />
  <path
     inkscape:connector-curvature="0"
     style="opacity:1;fill:#9f9f9f;stroke:none;stroke-width:0.89861608"
     d="m 142.37854,25.161756 c 0.22582,-0.440777 0.45164,-0.881553 1.10117,-1.497187 2.0252,0.396684 3.62668,0.968225 5.22815,1.539765 0,-1e-6 -0.0552,-0.02213 -8e-4,0.231213 1.20234,1.205227 2.35029,2.157103 3.49825,3.108979 1.11617,1.951692 2.23234,3.903385 3.16275,6.107918 -2.3967,-1.066769 -2.13406,0.529692 -2.22057,1.911272 -0.74738,11.934671 -11.60868,24.202932 -23.22154,26.398622 -1.01172,0.191293 -1.89679,1.052366 -3.1654,1.66505 -0.98453,0.103175 -1.64435,0.143628 -2.30418,0.184081 0,-3e-6 -0.36752,-0.135849 -0.6457,-0.308584 -0.27818,-0.17273 -0.37142,-0.546212 -0.35839,-0.901564 1.26623,-2.580549 2.5194,-4.805744 3.95162,-6.991184 0.17905,0.03974 0.53802,0.116235 0.55139,0.08273 0.0134,-0.03352 -0.0562,-0.0143 0.0991,0.262437 1.24331,0.08898 2.33137,-0.09878 3.56452,-0.545407 1.00279,-0.735292 1.86047,-1.211704 3.02235,-1.650482 1.62666,-1.12666 2.9491,-2.290956 4.23508,-3.46037 -0.0365,-0.0051 -0.0323,0.06841 0.24225,-0.08457 0.73986,-0.958564 1.20517,-1.764139 1.61592,-2.575055 -0.0546,-0.0053 -0.0416,0.103535 0.2495,0.252928 1.32813,-0.902397 2.36518,-1.954188 3.5898,-3.049465 0.43093,-0.192744 0.54713,-0.41001 0.74003,-0.818234 0.3142,-0.396188 0.42447,-0.669427 0.61639,-1.248363 0.37044,-1.069122 0.6592,-1.832545 0.97017,-2.895105 0.9063,-4.444808 -1.07088,-7.032437 -4.59467,-8.777906 0.19458,-0.685849 0.38915,-1.371695 1.09008,-2.193612 2.73718,1.402875 4.96799,2.941818 7.20222,4.475385 0.47692,-3.76125 -2.08373,-6.618449 -8.23292,-9.205306 0.004,-0.0055 0.0135,-0.01798 0.0135,-0.01798 z"
     id="path1130" />
  <path
     inkscape:connector-curvature="0"
     style="opacity:1;fill:#e50a08;stroke:none;stroke-width:0.89861608"
     d="m 17.558692,69.117589 c -2.021711,-6.681421 -4.577715,-13.303644 -1.071225,-20.327144 0.530616,-1.062825 0.210721,-2.550277 0.295695,-4.213106 0.01146,-0.371792 -0.06707,-0.449315 0.249309,-0.378165 2.087704,-0.630792 3.859029,-1.332738 5.879057,-1.749799 0.446281,2.123785 0.481352,3.999682 0.889134,5.790727 0.375018,1.647112 1.151146,3.202897 1.858439,5.163114 0.185218,0.605325 0.262574,0.846446 0.236669,1.412017 -0.136148,2.201448 -0.169033,4.078452 -0.357765,6.163509 0.265742,1.101098 0.687331,1.994144 1.250842,3.20084 0.253369,0.992062 0.364815,1.670473 0.220876,2.51547 -1.665864,1.612431 -3.07634,3.058274 -4.756374,4.405691 -1.642134,-0.747286 -3.014714,-1.396149 -4.478455,-2.100702 -0.09116,-0.05569 -0.216202,0.117548 -0.216202,0.117548 z"
     id="path1132" />
  <path
     inkscape:connector-curvature="0"
     style="opacity:1;fill:#944634;stroke:none;stroke-width:0.89861608"
     d="m 55.11408,77.241525 c 0.75179,0.46792 1.503573,0.93585 2.183185,1.82779 -0.131257,1.51617 -0.190334,2.60829 -0.265824,3.67288 -0.01641,-0.0276 0.04712,-0.0189 -0.329384,-0.0756 -1.641083,-0.0156 -2.905667,0.0253 -4.581508,0.0216 -2.06283,0.20112 -3.714389,0.44698 -5.723115,0.6152 -4.214107,-1.62183 -7.692614,-0.32416 -11.12024,1.3556 -2.55362,-1.03383 -5.107235,-2.06765 -7.594839,-3.62366 1.18657,-2.67106 2.307126,-4.81997 3.757525,-6.86035 3.022929,1.03103 5.716021,1.95356 8.719131,3.04009 1.708259,0.34596 3.106499,0.52793 4.725721,0.73866 0.351588,-4.0229 0.657614,-7.524507 0.963644,-11.026112 0.665914,3.179823 1.331827,6.359647 2.110656,10.078642 1.003961,0.0627 2.403212,0.15021 4.514664,0.25068 1.354923,0.004 1.997657,-0.006 2.640384,-0.0156 z"
     id="path1134" />
  <path
     inkscape:connector-curvature="0"
     style="opacity:1;fill:#9d9d9d;stroke:none;stroke-width:0.89861608"
     d="m 81.357209,96.534565 c 0.918251,-0.28007 2.188957,-0.69506 2.987899,-0.2545 8.123885,4.479565 13.140517,3.876175 19.578012,-2.55673 2.85529,-2.85327 5.70954,-5.70759 8.56038,-8.56533 3.76764,-3.77677 5.13376,-8.24607 4.04225,-13.971834 0.59734,-0.986828 1.02222,-1.471532 1.6301,-1.62351 0.67665,4.096549 1.17029,7.860374 1.66394,11.624204 -0.40758,0.73235 -0.81514,1.46471 -1.77425,2.38517 -0.96957,1.33502 -1.38758,2.48194 -1.8056,3.62886 0,0 0.0951,0.002 -0.14625,-0.30949 -0.70217,0.20114 -1.16298,0.71386 -1.62379,1.22658 0,0 0.0208,-0.0683 -0.22857,-0.004 -0.98761,0.94431 -1.72579,1.82475 -2.46397,2.70518 0,0 0.0189,-0.0684 -0.22974,-0.004 -0.98807,0.9433 -1.72748,1.82165 -2.46689,2.70001 0,0 0.0148,-0.0721 -0.24349,0.003 -2.19545,2.1416 -4.13257,4.2086 -6.06968,6.27561 0,0 0.0969,4e-4 -0.26386,-0.079 -6.367024,2.975515 -12.379664,2.017445 -18.394092,-0.0506 -0.872979,-0.9557 -1.745949,-1.91138 -2.752399,-3.12925 z"
     id="path1136" />
  <path
     inkscape:connector-curvature="0"
     style="opacity:1;fill:#2095b6;stroke:none;stroke-width:0.89861608"
     d="m 48.843156,100.68655 c -4.328172,3.23066 -8.735547,1.83124 -9.754937,-3.117095 -0.356157,-1.72889 -0.626708,-3.47541 -0.630822,-5.65427 0.996039,-2.07954 1.686547,-3.7187 1.980484,-4.41646 2.921558,0.50081 5.382157,0.92261 7.842752,1.34439 1.68809,2.75511 3.376182,5.51023 4.954272,8.83045 -1.237797,0.77483 -2.430422,0.83003 -3.464277,1.26371 -0.470894,0.19754 -0.628024,1.143045 -0.927472,1.749275 z"
     id="path1138" />
  <path
     inkscape:connector-curvature="0"
     style="opacity:1;fill:#cc1311;stroke:none;stroke-width:0.89861608"
     d="m 39.061584,41.429166 c 0.42403,0.965497 0.51232,1.914015 0.398592,3.199291 -2.675226,0.629515 -5.148436,0.922272 -7.621249,0.807535 -0.426759,-3.943579 1.344031,-8.004614 -2.403304,-11.084158 -0.348368,-2.427147 -0.759101,-4.502958 -1.199809,-6.921424 -1.267498,-1.278745 -2.410852,-2.397103 -3.769379,-3.098988 -1.323712,-0.683899 -2.867555,-0.941732 -3.924591,-1.433107 1.695039,0.01798 2.999916,0.08243 4.447206,0.185057 0.436759,-0.09904 0.590306,-0.332761 0.603055,-0.662982 2.24424,0.470761 4.488477,0.941522 7.678693,1.610714 1.317128,5.356648 2.741262,11.198604 4.235412,17.022597 0.05386,0.209974 0.797478,0.242996 1.555374,0.375465 z"
     id="path1140" />
  <path
     inkscape:connector-curvature="0"
     style="opacity:1;fill:#959595;stroke:none;stroke-width:0.89861608"
     d="m 127.08525,64.564671 c 0.94391,-0.549967 1.82898,-1.41104 2.8407,-1.602333 11.61286,-2.19569 22.47416,-14.463951 23.22154,-26.398622 0.0865,-1.38158 -0.17613,-2.978041 2.28432,-1.603694 0.59517,1.861957 0.94085,3.669182 1.28389,5.831033 -0.58278,1.684554 -1.16291,3.014478 -2.03587,4.774603 -0.75778,1.266928 -1.2227,2.103653 -1.68762,2.94038 -0.28839,-0.0015 -0.51041,0.119057 -0.97127,0.713257 -0.8424,1.184381 -1.37962,2.017347 -1.91683,2.850315 -2.80513,2.776138 -5.61028,5.552272 -8.80978,8.676251 -0.81045,0.644131 -1.22655,0.94042 -1.64266,1.236708 -0.27558,0.09646 -0.51127,0.252992 -1.03147,0.738599 -0.48646,0.543998 -0.64849,0.818978 -0.81051,1.093961 0,0 0.0875,-0.05539 -0.29187,-0.03758 -2.35233,0.605632 -4.32525,1.193461 -6.29817,1.781285 0,0 -0.29575,-0.06335 -0.74876,6.35e-4 -1.43057,-0.28894 -2.40809,-0.641867 -3.38564,-0.994794 z"
     id="path1142" />
  <path
     inkscape:connector-curvature="0"
     style="opacity:1;fill:#d8b8a2;stroke:none;stroke-width:0.89861608"
     d="M 12.232734,43.063459 C 8.7147791,39.434424 8.8125835,35.437832 11.499066,31.046617 c 2.317888,-0.283515 4.166102,-0.387814 6.323546,-0.488044 1.58976,0.936249 2.870292,1.868429 3.972806,3.041725 -2.558973,3.302613 -4.93993,6.36411 -7.600332,9.392054 -0.840414,0.0013 -1.401383,0.03622 -1.962352,0.07111 z"
     id="path1144" />
  <path
     inkscape:connector-curvature="0"
     style="opacity:1;fill:#e60e0d;stroke:none;stroke-width:0.89861608"
     d="m 17.513382,30.554504 c -1.848214,0.104299 -3.696428,0.208598 -5.843782,0.191414 0.04078,-2.351086 0.380699,-4.580692 0.724742,-6.83734 1.712037,-0.457359 3.4693,-0.9268 5.853902,-1.271333 1.052706,0.185787 1.478073,0.246668 1.90344,0.307548 1.447196,0.444897 2.991039,0.70273 4.314751,1.386629 1.358527,0.701885 2.501881,1.820243 3.435676,3.039815 -5.75565,-2.510233 -9.518718,-1.428221 -10.388729,3.183267 z"
     id="path1146" />
  <path
     inkscape:connector-curvature="0"
     style="opacity:1;fill:#1e4d8e;stroke:none;stroke-width:0.89861608"
     d="m 48.239035,88.809455 c -2.418997,-0.38812 -4.879596,-0.80992 -7.801154,-1.31073 -0.293937,0.69776 -0.984445,2.33692 -1.989702,4.05261 -1.17534,-2.05569 -2.035929,-4.18792 -3.033751,-6.60619 3.290392,-1.96579 6.768899,-3.26347 11.026185,-1.57659 0.400346,0.1427 0.542647,0.22475 0.436327,0.50146 -0.140698,0.47131 -0.175073,0.66593 -0.259017,0.87791 -0.04957,0.0173 0.04375,0.23482 0.07729,0.60045 0.487554,1.38318 0.941568,2.40074 1.395583,3.4183 0,0 0.106644,0.009 0.148239,0.0428 z"
     id="path1148" />
  <path
     inkscape:connector-curvature="0"
     style="opacity:1;fill:#ba7b6b;stroke:none;stroke-width:0.89861608"
     d="m 31.110035,74.066565 c -1.120554,2.14891 -2.24111,4.29783 -3.601988,6.67008 -2.365103,-0.62738 -4.489882,-1.47811 -7.033606,-2.61596 -0.418941,-0.28713 -0.551195,-0.69417 -0.375222,-0.80789 0.427621,-0.24814 0.620848,-0.44101 0.807789,-1.0094 0.658775,-1.08224 1.265417,-1.84741 2.231893,-2.595098 2.864747,0.16278 5.369654,0.308068 7.89053,0.421268 0.01597,-0.0321 0.08061,-0.063 0.08061,-0.063 z"
     id="path1150" />
  <path
     inkscape:connector-curvature="0"
     style="opacity:1;fill:#9a5235;stroke:none;stroke-width:0.89861608"
     d="m 13.062681,68.269789 c 1.271921,0.317383 2.543842,0.634771 4.155886,0.89998 0.340125,-0.05218 0.465166,-0.225417 0.386066,0.14686 -0.411764,1.945488 -0.744427,3.518701 -1.413269,5.121526 -1.009725,0.0723 -1.68327,0.11505 -2.356816,0.15775 0,0 0.05133,-0.009 -0.09326,-0.2721 -2.479692,-1.877201 -6.8336158,-1.374715 -6.2320166,-6.068376 0,0 -0.062921,-0.0053 0.3381555,0.02036 2.0058001,0.0151 3.6105251,0.0046 5.2152511,-0.006 z"
     id="path1152" />
  <path
     inkscape:connector-curvature="0"
     style="opacity:1;fill:#c6836e;stroke:none;stroke-width:0.89861608"
     d="m 16.527544,74.408545 c 0.332662,-1.573215 0.665325,-3.146428 1.168249,-5.036225 1.542842,0.332274 2.915422,0.981137 4.629597,2.034063 0.378956,1.030849 0.416316,1.657639 0.453675,2.284426 -0.60664,0.765176 -1.213282,1.530346 -2.118,2.553776 -0.859521,0.47583 -1.420963,0.69342 -2.238647,0.92952 -0.426803,0.003 -0.597364,-0.0127 -0.767927,-0.0282 -0.20732,-0.2399 -0.41464,-0.4798 -0.847017,-1.12071 -0.243348,-0.80621 -0.261638,-1.21143 -0.27993,-1.61664 z"
     id="path1154" />
  <path
     inkscape:connector-curvature="0"
     style="opacity:1;fill:#040404;stroke:none;stroke-width:0.89861608"
     d="m 148.96711,24.917554 c -1.86072,-0.28476 -3.4622,-0.856301 -5.3827,-1.477447 -5.47872,-2.284514 -9.78356,0.100224 -14.40286,2.590162 0.68898,-1.035851 1.49258,-2.779419 2.73497,-3.187713 5.96218,-1.959365 11.95808,-2.779787 17.05059,2.074998 z"
     id="path1156" />
  <path
     inkscape:connector-curvature="0"
     style="opacity:1;fill:#010101;stroke:none;stroke-width:0.89861608"
     d="m 119.98133,81.033905 c -0.65519,-3.61087 -1.14883,-7.374695 -1.79053,-11.809446 -0.23154,-1.117206 -0.31504,-1.563488 -0.39853,-2.009772 4.25675,3.470596 2.77105,8.249188 2.81161,13.056198 -0.0729,0.39265 -0.46102,0.61006 -0.62255,0.76302 z"
     id="path1162" />
  <path
     inkscape:connector-curvature="0"
     style="opacity:1;fill:#ac9486;stroke:none;stroke-width:0.89861608"
     d="m 7.1901996,68.323244 c -0.2825249,4.625846 4.0713994,4.12336 6.5507694,6.026631 -1.539761,0.0157 -3.25523,-0.13479 -4.9010945,-0.556783 C 5.6603946,72.977877 5.0578411,71.092273 7.1901996,68.323244 Z"
     id="path1164" />
  <path
     inkscape:connector-curvature="0"
     style="opacity:1;fill:#a46972;stroke:none;stroke-width:0.89861608"
     d="m 49.031356,100.40101 c 0.111248,-0.32069 0.268378,-1.266195 0.739272,-1.463735 1.033855,-0.43368 2.22648,-0.48888 3.489741,-0.96131 0.446284,0.48521 0.75711,1.23312 0.650912,2.318295 -1.25214,0.60902 -2.087257,0.88077 -2.92237,1.15253 -0.589785,-0.44378 -1.179571,-0.88755 -1.957555,-1.04578 z"
     id="path1172" />
  <path
     inkscape:connector-curvature="0"
     style="opacity:1;fill:#010101;stroke:none;stroke-width:0.89861608"
     d="m 57.837653,82.840175 c -2.13132,3.38977 -5.459981,0.82541 -8.536723,1.62207 -0.425771,-0.009 -0.408927,0.0544 -0.271486,-0.2591 1.258719,-0.46637 2.380004,-0.61922 3.857271,-0.71639 1.634603,-0.21736 2.913229,-0.4904 4.191846,-0.76346 0,0 -0.06353,-0.009 0.149767,0.0424 0.213309,0.0511 0.609325,0.0744 0.609325,0.0744 z"
     id="path1174" />
  <path
     inkscape:connector-curvature="0"
     style="opacity:1;fill:#ac9486;stroke:none;stroke-width:0.89861608"
     d="m 13.007328,67.974177 c -1.549373,0.30616 -3.1540985,0.316711 -5.1594502,0.270047 0.9954609,-1.94243 2.0475804,-2.039613 5.1594502,-0.270047 z"
     id="path1176" />
  <path
     inkscape:connector-curvature="0"
     style="opacity:1;fill:#e29e9e;stroke:none;stroke-width:0.89861608"
     d="m 20.541844,22.898315 c -0.815527,-0.01441 -1.240894,-0.07529 -1.93336,-0.317068 1.56324,-0.444935 3.39358,-0.708967 5.627058,-0.571433 0.472458,0.612838 0.541778,0.824112 0.611097,1.035386 -1.304879,-0.06446 -2.609756,-0.128909 -4.304795,-0.146885 z"
     id="path1180" />
  <path
     inkscape:connector-curvature="0"
     style="opacity:1;fill:#d88e90;stroke:none;stroke-width:0.89861608"
     d="m 46.667492,84.730555 c 0.03437,-0.19461 0.06875,-0.38923 0.436858,-0.73352 0.562618,0.10827 0.791506,0.36625 0.991859,0.94752 0.01847,0.96885 0.06546,1.61442 0.112468,2.26 -0.06287,0.34845 -0.125727,0.69689 -0.153237,1.30373 -0.418659,-0.75917 -0.872673,-1.77673 -1.331456,-3.21981 -0.0048,-0.42555 -0.0565,-0.55792 -0.0565,-0.55792 z"
     id="path1182" />
  <path
     inkscape:connector-curvature="0"
     style="opacity:1;fill:#501506;stroke:none;stroke-width:0.89861608"
     d="m 12.245255,43.369966 c 0.548448,-0.341393 1.109417,-0.376281 2.258181,-0.297065 1.129415,0.427777 1.671035,0.74145 2.212654,1.055123 0,0 0.07853,0.07752 0.05746,0.129254 -1.519306,-0.159115 -3.017539,-0.369961 -4.528293,-0.887312 z"
     id="path1190" />
  <path
     inkscape:connector-curvature="0"
     style="opacity:1;fill:#da7c16;stroke:none;stroke-width:0.89861608"
     d="m 17.630072,77.454665 c 0.194982,-0.2932 0.365543,-0.27763 0.998722,-0.23604 0.739297,0.0894 1.016575,0.15001 1.294452,0.20789 0,0 0.132254,0.40704 0.244135,0.58892 -0.77932,0.0372 -1.670523,-0.10737 -2.537309,-0.56077 z"
     id="path1192" />
  <path
     inkscape:connector-curvature="0"
     style="opacity:1;fill:#b5a698;stroke:none;stroke-width:0.89861608"
     d="m 57.880584,82.615815 c -0.04293,0.22436 -0.438947,0.20102 -0.635842,0.17747 -0.137811,-1.11568 -0.07874,-2.2078 0.231324,-3.52003 0.416147,0.37829 0.581312,0.97667 0.976781,1.78187 -0.02291,0.58333 -0.276115,0.95984 -0.572263,1.56069 z"
     id="path1194" />
  <path
     inkscape:connector-curvature="0"
     style="opacity:1;fill:#d1a1a3;stroke:none;stroke-width:0.89861608"
     d="m 51.129501,101.49107 c 0.694523,-0.31604 1.52964,-0.58779 2.721997,-0.87448 -0.62231,0.2963 -1.60186,0.60754 -2.721997,0.87448 z"
     id="path1196" />
  <path
     inkscape:connector-curvature="0"
     style="opacity:1;fill:#ac9486;stroke:none;stroke-width:0.89861608"
     d="m 16.191365,74.438155 c 0.354471,0.3756 0.372761,0.78081 0.39817,1.48916 -0.845016,-0.064 -1.697155,-0.4311 -2.65214,-1.06481 0.570699,-0.3093 1.244244,-0.35202 2.25397,-0.42435 z"
     id="path1198" />
  <path
     inkscape:connector-curvature="0"
     style="opacity:1;fill:#640000;stroke:none;stroke-width:0.89861608"
     d="m 48.471093,87.042235 c -0.309417,-0.48326 -0.356418,-1.12883 -0.185343,-2.13965 0.21808,-0.36523 0.606253,-0.38594 0.606253,-0.38594 0,0 -0.01684,-0.0633 0.009,-0.0829 -0.0386,0.80238 -0.103058,1.62429 -0.429941,2.60849 z"
     id="path1200" />
  <path
     inkscape:connector-curvature="0"
     style="opacity:1;fill:#d85353;stroke:none;stroke-width:0.89861608"
     d="m 24.98905,23.083372 c -0.21173,-0.249446 -0.28105,-0.46072 -0.389894,-1.003193 0.250514,-0.259156 0.540549,-0.187111 0.911765,0.112572 0.06844,0.55786 -0.08512,0.791578 -0.521871,0.890621 z"
     id="path1202" />
  <path
     inkscape:connector-curvature="0"
     style="opacity:1;fill:#989898;stroke:none;stroke-width:0.89861608"
     d="m 117.76921,66.890835 c 0.10655,0.770136 0.19005,1.216418 0.23859,2.000901 -0.45983,0.822903 -0.88471,1.307607 -1.49733,1.943954 -1.33322,-2.158599 -3.00469,-1.584881 -2.70422,0.418512 1.58148,10.544793 -6.52367,15.262063 -12.41132,21.244123 -1.24289,1.26281 -3.529469,1.49838 -5.419645,1.69882 0.741179,-1.49163 1.566872,-2.47481 2.35778,-3.44417 -0.03478,0.0138 -0.01402,0.0863 0.294027,0.32999 0.729667,-0.55045 1.151253,-1.34456 1.526798,-2.13766 -0.046,9e-4 -0.047,0.0931 0.22579,0.25418 0.43163,-0.21759 0.59049,-0.59624 1.00602,-1.12941 2.20075,-2.17684 4.14483,-4.19914 6.36089,-6.37445 1.19189,-2.15575 2.11181,-4.15848 3.03174,-6.16123 -1.15909,-0.31105 -2.31818,-0.62212 -3.49801,-1.12242 -0.0208,-0.18926 -0.004,-0.569686 -0.004,-0.569686 3.74902,-3.930118 7.50865,-7.85021 11.243,-11.794233 2.1343,-2.254126 4.22745,-4.547211 6.85549,-7.021384 0.91268,-0.197433 1.30899,-0.196233 1.71833,0.06614 0.0256,0.435143 0.0382,0.609119 0.064,0.957545 0.0132,0.174456 0.0682,0.520034 0.0682,0.52003 -1.2532,2.225191 -2.50637,4.450386 -3.96549,6.993125 -0.20591,0.317548 -0.59437,0.377627 -0.59437,0.377627 -1.63962,0.875281 -3.27923,1.750563 -4.8958,2.949697 z"
     id="path1206" />
  <path
     inkscape:connector-curvature="0"
     style="opacity:1;fill:#cf1e1d;stroke:none;stroke-width:0.89861608"
     d="m 31.83853,45.843486 c 2.47321,-0.292757 4.94642,-0.585514 7.722577,-0.98596 0.302949,-0.10769 0.372481,-0.06522 0.480589,0.178167 0.346089,0.426361 0.584075,0.609329 0.822056,0.792299 0,0 -0.04048,-0.01168 -0.03948,0.277362 0.349366,0.714768 0.697721,1.140492 1.046076,1.566216 1.137575,5.107396 2.275147,10.214796 3.054768,15.662686 -3.208577,-1.109201 -6.059196,-2.558901 -8.892238,-4.222515 -0.452661,-0.303644 -0.9229,-0.393375 -1.703043,-0.515657 -1.025557,-0.41124 -1.741209,-0.789933 -2.652759,-1.398643 -2.023278,-1.055558 -3.850666,-1.881108 -5.678054,-2.706654 -0.07735,-0.241125 -0.154707,-0.482246 -0.330879,-1.431751 1.104406,-2.870728 2.307633,-5.033072 3.842628,-7.198914 0.997097,-0.0079 1.662428,-0.01226 2.327755,-0.01663 z"
     id="path1222" />
  <path
     inkscape:connector-curvature="0"
     style="opacity:1;fill:#1b4181;stroke:none;stroke-width:0.89861608"
     d="m 45.735021,66.81903 c -0.192675,3.610315 -0.498701,7.111925 -0.850289,11.134815 -1.619222,-0.21072 -3.017462,-0.39268 -4.721821,-1.05552 -1.463109,-3.828757 -2.620101,-7.176649 -3.438996,-10.605968 3.001107,-0.19372 5.664119,-0.306006 8.327131,-0.418295 0.19021,0.278753 0.380417,0.557504 0.683975,0.944968 z"
     id="path1224" />
  <path
     inkscape:connector-curvature="0"
     style="opacity:1;fill:#e3a810;stroke:none;stroke-width:0.89861608"
     d="m 45.143491,65.530824 c -2.755457,0.455527 -5.418469,0.567813 -8.546537,0.545915 -0.970836,-0.556994 -1.476612,-0.979804 -2.043291,-1.653245 -0.387796,-0.09306 -0.714692,0.06451 -1.341588,0.207 -1.082064,-0.945322 -1.864122,-1.875564 -2.555636,-3.189 0.465876,-1.593471 0.841205,-2.803756 1.216539,-4.014038 0.715652,0.378695 1.431304,0.757388 2.595488,1.309479 0.814627,0.311841 1.180732,0.450282 1.546833,0.58872 2.850625,1.4497 5.701244,2.8994 8.860513,4.39877 0.325806,0.52084 0.342967,0.991997 0.267679,1.806399 z"
     id="path1226" />
  <path
     inkscape:connector-curvature="0"
     style="opacity:1;fill:#030303;stroke:none;stroke-width:0.89861608"
     d="m 108.99047,59.752291 c -3.24869,0.108473 -6.58,-0.10105 -10.323587,-0.294694 2.146337,-2.772436 6.541727,-2.788598 10.323587,0.294694 z"
     id="path1228" />
  <path
     inkscape:connector-curvature="0"
     style="opacity:1;fill:#b9aba3;stroke:none;stroke-width:0.89861608"
     d="m 55.036087,76.965465 c -0.564734,0.28558 -1.207468,0.29509 -2.171674,0.27479 0.483574,-0.20348 1.288635,-0.37716 2.171674,-0.27479 z"
     id="path1240" />
  <path
     inkscape:connector-curvature="0"
     style="opacity:1;fill:#c23f3f;stroke:none;stroke-width:0.89861608"
     d="m 41.854432,47.422694 c -0.332435,-0.176848 -0.68079,-0.602572 -1.011176,-1.326651 0.343734,0.160357 0.669496,0.619067 1.011176,1.326651 z"
     id="path1242" />
  <path
     inkscape:connector-curvature="0"
     style="opacity:1;fill:#c23f3f;stroke:none;stroke-width:0.89861608"
     d="m 40.794195,45.599279 c -0.168424,0.04574 -0.40641,-0.137225 -0.751276,-0.522865 0.155983,-0.03707 0.418855,0.128541 0.751276,0.522865 z"
     id="path1244" />
  <path
     inkscape:connector-curvature="0"
     style="opacity:1;fill:#b5b5b5;stroke:none;stroke-width:0.89861608"
     d="m 85.968871,72.132326 c 3.544187,-3.231071 6.61049,-6.595547 10.246327,-9.149085 4.373572,-3.071657 8.682772,-2.439253 11.055112,0.531895 C 93.226625,67.422284 83.061291,74.865055 81.928675,90.762295 77.10476,86.974105 78.48641,79.698955 85.968871,72.132326 Z"
     id="path1252" />
  <path
     inkscape:connector-curvature="0"
     style="opacity:1;fill:#b6b6b6;stroke:none;stroke-width:0.89861608"
     d="m 141.46952,27.888304 c -4.22639,-0.625772 -7.66274,1.1529 -10.53379,3.912413 -5.3555,5.147443 -11.29629,9.920729 -13.09162,17.731265 -0.0823,0.357967 -0.55334,0.626574 -1.05691,1.165297 -2.63562,-2.908518 -1.29582,-6.35678 0.19384,-8.098447 6.67884,-7.808741 11.69705,-18.316692 24.99703,-17.432984 0.40047,-0.0041 0.39093,0.0084 0.37915,0.309344 -0.30376,1.004963 -0.59574,1.709037 -0.8877,2.413112 z"
     id="path1256" />
  <path
     inkscape:connector-curvature="0"
     style="opacity:1;fill:#adadad;stroke:none;stroke-width:0.89861608"
     d="m 141.63321,28.08198 c 0.12827,-0.897751 0.42025,-1.601825 0.72012,-2.601352 6.16096,2.285967 8.72161,5.143167 8.24469,8.904416 -2.23423,-1.533567 -4.46504,-3.07251 -7.0103,-4.667248 -0.80657,-0.517908 -1.29869,-0.980023 -1.95451,-1.635816 z"
     id="path1258" />
  <path
     inkscape:connector-curvature="0"
     style="opacity:1;fill:#080808;stroke:none;stroke-width:0.89861608"
     d="m 92.649138,74.571095 c -1.287141,1.94434 -2.574274,3.88868 -4.144147,6.39238 -4.381814,2.32001 -1.639948,5.47402 -1.811026,8.25314 -0.0054,0.2173 -0.03496,0.65102 -0.03496,0.65102 -3.47289,-3.96261 -1.761413,-7.55617 0.891032,-10.98029 1.154318,-1.49013 2.590234,-2.76211 4.346319,-4.21439 0.448068,-0.0812 0.752815,-0.10186 0.752815,-0.10186 z"
     id="path1260" />
  <path
     inkscape:connector-curvature="0"
     style="opacity:1;fill:#020202;stroke:none;stroke-width:0.89861608"
     d="m 98.367841,90.739165 c -0.825684,0.98317 -1.651377,1.96635 -2.609725,3.25153 -0.132671,0.30202 -0.536114,0.37905 -0.855877,0.10083 -0.868198,-0.31957 -1.416642,-0.36091 -2.257135,-0.49078 -0.695332,-0.062 -1.098594,-0.0355 -1.501857,-0.009 -1.011761,-0.60076 -2.023522,-1.20152 -3.0159,-2.18285 0.146493,-0.49039 0.27362,-0.60024 0.701289,-0.56623 3.439786,2.29087 6.500939,1.5209 9.539205,-0.10351 z"
     id="path1264" />
  <path
     inkscape:connector-curvature="0"
     style="opacity:1;fill:#9d9d9d;stroke:none;stroke-width:0.89861608"
     d="m 91.146446,93.793025 c 0.400064,-0.22778 0.803326,-0.2543 1.502764,-0.0102 0.296175,0.27062 0.320941,0.63408 0.320941,0.63407 -0.435209,0.25876 -0.870426,0.51751 -1.562559,0.59605 -0.256932,-0.18022 -0.259969,-0.61604 -0.259969,-0.61604 0,0 0.0018,-0.4026 -8.99e-4,-0.60389 z"
     id="path1282" />
  <path
     inkscape:connector-curvature="0"
     style="opacity:1;fill:#020202;stroke:none;stroke-width:0.89861608"
     d="m 86.682166,90.106265 c -0.02318,-0.23863 0.0063,-0.67235 0.266547,-0.83458 0.69995,0.36757 1.13967,0.89736 1.579381,1.42714 -0.127127,0.10983 -0.254254,0.21968 -0.585952,0.47713 -0.548632,-0.17861 -0.892703,-0.50484 -1.259976,-1.06969 z"
     id="path1284" />
  <path
     inkscape:connector-curvature="0"
     style="opacity:1;fill:#989898;stroke:none;stroke-width:0.89861608"
     d="m 93.277019,94.404165 c -0.306868,0.0128 -0.331634,-0.3507 -0.33574,-0.5328 0.544318,-0.14075 1.092762,-0.0994 1.756273,0.20363 -0.294522,0.27993 -0.704093,0.29817 -1.420533,0.32917 z"
     id="path1286" />
  <path
     inkscape:connector-curvature="0"
     style="opacity:1;fill:#989898;stroke:none;stroke-width:0.89861608"
     d="m 90.968753,94.418465 c 0.17887,-0.0216 0.181907,0.41428 0.18312,0.63222 -0.119848,-0.0582 -0.240928,-0.33447 -0.18312,-0.63222 z"
     id="path1288" />
  <path
     inkscape:connector-curvature="0"
     style="opacity:1;fill:#0d439d;stroke:none;stroke-width:0.89861608"
     d="m 34.614564,64.674125 c 0.505778,0.42281 1.011554,0.84562 1.644292,1.484048 1.283954,3.563503 2.440946,6.911395 3.594038,10.576152 -2.696993,-0.60566 -5.390085,-1.52818 -8.413018,-2.55923 -0.329841,-0.10853 -0.394481,-0.0776 -0.394093,-0.40227 -1.259967,-2.631238 -2.520321,-4.937798 -3.780674,-7.244362 -0.111447,-0.678408 -0.222893,-1.356819 -0.368906,-2.676977 -0.04535,-1.099614 -0.05612,-1.557478 0.279323,-1.998576 1.360937,0.0018 2.375654,-0.01323 3.390368,-0.02823 0.782059,0.930246 1.564117,1.860488 2.921743,2.832353 0.759352,0.03345 0.943138,0.02526 1.126927,0.01709 z"
     id="path1304" />
  <path
     inkscape:connector-curvature="0"
     style="opacity:1;fill:#4b3635;stroke:none;stroke-width:0.89861608"
     d="m 17.032471,44.199174 c -0.858,-0.384823 -1.39962,-0.698496 -2.249588,-1.092718 2.072605,-3.142048 4.453562,-6.203545 7.298403,-9.355243 1.119715,1.707276 1.775543,3.504749 2.327714,5.467735 -0.258738,0.516405 -0.413819,0.8673 -0.789251,1.37178 -0.465875,0.626977 -0.711399,1.100368 -0.956925,1.57376 -1.771324,0.701948 -3.542649,1.403894 -5.630353,2.034686 z"
     id="path1306" />
  <path
     inkscape:connector-curvature="0"
     style="opacity:1;fill:#dc0503;stroke:none;stroke-width:0.89861608"
     d="m 22.911528,42.449373 c -0.0031,-0.758277 0.242346,-1.231668 1.008222,-1.864069 1.182361,-0.764823 1.844373,-1.370641 2.635533,-2.227869 0.535744,-0.632404 0.942344,-1.013398 1.510687,-1.005378 0.478843,3.096529 0.795938,5.804048 1.113037,8.511565 -1.203227,2.162342 -2.406454,4.324686 -3.618724,6.831212 -0.608475,-1.251835 -1.384603,-2.80762 -1.759621,-4.454732 -0.407782,-1.791045 -0.442853,-3.666942 -0.889134,-5.790729 z"
     id="path1308" />
  <path
     inkscape:connector-curvature="0"
     style="opacity:1;fill:#de9d15;stroke:none;stroke-width:0.89861608"
     d="m 30.656439,61.441494 c -1.105259,0.398191 -2.119976,0.413188 -3.586336,0.249294 -0.759849,-0.42596 -1.06805,-0.673029 -1.37625,-0.920098 0.03288,-1.877005 0.06577,-3.754009 0.201917,-5.955461 1.930644,0.501104 3.758032,1.326654 5.78131,2.382212 -0.179436,1.440297 -0.554765,2.650582 -1.020641,4.244053 z"
     id="path1310" />
  <path
     inkscape:connector-curvature="0"
     style="opacity:1;fill:#cd0f10;stroke:none;stroke-width:0.89861608"
     d="m 27.009723,66.695052 c 1.515739,2.139975 2.776093,4.446535 4.020092,7.109846 -2.52126,0.211467 -5.026167,0.06618 -7.890914,-0.0966 -0.397195,-0.644275 -0.434555,-1.271065 -0.543954,-2.203492 1.338436,-1.751479 2.748912,-3.197322 4.414776,-4.809754 z"
     id="path1312" />
  <path
     inkscape:connector-curvature="0"
     style="opacity:1;fill:#cd0f10;stroke:none;stroke-width:0.89861608"
     d="m 25.538005,60.978742 c 0.464048,0.03902 0.772249,0.286086 1.185874,0.695281 0.116201,0.619985 0.126976,1.077849 0.0304,1.863813 -0.528943,-0.56495 -0.950532,-1.457996 -1.216274,-2.559094 z"
     id="path1314" />
  <path
     inkscape:connector-curvature="0"
     style="opacity:1;fill:#af8c7f;stroke:none;stroke-width:0.89861608"
     d="m 49.029444,84.203145 c -0.137441,0.3135 -0.525614,0.33421 -0.715159,0.37616 -0.418429,-0.21602 -0.647317,-0.474 -1.103615,-0.85898 -0.22741,-0.12702 -0.369711,-0.20907 -0.412889,-0.27413 1.608379,-0.31091 3.259938,-0.55676 5.323453,-0.58353 0.411957,0.21909 0.409496,0.56839 0.409496,0.56839 -1.121282,0.15287 -2.242567,0.30572 -3.501286,0.77209 z"
     id="path1316" />
  <path
     inkscape:connector-curvature="0"
     style="opacity:1;fill:#bba89c;stroke:none;stroke-width:0.89861608"
     d="m 52.886715,83.486755 c -0.355985,-0.0557 -0.353524,-0.405 -0.354209,-0.57936 1.263884,-0.21537 2.528468,-0.25638 4.169551,-0.24075 -0.902113,0.32971 -2.180739,0.60275 -3.815342,0.82011 z"
     id="path1318" />
  <path
     inkscape:connector-curvature="0"
     style="opacity:1;fill:#e0c6c7;stroke:none;stroke-width:0.89861608"
     d="m 27.904225,36.963043 c -0.406598,0.380994 -0.813198,0.761988 -1.673751,1.445917 -0.87524,0.416784 -1.296532,0.530631 -1.71782,0.64448 -0.655825,-1.797478 -1.311653,-3.594951 -2.253347,-5.543342 -1.566403,-1.083096 -2.846935,-2.015276 -4.436695,-2.951525 0.560781,-4.615557 4.323849,-5.697569 10.109472,-2.844682 0.744438,2.134985 1.155171,4.210796 1.292371,6.741671 -0.622436,1.139203 -0.971333,1.823341 -1.32023,2.507481 z"
     id="path1320" />
  <path
     inkscape:connector-curvature="0"
     style="opacity:1;fill:#d31311;stroke:none;stroke-width:0.89861608"
     d="m 28.06597,37.352057 c 0.187152,-1.073154 0.536049,-1.757292 1.096117,-2.54516 4.020871,2.624481 2.250081,6.685516 2.67684,10.629095 -0.665724,0.411875 -1.331055,0.416252 -2.328152,0.42413 -0.648867,-2.704017 -0.965962,-5.411536 -1.444805,-8.508065 z"
     id="path1322" />
  <path
     inkscape:connector-curvature="0"
     style="opacity:1;fill:#944634;stroke:none;stroke-width:0.89861608"
     d="m 46.617923,84.747925 c 0.04957,-0.0173 0.101296,0.115 0.07252,0.17491 -0.02877,0.0599 -0.122087,-0.15753 -0.07252,-0.17491 z"
     id="path1324" />
  <path
     inkscape:connector-curvature="0"
     style="opacity:1;fill:#d8b8a2;stroke:none;stroke-width:0.89861608"
     d="m 20.099219,77.312795 c -0.45385,0.0559 -0.731128,-0.004 -1.214182,-0.11266 0.355065,-0.26213 0.916507,-0.47972 1.723896,-0.63849 0.111134,0.31014 -0.0821,0.50301 -0.509714,0.75115 z"
     id="path1326" />
  <path
     inkscape:connector-curvature="0"
     style="opacity:1;fill:#de9d15;stroke:none;stroke-width:0.89861608"
     d="m 36.032882,59.111741 c -0.383684,0.07547 -0.749789,-0.06297 -1.254516,-0.342257 0.331616,-0.05112 0.801855,0.03861 1.254516,0.342257 z"
     id="path1336" />
  <path
     inkscape:connector-curvature="0"
     style="opacity:1;fill:#1b4181;stroke:none;stroke-width:0.89861608"
     d="m 34.553663,64.423494 c -0.122888,0.258807 -0.306674,0.266986 -0.766022,0.248622 0.05133,-0.184111 0.378226,-0.341684 0.766022,-0.248622 z"
     id="path1338" />
  <path
     inkscape:connector-curvature="0"
     style="opacity:1;fill:#d31311;stroke:none;stroke-width:0.89861608"
     d="m 24.409,39.218948 c 0.524942,-0.279357 0.946234,-0.393204 1.69233,-0.558577 -0.337207,0.554292 -0.999219,1.16011 -1.961232,1.771351 -0.144917,-0.345474 0.01016,-0.696369 0.268902,-1.212774 z"
     id="path1344" />
  <ellipse
     style="opacity:1;fill:#2b0000;fill-opacity:1;stroke:#080026;stroke-width:0;stroke-miterlimit:4;stroke-dasharray:none;stroke-dashoffset:0;stroke-opacity:1"
     id="path5599"
     cx="24.080439"
     cy="29.943804"
     rx="2.2019873"
     ry="2.0326037" />
  <flowRoot
     xml:space="preserve"
     id="flowRoot5807"
     style="font-style:normal;font-weight:normal;font-size:26.66666603px;line-height:1.25;font-family:sans-serif;text-align:center;letter-spacing:0px;word-spacing:0px;text-anchor:middle;fill:#000000;fill-opacity:1;stroke:none"
     transform="translate(-0.6779661,15.254237)"><flowRegion
       id="flowRegion5809"
       style="font-size:26.66666603px;text-align:center;text-anchor:middle"><rect
         id="rect5811"
         width="154.91525"
         height="56.271187"
         x="2.7118645"
         y="98.983047"
         style="font-size:26.66666603px;text-align:center;text-anchor:middle" /></flowRegion><flowPara
       id="flowPara5813"
       style="font-weight:normal;font-size:26.66666603px">LangChain</flowPara></flowRoot></svg>
