<?xml version="1.0" encoding="UTF-8" standalone="no"?>
<svg
   version="1.1"
   viewBox="0 0 375.02844 468.21802"
   fill="none"
   stroke="none"
   stroke-linecap="square"
   stroke-miterlimit="10"
   id="svg26"
   sodipodi:docname="llamaindex.svg"
   width="375.02844"
   height="468.21802"
   inkscape:version="1.1.2 (0a00cf5339, 2022-02-04)"
   xmlns:inkscape="http://www.inkscape.org/namespaces/inkscape"
   xmlns:sodipodi="http://sodipodi.sourceforge.net/DTD/sodipodi-0.dtd"
   xmlns="http://www.w3.org/2000/svg"
   xmlns:svg="http://www.w3.org/2000/svg">
  <defs
     id="defs30" />
  <sodipodi:namedview
     id="namedview28"
     pagecolor="#ffffff"
     bordercolor="#666666"
     borderopacity="1.0"
     inkscape:pageshadow="2"
     inkscape:pageopacity="0.0"
     inkscape:pagecheckerboard="0"
     showgrid="false"
     fit-margin-top="0"
     fit-margin-left="0"
     fit-margin-right="0"
     fit-margin-bottom="0"
     inkscape:zoom="1.3927083"
     inkscape:cx="-71.802545"
     inkscape:cy="231.92222"
     inkscape:window-width="1916"
     inkscape:window-height="935"
     inkscape:window-x="0"
     inkscape:window-y="124"
     inkscape:window-maximized="1"
     inkscape:current-layer="g24"
     lock-margins="false"
     showborder="true"
     borderlayer="false" />
  <clipPath
     id="g277337fdfd8_0_0.0">
    <path
       d="M 0,0 H 960 V 540 H 0 Z"
       clip-rule="nonzero"
       id="path2" />
  </clipPath>
  <g
     clip-path="url(#g277337fdfd8_0_0.0)"
     id="g24"
     transform="translate(-306.3687,-28.340975)">
    <path
       fill="#ffffff"
       d="M 0,0 H 960 V 540 H 0 Z"
       fill-rule="evenodd"
       id="path5" />
    <path
       fill="#ffffff"
       d="M 46.540684,510.3701 H 285.7533 v 18.92911 H 46.540684 Z"
       fill-rule="evenodd"
       id="path7" />
    <defs
       id="defs18">
      <linearGradient
         id="g277337fdfd8_0_0.1"
         gradientUnits="userSpaceOnUse"
         gradientTransform="scale(24.301301)"
         spreadMethod="pad"
         x1="3.139595"
         y1="10.801466"
         x2="20.323179"
         y2="27.985113">
        <stop
           offset="0.0"
           stop-color="#fadfd6"
           id="stop9" />
        <stop
           offset="0.31"
           stop-color="#da6eaf"
           id="stop11" />
        <stop
           offset="0.64"
           stop-color="#47dff7"
           id="stop13" />
        <stop
           offset="1.0"
           stop-color="#bb88ed"
           id="stop15" />
      </linearGradient>
    </defs>
    <path
       fill="url(#g277337fdfd8_0_0.1)"
       d="m 369.38672,30.76783 c 6.53848,2.692474 23.59012,18.846458 30,29.230972 6.40988,10.384514 5.25458,20.896759 8.45932,33.07611 3.20471,12.179358 7.82019,22.179358 10.76901,40.000008 2.94882,17.82065 2.82111,56.02624 6.92389,66.92387 4.10281,10.89765 -0.51224,-1.66623 17.69293,-1.53805 18.20514,0.12817 68.33289,-4.3e-4 91.53803,2.3071 23.2052,2.30751 36.92346,7.94838 47.69293,11.53805 10.76947,3.58968 11.02667,8.33333 16.92389,10 5.89722,1.66666 11.27997,0.8972 18.45929,0 7.17938,-0.8972 16.02673,-5.76771 24.61682,-5.38321 8.59009,0.38452 20.7699,-0.002 26.92389,7.6903 6.15399,7.69203 9.74365,27.43612 10,38.46194 0.25635,11.02582 -4.4873,22.43655 -8.46197,27.6929 -3.97461,5.25635 -12.82148,-0.38583 -15.38581,3.84516 -2.56427,4.23095 0,13.72003 0,21.54068 0,7.82064 -1.53851,19.87051 0,25.38321 1.53852,5.51266 7.74366,1.53894 9.23096,7.6929 1.4873,6.15399 -1.0249,21.28216 -0.30707,29.23099 0.71784,7.94882 3.46021,11.66708 4.6142,18.46194 1.15393,6.79483 4.18152,15.38406 2.30969,22.30707 -1.87182,6.923 -12.30969,11.53851 -13.54071,19.23099 -1.23096,7.69247 6.4112,18.59054 6.15491,26.92386 -0.25635,8.33334 -2.43659,19.2301 -7.69293,23.07614 -5.25635,3.84601 -19.48645,1.66665 -23.84516,0 -4.3587,-1.66669 -3.84558,-7.30753 -2.30707,-10 1.53846,-2.69248 10.43567,2.81976 11.53803,-6.15488 1.10236,-8.97461 -0.89807,-37.30838 -4.92389,-47.6929 -4.02582,-10.38452 -15.17975,-15.51181 -19.23096,-14.61417 -4.05114,0.89765 -2.94793,12.94883 -5.07611,20 -2.12817,7.05118 -4.48773,16.15311 -7.69293,22.30707 -3.20514,6.15399 -9.3587,9.61682 -11.53802,14.61682 -2.17939,5 3.20556,12.04987 -1.53809,15.38318 -4.74365,3.33335 -21.79572,6.53983 -26.92389,4.61682 -5.12817,-1.92303 -5.12726,-12.9497 -3.84515,-16.15487 1.28216,-3.20514 6.92303,3.59054 11.53808,-3.07611 4.61505,-6.66666 13.58838,-27.30841 16.15222,-36.92389 2.56391,-9.61548 3.84601,-13.07654 -0.76904,-20.76902 -4.61505,-7.69247 -22.30621,-17.69336 -26.92126,-25.38583 -4.61499,-7.69247 3.97467,-18.46152 -0.76899,-20.76904 -4.74365,-2.30753 -17.30798,5.8981 -27.69293,6.92389 -10.38495,1.02581 -23.20648,0.38494 -34.61679,-0.76902 -11.41034,-1.15399 -28.71698,-8.71917 -33.84515,-6.15487 -5.12818,2.56433 2.69159,14.48907 3.07611,21.54068 0.38452,7.05163 0.6413,14.10238 -0.76901,20.76904 -1.41034,6.66666 -5.89807,10.00043 -7.69294,19.23096 -1.79483,9.23056 -2.56341,26.92172 -3.07611,36.15225 -0.51269,9.23053 1.53852,14.10278 0,19.23096 -1.53848,5.12817 -3.07699,9.48687 -9.23095,11.53805 -6.154,2.05118 -23.8469,3.46109 -27.69294,0.76904 -3.846,-2.69204 1.79618,-13.45974 4.61683,-16.92126 2.82064,-3.46152 10.25589,4.35739 12.30706,-3.84778 2.05118,-8.20514 1.53852,-36.92169 0,-45.38318 -1.53848,-8.46152 -7.0516,-9.61636 -9.23095,-5.38583 -2.17935,4.23053 -1.28128,21.40988 -3.84516,30.76901 -2.56387,9.35916 -7.94839,19.61636 -11.53805,25.38583 -3.58969,5.76947 -5,8.59012 -10,9.23099 -5,0.64084 -17.05118,-2.30884 -20,-5.38583 -2.94882,-3.077 -1.02625,-8.97376 2.3071,-13.07611 3.33331,-4.10239 14.35955,-0.12775 17.6929,-11.53806 3.33334,-11.41034 3.33288,-44.74411 2.3071,-56.92389 -1.02582,-12.17981 -7.56433,-6.92389 -8.46195,-16.15488 -0.89764,-9.23095 8.84512,-28.07742 3.07611,-39.23095 -5.76904,-11.15354 -28.97244,-17.04944 -37.69031,-27.69028 -8.71783,-10.64087 -12.82196,-24.74454 -14.61679,-36.15488 -1.79483,-11.41031 5.12992,-24.61459 3.84778,-32.30708 -1.28216,-7.69247 -10.0022,-5.25809 -11.54068,-13.84776 -1.53851,-8.58968 2.82239,-28.33159 2.30969,-37.6903 -0.51266,-9.3587 -4.61633,-9.61547 -5.3858,-18.46194 -0.76947,-8.84645 -0.89764,-24.74497 0.76901,-34.61679 1.66669,-9.87183 7.69248,-18.46063 9.23099,-24.61417 1.53848,-6.15355 4.10236,-10.25591 0,-12.3071 -4.10238,-2.05117 -18.58838,3.20517 -24.6142,0 -6.02578,-3.20516 -10.51486,-13.717837 -11.54068,-19.230967 -1.02578,-5.513123 1.15488,-10.642601 5.38584,-13.847763 4.23099,-3.205162 15.12817,-3.716538 20,-5.383202 4.87182,-1.666672 7.82065,-0.642174 9.23099,-4.616802 1.41031,-3.974628 0.1286,-13.718285 -0.76905,-19.230968 -0.89764,-5.512688 -6.53979,-12.307087 -4.61679,-13.845146 1.92301,-1.538057 12.43656,2.437447 16.15485,4.616799 3.71829,2.179351 3.59054,9.228783 6.15484,8.459316 2.56434,-0.769467 2.69248,-15.768591 9.23099,-13.076115 z"
       fill-rule="evenodd"
       id="path20"
       style="fill:url(#g277337fdfd8_0_0.1)" />
    <path
       stroke="#000000"
       stroke-width="4"
       stroke-linejoin="round"
       stroke-linecap="butt"
       d="m 369.38672,30.76783 c 6.53848,2.692474 23.59012,18.846458 30,29.230972 6.40988,10.384514 5.25458,20.896759 8.45932,33.07611 3.20471,12.179358 7.82019,22.179358 10.76901,40.000008 2.94882,17.82065 2.82111,56.02624 6.92389,66.92387 4.10281,10.89765 -0.51224,-1.66623 17.69293,-1.53805 18.20514,0.12817 68.33289,-4.3e-4 91.53803,2.3071 23.2052,2.30751 36.92346,7.94838 47.69293,11.53805 10.76947,3.58968 11.02667,8.33333 16.92389,10 5.89722,1.66666 11.27997,0.8972 18.45929,0 7.17938,-0.8972 16.02673,-5.76771 24.61682,-5.38321 8.59009,0.38452 20.7699,-0.002 26.92389,7.6903 6.15399,7.69203 9.74365,27.43612 10,38.46194 0.25635,11.02582 -4.4873,22.43655 -8.46197,27.6929 -3.97461,5.25635 -12.82148,-0.38583 -15.38581,3.84516 -2.56427,4.23095 0,13.72003 0,21.54068 0,7.82064 -1.53851,19.87051 0,25.38321 1.53852,5.51266 7.74366,1.53894 9.23096,7.6929 1.4873,6.15399 -1.0249,21.28216 -0.30707,29.23099 0.71784,7.94882 3.46021,11.66708 4.6142,18.46194 1.15393,6.79483 4.18152,15.38406 2.30969,22.30707 -1.87182,6.923 -12.30969,11.53851 -13.54071,19.23099 -1.23096,7.69247 6.4112,18.59054 6.15491,26.92386 -0.25635,8.33334 -2.43659,19.2301 -7.69293,23.07614 -5.25635,3.84601 -19.48645,1.66665 -23.84516,0 -4.3587,-1.66669 -3.84558,-7.30753 -2.30707,-10 1.53846,-2.69248 10.43567,2.81976 11.53803,-6.15488 1.10236,-8.97461 -0.89807,-37.30838 -4.92389,-47.6929 -4.02582,-10.38452 -15.17975,-15.51181 -19.23096,-14.61417 -4.05114,0.89765 -2.94793,12.94883 -5.07611,20 -2.12817,7.05118 -4.48773,16.15311 -7.69293,22.30707 -3.20514,6.15399 -9.3587,9.61682 -11.53802,14.61682 -2.17939,5 3.20556,12.04987 -1.53809,15.38318 -4.74365,3.33335 -21.79572,6.53983 -26.92389,4.61682 -5.12817,-1.92303 -5.12726,-12.9497 -3.84515,-16.15487 1.28216,-3.20514 6.92303,3.59054 11.53808,-3.07611 4.61505,-6.66666 13.58838,-27.30841 16.15222,-36.92389 2.56391,-9.61548 3.84601,-13.07654 -0.76904,-20.76902 -4.61505,-7.69247 -22.30621,-17.69336 -26.92126,-25.38583 -4.61499,-7.69247 3.97467,-18.46152 -0.76899,-20.76904 -4.74365,-2.30753 -17.30798,5.8981 -27.69293,6.92389 -10.38495,1.02581 -23.20648,0.38494 -34.61679,-0.76902 -11.41034,-1.15399 -28.71698,-8.71917 -33.84515,-6.15487 -5.12818,2.56433 2.69159,14.48907 3.07611,21.54068 0.38452,7.05163 0.6413,14.10238 -0.76901,20.76904 -1.41034,6.66666 -5.89807,10.00043 -7.69294,19.23096 -1.79483,9.23056 -2.56341,26.92172 -3.07611,36.15225 -0.51269,9.23053 1.53852,14.10278 0,19.23096 -1.53848,5.12817 -3.07699,9.48687 -9.23095,11.53805 -6.154,2.05118 -23.8469,3.46109 -27.69294,0.76904 -3.846,-2.69204 1.79618,-13.45974 4.61683,-16.92126 2.82064,-3.46152 10.25589,4.35739 12.30706,-3.84778 2.05118,-8.20514 1.53852,-36.92169 0,-45.38318 -1.53848,-8.46152 -7.0516,-9.61636 -9.23095,-5.38583 -2.17935,4.23053 -1.28128,21.40988 -3.84516,30.76901 -2.56387,9.35916 -7.94839,19.61636 -11.53805,25.38583 -3.58969,5.76947 -5,8.59012 -10,9.23099 -5,0.64084 -17.05118,-2.30884 -20,-5.38583 -2.94882,-3.077 -1.02625,-8.97376 2.3071,-13.07611 3.33331,-4.10239 14.35955,-0.12775 17.6929,-11.53806 3.33334,-11.41034 3.33288,-44.74411 2.3071,-56.92389 -1.02582,-12.17981 -7.56433,-6.92389 -8.46195,-16.15488 -0.89764,-9.23095 8.84512,-28.07742 3.07611,-39.23095 -5.76904,-11.15354 -28.97244,-17.04944 -37.69031,-27.69028 -8.71783,-10.64087 -12.82196,-24.74454 -14.61679,-36.15488 -1.79483,-11.41031 5.12992,-24.61459 3.84778,-32.30708 -1.28216,-7.69247 -10.0022,-5.25809 -11.54068,-13.84776 -1.53851,-8.58968 2.82239,-28.33159 2.30969,-37.6903 -0.51266,-9.3587 -4.61633,-9.61547 -5.3858,-18.46194 -0.76947,-8.84645 -0.89764,-24.74497 0.76901,-34.61679 1.66669,-9.87183 7.69248,-18.46063 9.23099,-24.61417 1.53848,-6.15355 4.10236,-10.25591 0,-12.3071 -4.10238,-2.05117 -18.58838,3.20517 -24.6142,0 -6.02578,-3.20516 -10.51486,-13.717837 -11.54068,-19.230967 -1.02578,-5.513123 1.15488,-10.642601 5.38584,-13.847763 4.23099,-3.205162 15.12817,-3.716538 20,-5.383202 4.87182,-1.666672 7.82065,-0.642174 9.23099,-4.616802 1.41031,-3.974628 0.1286,-13.718285 -0.76905,-19.230968 -0.89764,-5.512688 -6.53979,-12.307087 -4.61679,-13.845146 1.92301,-1.538057 12.43656,2.437447 16.15485,4.616799 3.71829,2.179351 3.59054,9.228783 6.15484,8.459316 2.56434,-0.769467 2.69248,-15.768591 9.23099,-13.076115 z"
       fill-rule="evenodd"
       id="path22" />
  </g>
</svg>
