<svg width="160" height="160" viewBox="0 0 160 160" fill="none" xmlns="http://www.w3.org/2000/svg">
<rect width="160" height="160" fill="white"/>
<path d="M80.484 48.521C113.87 48.521 140.935 37.6592 140.935 24.2605C140.935 10.8618 113.87 0 80.484 0C47.0979 0 20.0332 10.8618 20.0332 24.2605C20.0332 37.6592 47.0979 48.521 80.484 48.521Z" fill="#2962FF"/>
<path d="M81.8543 130.759C62.5395 135.371 42.6231 140.149 29.9248 148.57C23.5756 144.627 20 140.083 20 135.738C20 116.557 52.0466 109.306 83.0239 102.288C105.346 97.2423 128.136 92.0628 140.902 81.6702V98.579C140.935 116.591 110.893 123.809 81.8543 130.759Z" fill="#2962FF"/>
<path d="M80.785 92.2633C57.2596 97.5765 33.233 103.023 20 114.385V110.642C20 77.2257 56.6581 68.6711 92.1132 60.3503C117.877 54.3353 130.409 51.1607 140.935 42.7063V61.4196C140.935 78.6627 110.359 85.5799 80.785 92.2633Z" fill="#2962FF"/>
<path d="M140.935 119.566C128.37 130.159 106.081 135.539 84.2601 140.752C68.6211 144.495 52.6145 148.338 41.2863 153.918C51.5452 157.594 64.9787 160 80.484 160C115.739 160 140.935 147.369 140.935 135.74V119.566V119.566Z" fill="#2962FF"/>
</svg>
