<svg width="160" height="160" viewBox="0 0 160 160" fill="none" xmlns="http://www.w3.org/2000/svg">
<rect width="160" height="160" fill="white"/>
<path d="M44.0352 100.547H19.5018C22.7502 111.69 28.778 121.678 37.6029 130.503C51.6718 144.575 68.589 151.599 88.3722 151.599C92.3268 151.599 96.1583 151.305 99.8799 150.743C114.781 148.494 127.827 141.757 139.005 130.503C147.887 121.681 153.958 111.69 157.231 100.547H147.275H132.717H44.0352Z" fill="#2C2255"/>
<path d="M30.507 67.2256H17.6909C17.222 70.0417 16.9026 72.9164 16.7576 75.8644H31.9898H39.6308H149.924H159.991C159.845 72.9164 159.525 70.0417 159.052 67.2256" fill="#2C2255"/>
<path d="M16.7576 83.8862C16.9026 86.8357 17.2206 89.7104 17.6909 92.5251H31.0154H41.1151H149.024H159.055C159.527 89.7104 159.849 86.8357 159.996 83.8862" fill="#2C2255"/>
<path d="M157.234 59.2022C153.964 48.0285 147.892 37.9949 139.005 29.1069C127.857 17.9597 114.847 11.2695 99.9943 9.01899C96.2375 8.44903 92.3679 8.15015 88.3723 8.15015C68.5891 8.15015 51.6705 15.1377 37.6031 29.1069C28.7752 37.9949 22.7444 48.0285 19.4976 59.2022" fill="#2C2255"/>
<path d="M12.4982 79.8777C12.4982 42.0403 40.9158 10.6014 77.8843 5.07177C76.9671 5.03807 76.0454 5 75.1194 5C33.6337 5 0 38.5253 0 79.8777C0 121.232 33.6322 154.754 75.1194 154.754C76.0484 154.754 76.97 154.72 77.8901 154.685C40.9158 149.155 12.4982 117.717 12.4982 79.8777Z" fill="#F7941E"/>
<path d="M137.118 75.8629C136.878 72.9018 136.379 70.0139 135.635 67.2241H41.115C40.3707 70.0109 39.871 72.9003 39.6307 75.8629H137.118Z" fill="url(#paint0_linear_608_13179)"/>
<path d="M137.118 83.8862H39.6322C39.8725 86.8474 40.3692 89.7338 41.115 92.5251H135.637C136.381 89.7353 136.878 86.8474 137.118 83.8862Z" fill="url(#paint1_linear_608_13179)"/>
<path d="M88.3751 128.798C108.004 128.798 124.925 117.233 132.717 100.547H44.0337C51.8256 117.233 68.7458 128.798 88.3751 128.798Z" fill="url(#paint2_linear_608_13179)"/>
<path d="M32.4073 83.8865H39.5633H137.301H150.141H159.895C159.962 82.6103 160 81.3253 160 80.0301C160 78.6308 159.949 77.2447 159.87 75.8616H150.139H137.3H39.5619H31.9003H16.7575C16.6784 77.2418 16.6271 78.6308 16.6271 80.0301C16.6271 81.3253 16.6652 82.6103 16.7326 83.8865H32.4073Z" fill="white"/>
<path d="M43.748 59.2021H19.4959C18.6989 61.8146 18.1846 64.4945 17.6908 67.2271H30.1816H40.8175H135.585H149.007H158.599C158.104 64.4974 157.467 61.8175 156.671 59.2021" fill="white"/>
<path d="M149.386 92.5239H135.965H41.1985H31.071H17.6893C18.1699 95.2536 18.7164 97.932 19.5003 100.547H44.126H133.037H147.634H157.14C157.922 97.9349 158.554 95.2565 159.036 92.5239H149.386Z" fill="white"/>
<defs>
<linearGradient id="paint0_linear_608_13179" x1="88.3733" y1="161.336" x2="88.3733" y2="53.446" gradientUnits="userSpaceOnUse">
<stop offset="0.3033" stop-color="#473788"/>
<stop offset="0.872" stop-color="#2C2255"/>
</linearGradient>
<linearGradient id="paint1_linear_608_13179" x1="88.3746" y1="161.337" x2="88.3746" y2="53.4473" gradientUnits="userSpaceOnUse">
<stop offset="0.3033" stop-color="#473788"/>
<stop offset="0.872" stop-color="#2C2255"/>
</linearGradient>
<linearGradient id="paint2_linear_608_13179" x1="88.3747" y1="161.333" x2="88.3747" y2="53.4512" gradientUnits="userSpaceOnUse">
<stop offset="0.3033" stop-color="#473788"/>
<stop offset="0.8631" stop-color="#2C2255"/>
</linearGradient>
</defs>
</svg>
