<svg width="160" height="160" viewBox="0 0 160 160" fill="none" xmlns="http://www.w3.org/2000/svg">
<g clip-path="url(#clip0_608_13347)">
<rect width="160" height="160" fill="none"/>
<path d="M108.042 51.9578C104.263 23.6414 94.6966 0 79.9998 0C65.3073 0 55.7405 23.6373 51.9578 51.9578C23.6414 55.7362 0 65.3035 0 79.9998C0 94.6923 23.6414 104.26 51.9578 108.042C55.7362 136.354 65.3035 160 79.9998 160C94.6923 160 104.26 136.358 108.042 108.042C136.358 104.26 160 94.6966 160 79.9998C160 65.3035 136.354 55.7362 108.042 51.9578ZM51.0367 99.789C23.9156 95.8712 8.1015 86.9062 8.1015 79.996C8.1015 73.0857 23.9197 64.1203 51.0367 60.2025C50.4392 66.7321 50.1281 73.3969 50.1281 79.996C50.1281 86.595 50.4392 93.2679 51.0367 99.789ZM80.004 8.09741C86.9143 8.09741 95.8797 23.9156 99.7971 51.0325C93.2717 50.4349 86.6031 50.1238 80.004 50.1238C73.405 50.1238 66.7364 50.4349 60.2106 51.0325C64.1284 23.9115 73.0938 8.09741 80.004 8.09741ZM108.967 99.789C107.633 99.9855 102.155 100.624 100.771 100.763C100.636 102.151 99.9897 107.625 99.7971 108.959C95.8797 136.08 86.9143 151.899 80.004 151.899C73.0938 151.899 64.1284 136.08 60.2106 108.959C60.0184 107.625 59.3714 102.147 59.2363 100.763C58.6059 94.336 58.2253 87.43 58.2253 79.996C58.2253 72.5657 58.6059 65.6593 59.2363 59.2243C65.6636 58.5935 72.5696 58.2129 80.004 58.2129C87.4343 58.2129 94.3402 58.5935 100.771 59.2243C102.159 59.3595 107.633 60.006 108.967 60.1987C136.088 64.116 151.91 73.0857 151.91 79.9917C151.907 86.8977 136.088 95.8712 108.967 99.789Z" fill="#141414"/>
</g>
<defs>
<clipPath id="clip0_608_13347">
<rect width="160" height="160" fill="none"/>
</clipPath>
</defs>
</svg>
